<?xml version="1.0"?>
<!-- Generated by gensvg -->
<svg width="500.00" height="500.00"
     xmlns="http://www.w3.org/2000/svg"
     xmlns:xlink="http://www.w3.org/1999/xlink">
<rect x="0.00" y="0.00" width="500.00" height="500.00" style="fill:black" />
<line x1="302.33" y1="470.25" x2="302.33" y2="471.25" style="stroke:white" />
<line x1="332.28" y1="218.86" x2="332.28" y2="219.86" style="stroke:white" />
<line x1="212.32" y1="343.41" x2="212.32" y2="344.41" style="stroke:white" />
<line x1="32.82" y1="78.26" x2="32.82" y2="79.26" style="stroke:white" />
<line x1="48.48" y1="150.46" x2="48.48" y2="151.46" style="stroke:white" />
<line x1="257.61" y1="406.82" x2="257.61" y2="407.82" style="stroke:white" />
<line x1="107.13" y1="190.33" x2="107.13" y2="191.33" style="stroke:white" />
<line x1="159.03" y1="234.44" x2="159.03" y2="235.44" style="stroke:white" />
<line x1="141.52" y1="146.55" x2="141.52" y2="147.55" style="stroke:white" />
<line x1="339.54" y1="109.28" x2="339.54" y2="110.28" style="stroke:white" />
<line x1="101.59" y1="180.44" x2="101.59" y2="181.44" style="stroke:white" />
<line x1="285.34" y1="431.25" x2="285.34" y2="432.25" style="stroke:white" />
<line x1="146.56" y1="148.54" x2="146.56" y2="149.54" style="stroke:white" />
<line x1="376.29" y1="103.29" x2="376.29" y2="104.29" style="stroke:white" />
<line x1="432.67" y1="348.36" x2="432.67" y2="349.36" style="stroke:white" />
<line x1="261.91" y1="14.15" x2="261.91" y2="15.15" style="stroke:white" />
<line x1="79.16" y1="303.63" x2="79.16" y2="304.63" style="stroke:white" />
<line x1="487.62" y1="39.73" x2="487.62" y2="40.73" style="stroke:white" />
<line x1="297.40" y1="29.56" x2="297.40" y2="30.56" style="stroke:white" />
<line x1="346.01" y1="150.76" x2="346.01" y2="151.76" style="stroke:white" />
<line x1="86.63" y1="270.55" x2="86.63" y2="271.55" style="stroke:white" />
<line x1="272.08" y1="139.25" x2="272.08" y2="140.25" style="stroke:white" />
<line x1="211.58" y1="265.29" x2="211.58" y2="266.29" style="stroke:white" />
<line x1="126.77" y1="141.04" x2="126.77" y2="142.04" style="stroke:white" />
<line x1="394.30" y1="180.90" x2="394.30" y2="181.90" style="stroke:white" />
<line x1="440.27" y1="148.56" x2="440.27" y2="149.56" style="stroke:white" />
<line x1="447.18" y1="48.73" x2="447.18" y2="49.73" style="stroke:white" />
<line x1="488.46" y1="37.15" x2="488.46" y2="38.15" style="stroke:white" />
<line x1="111.14" y1="340.54" x2="111.14" y2="341.54" style="stroke:white" />
<line x1="120.76" y1="155.76" x2="120.76" y2="156.76" style="stroke:white" />
<line x1="466.42" y1="370.92" x2="466.42" y2="371.92" style="stroke:white" />
<line x1="400.53" y1="365.12" x2="400.53" y2="366.12" style="stroke:white" />
<line x1="91.46" y1="214.18" x2="91.46" y2="215.18" style="stroke:white" />
<line x1="448.50" y1="341.33" x2="448.50" y2="342.33" style="stroke:white" />
<line x1="489.46" y1="461.11" x2="489.46" y2="462.11" style="stroke:white" />
<line x1="45.42" y1="246.57" x2="45.42" y2="247.57" style="stroke:white" />
<line x1="463.49" y1="477.47" x2="463.49" y2="478.47" style="stroke:white" />
<line x1="173.98" y1="345.42" x2="173.98" y2="346.42" style="stroke:white" />
<line x1="355.45" y1="281.89" x2="355.45" y2="282.89" style="stroke:white" />
<line x1="324.74" y1="275.88" x2="324.74" y2="276.88" style="stroke:white" />
<line x1="377.91" y1="201.90" x2="377.91" y2="202.90" style="stroke:white" />
<line x1="65.33" y1="492.98" x2="65.33" y2="493.98" style="stroke:white" />
<line x1="448.17" y1="161.04" x2="448.17" y2="162.04" style="stroke:white" />
<line x1="360.57" y1="322.27" x2="360.57" y2="323.27" style="stroke:white" />
<line x1="42.76" y1="334.79" x2="42.76" y2="335.79" style="stroke:white" />
<line x1="311.36" y1="184.85" x2="311.36" y2="185.85" style="stroke:white" />
<line x1="118.41" y1="267.64" x2="118.41" y2="268.64" style="stroke:white" />
<line x1="93.62" y1="119.42" x2="93.62" y2="120.42" style="stroke:white" />
<line x1="314.05" y1="63.38" x2="314.05" y2="64.38" style="stroke:white" />
<line x1="140.67" y1="205.16" x2="140.67" y2="206.16" style="stroke:white" />
<line x1="217.46" y1="312.55" x2="217.46" y2="313.55" style="stroke:white" />
<line x1="275.07" y1="311.80" x2="275.07" y2="312.80" style="stroke:white" />
<line x1="364.59" y1="415.27" x2="364.59" y2="416.27" style="stroke:white" />
<line x1="0.26" y1="368.03" x2="0.26" y2="369.03" style="stroke:white" />
<line x1="199.99" y1="248.93" x2="199.99" y2="249.93" style="stroke:white" />
<line x1="301.99" y1="204.81" x2="301.99" y2="205.81" style="stroke:white" />
<line x1="14.84" y1="0.95" x2="14.84" y2="1.95" style="stroke:white" />
<line x1="1.42" y1="457.91" x2="1.42" y2="458.91" style="stroke:white" />
<line x1="294.92" y1="279.70" x2="294.92" y2="280.70" style="stroke:white" />
<line x1="407.70" y1="439.01" x2="407.70" y2="440.01" style="stroke:white" />
<line x1="229.22" y1="300.08" x2="229.22" y2="301.08" style="stroke:white" />
<line x1="13.13" y1="422.92" x2="13.13" y2="423.92" style="stroke:white" />
<line x1="124.85" y1="320.89" x2="124.85" y2="321.89" style="stroke:white" />
<line x1="123.73" y1="86.83" x2="123.73" y2="87.83" style="stroke:white" />
<line x1="296.31" y1="407.20" x2="296.31" y2="408.20" style="stroke:white" />
<line x1="346.92" y1="15.16" x2="346.92" y2="16.16" style="stroke:white" />
<line x1="269.61" y1="487.84" x2="269.61" y2="488.84" style="stroke:white" />
<line x1="375.38" y1="147.00" x2="375.38" y2="148.00" style="stroke:white" />
<line x1="376.58" y1="75.48" x2="376.58" y2="76.48" style="stroke:white" />
<line x1="177.88" y1="415.97" x2="177.88" y2="416.97" style="stroke:white" />
<line x1="115.92" y1="313.92" x2="115.92" y2="314.92" style="stroke:white" />
<line x1="249.20" y1="44.92" x2="249.20" y2="45.92" style="stroke:white" />
<line x1="12.60" y1="196.11" x2="12.60" y2="197.11" style="stroke:white" />
<line x1="294.69" y1="464.81" x2="294.69" y2="465.81" style="stroke:white" />
<line x1="286.04" y1="294.29" x2="286.04" y2="295.29" style="stroke:white" />
<line x1="205.88" y1="276.29" x2="205.88" y2="277.29" style="stroke:white" />
<line x1="245.80" y1="478.98" x2="245.80" y2="479.98" style="stroke:white" />
<line x1="398.60" y1="53.69" x2="398.60" y2="54.69" style="stroke:white" />
<line x1="391.52" y1="196.63" x2="391.52" y2="197.63" style="stroke:white" />
<line x1="65.21" y1="95.02" x2="65.21" y2="96.02" style="stroke:white" />
<line x1="369.91" y1="327.02" x2="369.91" y2="328.02" style="stroke:white" />
<line x1="49.19" y1="260.19" x2="49.19" y2="261.19" style="stroke:white" />
<line x1="49.86" y1="75.92" x2="49.86" y2="76.92" style="stroke:white" />
<line x1="38.10" y1="157.60" x2="38.10" y2="158.60" style="stroke:white" />
<line x1="79.83" y1="68.90" x2="79.83" y2="69.90" style="stroke:white" />
<line x1="161.31" y1="269.54" x2="161.31" y2="270.54" style="stroke:white" />
<line x1="285.43" y1="256.39" x2="285.43" y2="257.39" style="stroke:white" />
<line x1="342.09" y1="326.52" x2="342.09" y2="327.52" style="stroke:white" />
<line x1="262.25" y1="327.14" x2="262.25" y2="328.14" style="stroke:white" />
<line x1="358.18" y1="318.32" x2="358.18" y2="319.32" style="stroke:white" />
<line x1="6.41" y1="15.34" x2="6.41" y2="16.34" style="stroke:white" />
<line x1="49.02" y1="184.56" x2="49.02" y2="185.56" style="stroke:white" />
<line x1="413.23" y1="173.84" x2="413.23" y2="174.84" style="stroke:white" />
<line x1="172.16" y1="126.50" x2="172.16" y2="127.50" style="stroke:white" />
<line x1="108.24" y1="277.50" x2="108.24" y2="278.50" style="stroke:white" />
<line x1="201.04" y1="253.25" x2="201.04" y2="254.25" style="stroke:white" />
<line x1="84.34" y1="165.68" x2="84.34" y2="166.68" style="stroke:white" />
<line x1="413.96" y1="350.14" x2="413.96" y2="351.14" style="stroke:white" />
<line x1="28.96" y1="499.58" x2="28.96" y2="500.58" style="stroke:white" />
<line x1="205.77" y1="55.84" x2="205.77" y2="56.84" style="stroke:white" />
<line x1="390.38" y1="46.06" x2="390.38" y2="47.06" style="stroke:white" />
<line x1="26.75" y1="357.35" x2="26.75" y2="358.35" style="stroke:white" />
<line x1="125.38" y1="424.32" x2="125.38" y2="425.32" style="stroke:white" />
<line x1="486.94" y1="106.28" x2="486.94" y2="107.28" style="stroke:white" />
<line x1="10.77" y1="472.60" x2="10.77" y2="473.60" style="stroke:white" />
<line x1="46.49" y1="322.92" x2="46.49" y2="323.92" style="stroke:white" />
<line x1="155.94" y1="224.23" x2="155.94" y2="225.23" style="stroke:white" />
<line x1="243.62" y1="41.24" x2="243.62" y2="42.24" style="stroke:white" />
<line x1="335.91" y1="200.09" x2="335.91" y2="201.09" style="stroke:white" />
<line x1="450.14" y1="474.94" x2="450.14" y2="475.94" style="stroke:white" />
<line x1="159.67" y1="249.69" x2="159.67" y2="250.69" style="stroke:white" />
<line x1="200.22" y1="9.90" x2="200.22" y2="10.90" style="stroke:white" />
<line x1="322.52" y1="214.34" x2="322.52" y2="215.34" style="stroke:white" />
<line x1="169.80" y1="443.72" x2="169.80" y2="444.72" style="stroke:white" />
<line x1="118.16" y1="382.50" x2="118.16" y2="383.50" style="stroke:white" />
<line x1="17.88" y1="363.79" x2="17.88" y2="364.79" style="stroke:white" />
<line x1="312.92" y1="256.54" x2="312.92" y2="257.54" style="stroke:white" />
<line x1="36.22" y1="362.11" x2="36.22" y2="363.11" style="stroke:white" />
<line x1="439.92" y1="488.88" x2="439.92" y2="489.88" style="stroke:white" />
<line x1="423.75" y1="416.10" x2="423.75" y2="417.10" style="stroke:white" />
<line x1="123.92" y1="456.70" x2="123.92" y2="457.70" style="stroke:white" />
<line x1="37.52" y1="417.55" x2="37.52" y2="418.55" style="stroke:white" />
<line x1="314.67" y1="375.87" x2="314.67" y2="376.87" style="stroke:white" />
<line x1="316.00" y1="48.47" x2="316.00" y2="49.47" style="stroke:white" />
<line x1="7.41" y1="291.92" x2="7.41" y2="292.92" style="stroke:white" />
<line x1="34.38" y1="499.14" x2="34.38" y2="500.14" style="stroke:white" />
<line x1="324.59" y1="492.73" x2="324.59" y2="493.73" style="stroke:white" />
<line x1="417.40" y1="166.03" x2="417.40" y2="167.03" style="stroke:white" />
<line x1="330.70" y1="478.01" x2="330.70" y2="479.01" style="stroke:white" />
<line x1="155.26" y1="92.20" x2="155.26" y2="93.20" style="stroke:white" />
<line x1="483.55" y1="416.62" x2="483.55" y2="417.62" style="stroke:white" />
<line x1="154.77" y1="402.94" x2="154.77" y2="403.94" style="stroke:white" />
<line x1="208.66" y1="359.27" x2="208.66" y2="360.27" style="stroke:white" />
<line x1="203.37" y1="447.90" x2="203.37" y2="448.90" style="stroke:white" />
<line x1="479.09" y1="9.36" x2="479.09" y2="10.36" style="stroke:white" />
<line x1="395.84" y1="211.78" x2="395.84" y2="212.78" style="stroke:white" />
<line x1="7.59" y1="216.35" x2="7.59" y2="217.35" style="stroke:white" />
<line x1="452.39" y1="427.85" x2="452.39" y2="428.85" style="stroke:white" />
<line x1="21.46" y1="329.52" x2="21.46" y2="330.52" style="stroke:white" />
<line x1="173.93" y1="251.74" x2="173.93" y2="252.74" style="stroke:white" />
<line x1="419.97" y1="11.55" x2="419.97" y2="12.55" style="stroke:white" />
<line x1="62.18" y1="130.59" x2="62.18" y2="131.59" style="stroke:white" />
<line x1="417.47" y1="157.40" x2="417.47" y2="158.40" style="stroke:white" />
<line x1="3.84" y1="449.88" x2="3.84" y2="450.88" style="stroke:white" />
<line x1="185.13" y1="50.10" x2="185.13" y2="51.10" style="stroke:white" />
<line x1="321.60" y1="384.94" x2="321.60" y2="385.94" style="stroke:white" />
<line x1="395.56" y1="131.19" x2="395.56" y2="132.19" style="stroke:white" />
<line x1="173.43" y1="107.33" x2="173.43" y2="108.33" style="stroke:white" />
<line x1="411.05" y1="175.57" x2="411.05" y2="176.57" style="stroke:white" />
<line x1="299.60" y1="289.18" x2="299.60" y2="290.18" style="stroke:white" />
<line x1="206.79" y1="59.93" x2="206.79" y2="60.93" style="stroke:white" />
<line x1="455.81" y1="26.89" x2="455.81" y2="27.89" style="stroke:white" />
<line x1="114.46" y1="162.09" x2="114.46" y2="163.09" style="stroke:white" />
<line x1="175.38" y1="174.64" x2="175.38" y2="175.64" style="stroke:white" />
<line x1="151.90" y1="484.37" x2="151.90" y2="485.37" style="stroke:white" />
<line x1="335.76" y1="103.97" x2="335.76" y2="104.97" style="stroke:white" />
<line x1="481.57" y1="151.10" x2="481.57" y2="152.10" style="stroke:white" />
<line x1="403.97" y1="67.04" x2="403.97" y2="68.04" style="stroke:white" />
<line x1="473.88" y1="320.43" x2="473.88" y2="321.43" style="stroke:white" />
<line x1="476.63" y1="404.94" x2="476.63" y2="405.94" style="stroke:white" />
<line x1="90.80" y1="471.38" x2="90.80" y2="472.38" style="stroke:white" />
<line x1="415.62" y1="247.34" x2="415.62" y2="248.34" style="stroke:white" />
<line x1="427.66" y1="355.37" x2="427.66" y2="356.37" style="stroke:white" />
<line x1="136.75" y1="203.82" x2="136.75" y2="204.82" style="stroke:white" />
<line x1="454.88" y1="472.20" x2="454.88" y2="473.20" style="stroke:white" />
<line x1="249.32" y1="144.32" x2="249.32" y2="145.32" style="stroke:white" />
<line x1="487.95" y1="226.29" x2="487.95" y2="227.29" style="stroke:white" />
<line x1="22.50" y1="157.68" x2="22.50" y2="158.68" style="stroke:white" />
<line x1="475.95" y1="375.78" x2="475.95" y2="376.78" style="stroke:white" />
<line x1="267.90" y1="334.86" x2="267.90" y2="335.86" style="stroke:white" />
<line x1="432.59" y1="229.44" x2="432.59" y2="230.44" style="stroke:white" />
<line x1="289.28" y1="240.76" x2="289.28" y2="241.76" style="stroke:white" />
<line x1="275.31" y1="475.31" x2="275.31" y2="476.31" style="stroke:white" />
<line x1="254.93" y1="371.26" x2="254.93" y2="372.26" style="stroke:white" />
<line x1="245.40" y1="33.08" x2="245.40" y2="34.08" style="stroke:white" />
<line x1="131.25" y1="462.73" x2="131.25" y2="463.73" style="stroke:white" />
<line x1="185.74" y1="204.71" x2="185.74" y2="205.71" style="stroke:white" />
<line x1="207.88" y1="48.63" x2="207.88" y2="49.63" style="stroke:white" />
<line x1="450.81" y1="2.22" x2="450.81" y2="3.22" style="stroke:white" />
<line x1="136.96" y1="54.65" x2="136.96" y2="55.65" style="stroke:white" />
<line x1="427.72" y1="128.53" x2="427.72" y2="129.53" style="stroke:white" />
<line x1="494.57" y1="463.21" x2="494.57" y2="464.21" style="stroke:white" />
<line x1="85.47" y1="151.94" x2="85.47" y2="152.94" style="stroke:white" />
<line x1="266.73" y1="88.24" x2="266.73" y2="89.24" style="stroke:white" />
<line x1="406.80" y1="352.57" x2="406.80" y2="353.57" style="stroke:white" />
<line x1="128.60" y1="125.18" x2="128.60" y2="126.18" style="stroke:white" />
<line x1="167.55" y1="375.62" x2="167.55" y2="376.62" style="stroke:white" />
<line x1="2.44" y1="420.50" x2="2.44" y2="421.50" style="stroke:white" />
<line x1="114.79" y1="6.64" x2="114.79" y2="7.64" style="stroke:white" />
<line x1="474.97" y1="449.69" x2="474.97" y2="450.69" style="stroke:white" />
<line x1="481.31" y1="21.50" x2="481.31" y2="22.50" style="stroke:white" />
<line x1="356.33" y1="25.55" x2="356.33" y2="26.55" style="stroke:white" />
<line x1="203.77" y1="237.85" x2="203.77" y2="238.85" style="stroke:white" />
<line x1="173.73" y1="20.36" x2="173.73" y2="21.36" style="stroke:white" />
<line x1="298.78" y1="130.06" x2="298.78" y2="131.06" style="stroke:white" />
<line x1="416.43" y1="480.25" x2="416.43" y2="481.25" style="stroke:white" />
<line x1="468.35" y1="114.66" x2="468.35" y2="115.66" style="stroke:white" />
<line x1="360.16" y1="378.24" x2="360.16" y2="379.24" style="stroke:white" />
<line x1="225.08" y1="169.49" x2="225.08" y2="170.49" style="stroke:white" />
<line x1="236.25" y1="493.00" x2="236.25" y2="494.00" style="stroke:white" />
<line x1="181.17" y1="124.83" x2="181.17" y2="125.83" style="stroke:white" />
<line x1="23.93" y1="394.86" x2="23.93" y2="395.86" style="stroke:white" />
<line x1="378.11" y1="328.73" x2="378.11" y2="329.73" style="stroke:white" />
<line x1="110.50" y1="328.75" x2="110.50" y2="329.75" style="stroke:white" />
<line x1="195.42" y1="459.63" x2="195.42" y2="460.63" style="stroke:white" />
<line x1="74.84" y1="260.20" x2="74.84" y2="261.20" style="stroke:white" />
<line x1="382.79" y1="124.09" x2="382.79" y2="125.09" style="stroke:white" />
<line x1="227.72" y1="349.89" x2="227.72" y2="350.89" style="stroke:white" />
<line x1="40.98" y1="256.14" x2="40.98" y2="257.14" style="stroke:white" />
<line x1="133.19" y1="311.00" x2="133.19" y2="312.00" style="stroke:white" />
<line x1="49.54" y1="70.29" x2="49.54" y2="71.29" style="stroke:white" />
<line x1="79.60" y1="472.01" x2="79.60" y2="473.01" style="stroke:white" />
<line x1="315.74" y1="122.90" x2="315.74" y2="123.90" style="stroke:white" />
<line x1="483.75" y1="268.49" x2="483.75" y2="269.49" style="stroke:white" />
<line x1="169.09" y1="335.83" x2="169.09" y2="336.83" style="stroke:white" />
<line x1="418.73" y1="366.93" x2="418.73" y2="367.93" style="stroke:white" />
<line x1="251.11" y1="211.74" x2="251.11" y2="212.74" style="stroke:white" />
<line x1="231.52" y1="476.52" x2="231.52" y2="477.52" style="stroke:white" />
<line x1="372.04" y1="227.59" x2="372.04" y2="228.59" style="stroke:white" />
<line x1="124.21" y1="359.94" x2="124.21" y2="360.94" style="stroke:white" />
<line x1="211.85" y1="371.30" x2="211.85" y2="372.30" style="stroke:white" />
<line x1="328.42" y1="341.26" x2="328.42" y2="342.26" style="stroke:white" />
<line x1="318.40" y1="124.29" x2="318.40" y2="125.29" style="stroke:white" />
<line x1="193.43" y1="384.99" x2="193.43" y2="385.99" style="stroke:white" />
<line x1="63.18" y1="143.32" x2="63.18" y2="144.32" style="stroke:white" />
<line x1="255.67" y1="99.28" x2="255.67" y2="100.28" style="stroke:white" />
<line x1="497.30" y1="317.98" x2="497.30" y2="318.98" style="stroke:white" />
<line x1="363.66" y1="206.16" x2="363.66" y2="207.16" style="stroke:white" />
<line x1="257.01" y1="65.59" x2="257.01" y2="66.59" style="stroke:white" />
<line x1="272.80" y1="422.52" x2="272.80" y2="423.52" style="stroke:white" />
<line x1="146.64" y1="389.15" x2="146.64" y2="390.15" style="stroke:white" />
<line x1="70.89" y1="327.19" x2="70.89" y2="328.19" style="stroke:white" />
<line x1="315.67" y1="196.98" x2="315.67" y2="197.98" style="stroke:white" />
<line x1="0.71" y1="282.93" x2="0.71" y2="283.93" style="stroke:white" />
<line x1="443.90" y1="226.24" x2="443.90" y2="227.24" style="stroke:white" />
<line x1="298.09" y1="321.42" x2="298.09" y2="322.42" style="stroke:white" />
<line x1="414.92" y1="405.19" x2="414.92" y2="406.19" style="stroke:white" />
<line x1="32.97" y1="40.74" x2="32.97" y2="41.74" style="stroke:white" />
<line x1="167.76" y1="245.32" x2="167.76" y2="246.32" style="stroke:white" />
<line x1="309.51" y1="313.83" x2="309.51" y2="314.83" style="stroke:white" />
<line x1="162.32" y1="396.61" x2="162.32" y2="397.61" style="stroke:white" />
<line x1="42.09" y1="127.16" x2="42.09" y2="128.16" style="stroke:white" />
<line x1="343.78" y1="210.11" x2="343.78" y2="211.11" style="stroke:white" />
<line x1="11.07" y1="108.50" x2="11.07" y2="109.50" style="stroke:white" />
<line x1="39.12" y1="281.92" x2="39.12" y2="282.92" style="stroke:white" />
<line x1="114.29" y1="183.79" x2="114.29" y2="184.79" style="stroke:white" />
<line x1="136.02" y1="450.15" x2="136.02" y2="451.15" style="stroke:white" />
<line x1="330.92" y1="222.56" x2="330.92" y2="223.56" style="stroke:white" />
<line x1="484.37" y1="333.81" x2="484.37" y2="334.81" style="stroke:white" />
<line x1="182.20" y1="3.31" x2="182.20" y2="4.31" style="stroke:white" />
<line x1="103.09" y1="391.23" x2="103.09" y2="392.23" style="stroke:white" />
<line x1="383.22" y1="404.12" x2="383.22" y2="405.12" style="stroke:white" />
<line x1="143.95" y1="304.97" x2="143.95" y2="305.97" style="stroke:white" />
<line x1="226.10" y1="113.25" x2="226.10" y2="114.25" style="stroke:white" />
<line x1="194.53" y1="123.43" x2="194.53" y2="124.43" style="stroke:white" />
<line x1="3.76" y1="76.74" x2="3.76" y2="77.74" style="stroke:white" />
<line x1="2.24" y1="454.60" x2="2.24" y2="455.60" style="stroke:white" />
<line x1="118.92" y1="163.63" x2="118.92" y2="164.63" style="stroke:white" />
<line x1="396.58" y1="215.15" x2="396.58" y2="216.15" style="stroke:white" />
<line x1="220.05" y1="49.80" x2="220.05" y2="50.80" style="stroke:white" />
<line x1="392.01" y1="261.04" x2="392.01" y2="262.04" style="stroke:white" />
<line x1="51.09" y1="424.14" x2="51.09" y2="425.14" style="stroke:white" />
<line x1="81.93" y1="282.70" x2="81.93" y2="283.70" style="stroke:white" />
<line x1="60.60" y1="137.68" x2="60.60" y2="138.68" style="stroke:white" />
<line x1="499.17" y1="464.65" x2="499.17" y2="465.65" style="stroke:white" />
<line x1="51.64" y1="105.44" x2="51.64" y2="106.44" style="stroke:white" />
<line x1="157.30" y1="236.21" x2="157.30" y2="237.21" style="stroke:white" />
<line x1="71.63" y1="187.74" x2="71.63" y2="188.74" style="stroke:white" />
<line x1="343.90" y1="393.95" x2="343.90" y2="394.95" style="stroke:white" />
<line x1="16.41" y1="48.19" x2="16.41" y2="49.19" style="stroke:white" />
<line x1="167.41" y1="261.55" x2="167.41" y2="262.55" style="stroke:white" />
<line x1="174.29" y1="90.14" x2="174.29" y2="91.14" style="stroke:white" />
<line x1="457.35" y1="184.05" x2="457.35" y2="185.05" style="stroke:white" />
<line x1="79.23" y1="45.51" x2="79.23" y2="46.51" style="stroke:white" />
<line x1="131.57" y1="197.24" x2="131.57" y2="198.24" style="stroke:white" />
<line x1="94.48" y1="377.93" x2="94.48" y2="378.93" style="stroke:white" />
<line x1="320.68" y1="159.34" x2="320.68" y2="160.34" style="stroke:white" />
<line x1="314.20" y1="139.22" x2="314.20" y2="140.22" style="stroke:white" />
<line x1="168.49" y1="288.73" x2="168.49" y2="289.73" style="stroke:white" />
<line x1="214.13" y1="55.25" x2="214.13" y2="56.25" style="stroke:white" />
<line x1="173.40" y1="190.49" x2="173.40" y2="191.49" style="stroke:white" />
<line x1="402.50" y1="441.52" x2="402.50" y2="442.52" style="stroke:white" />
<line x1="188.65" y1="89.92" x2="188.65" y2="90.92" style="stroke:white" />
<line x1="223.65" y1="94.69" x2="223.65" y2="95.69" style="stroke:white" />
<line x1="49.43" y1="82.32" x2="49.43" y2="83.32" style="stroke:white" />
<line x1="13.26" y1="325.59" x2="13.26" y2="326.59" style="stroke:white" />
<line x1="391.74" y1="91.88" x2="391.74" y2="92.88" style="stroke:white" />
<line x1="487.57" y1="365.62" x2="487.57" y2="366.62" style="stroke:white" />
<line x1="221.32" y1="125.63" x2="221.32" y2="126.63" style="stroke:white" />
<line x1="306.22" y1="11.23" x2="306.22" y2="12.23" style="stroke:white" />
<line x1="48.25" y1="250.04" x2="48.25" y2="251.04" style="stroke:white" />
<line x1="119.10" y1="140.50" x2="119.10" y2="141.50" style="stroke:white" />
<line x1="219.00" y1="457.74" x2="219.00" y2="458.74" style="stroke:white" />
<line x1="102.73" y1="351.46" x2="102.73" y2="352.46" style="stroke:white" />
<line x1="235.09" y1="470.84" x2="235.09" y2="471.84" style="stroke:white" />
<line x1="44.78" y1="384.63" x2="44.78" y2="385.63" style="stroke:white" />
<line x1="9.20" y1="46.96" x2="9.20" y2="47.96" style="stroke:white" />
<line x1="475.41" y1="31.61" x2="475.41" y2="32.61" style="stroke:white" />
<line x1="251.63" y1="398.87" x2="251.63" y2="399.87" style="stroke:white" />
<line x1="272.69" y1="202.37" x2="272.69" y2="203.37" style="stroke:white" />
<line x1="101.16" y1="159.08" x2="101.16" y2="160.08" style="stroke:white" />
<line x1="475.59" y1="395.60" x2="475.59" y2="396.60" style="stroke:white" />
<line x1="482.33" y1="83.01" x2="482.33" y2="84.01" style="stroke:white" />
<line x1="135.79" y1="324.83" x2="135.79" y2="325.83" style="stroke:white" />
<line x1="127.94" y1="308.23" x2="127.94" y2="309.23" style="stroke:white" />
<line x1="94.64" y1="480.21" x2="94.64" y2="481.21" style="stroke:white" />
<line x1="178.27" y1="465.41" x2="178.27" y2="466.41" style="stroke:white" />
<line x1="307.70" y1="337.76" x2="307.70" y2="338.76" style="stroke:white" />
<line x1="391.22" y1="32.91" x2="391.22" y2="33.91" style="stroke:white" />
<line x1="382.13" y1="362.06" x2="382.13" y2="363.06" style="stroke:white" />
<line x1="61.59" y1="404.43" x2="61.59" y2="405.43" style="stroke:white" />
<line x1="267.52" y1="272.76" x2="267.52" y2="273.76" style="stroke:white" />
<line x1="109.28" y1="25.29" x2="109.28" y2="26.29" style="stroke:white" />
<line x1="313.99" y1="309.47" x2="313.99" y2="310.47" style="stroke:white" />
<line x1="229.07" y1="236.15" x2="229.07" y2="237.15" style="stroke:white" />
<line x1="433.47" y1="283.52" x2="433.47" y2="284.52" style="stroke:white" />
<line x1="203.19" y1="304.01" x2="203.19" y2="305.01" style="stroke:white" />
<line x1="231.82" y1="427.23" x2="231.82" y2="428.23" style="stroke:white" />
<line x1="311.57" y1="347.38" x2="311.57" y2="348.38" style="stroke:white" />
<line x1="166.10" y1="345.89" x2="166.10" y2="346.89" style="stroke:white" />
<line x1="391.87" y1="394.42" x2="391.87" y2="395.42" style="stroke:white" />
<line x1="392.30" y1="426.01" x2="392.30" y2="427.01" style="stroke:white" />
<line x1="154.74" y1="13.56" x2="154.74" y2="14.56" style="stroke:white" />
<line x1="26.38" y1="89.07" x2="26.38" y2="90.07" style="stroke:white" />
<line x1="191.05" y1="386.86" x2="191.05" y2="387.86" style="stroke:white" />
<line x1="145.90" y1="186.54" x2="145.90" y2="187.54" style="stroke:white" />
<line x1="214.98" y1="108.08" x2="214.98" y2="109.08" style="stroke:white" />
<line x1="162.54" y1="250.63" x2="162.54" y2="251.63" style="stroke:white" />
<line x1="206.45" y1="144.04" x2="206.45" y2="145.04" style="stroke:white" />
<line x1="386.40" y1="120.92" x2="386.40" y2="121.92" style="stroke:white" />
<line x1="69.09" y1="287.24" x2="69.09" y2="288.24" style="stroke:white" />
<line x1="167.21" y1="27.57" x2="167.21" y2="28.57" style="stroke:white" />
<line x1="320.79" y1="89.11" x2="320.79" y2="90.11" style="stroke:white" />
<line x1="270.42" y1="326.58" x2="270.42" y2="327.58" style="stroke:white" />
<line x1="249.17" y1="125.60" x2="249.17" y2="126.60" style="stroke:white" />
<line x1="34.60" y1="327.71" x2="34.60" y2="328.71" style="stroke:white" />
<line x1="207.18" y1="129.66" x2="207.18" y2="130.66" style="stroke:white" />
<line x1="466.15" y1="13.40" x2="466.15" y2="14.40" style="stroke:white" />
<line x1="355.96" y1="423.52" x2="355.96" y2="424.52" style="stroke:white" />
<line x1="75.31" y1="73.99" x2="75.31" y2="74.99" style="stroke:white" />
<line x1="306.23" y1="369.40" x2="306.23" y2="370.40" style="stroke:white" />
<line x1="305.05" y1="430.30" x2="305.05" y2="431.30" style="stroke:white" />
<line x1="42.09" y1="207.54" x2="42.09" y2="208.54" style="stroke:white" />
<line x1="399.97" y1="105.63" x2="399.97" y2="106.63" style="stroke:white" />
<line x1="51.80" y1="106.31" x2="51.80" y2="107.31" style="stroke:white" />
<line x1="249.12" y1="81.36" x2="249.12" y2="82.36" style="stroke:white" />
<line x1="472.04" y1="410.11" x2="472.04" y2="411.11" style="stroke:white" />
<line x1="392.56" y1="122.36" x2="392.56" y2="123.36" style="stroke:white" />
<line x1="306.80" y1="127.10" x2="306.80" y2="128.10" style="stroke:white" />
<line x1="307.74" y1="102.16" x2="307.74" y2="103.16" style="stroke:white" />
<line x1="36.13" y1="262.71" x2="36.13" y2="263.71" style="stroke:white" />
<line x1="455.25" y1="232.78" x2="455.25" y2="233.78" style="stroke:white" />
<line x1="430.30" y1="391.78" x2="430.30" y2="392.78" style="stroke:white" />
<line x1="416.90" y1="448.98" x2="416.90" y2="449.98" style="stroke:white" />
<line x1="289.07" y1="147.11" x2="289.07" y2="148.11" style="stroke:white" />
<line x1="39.40" y1="488.80" x2="39.40" y2="489.80" style="stroke:white" />
<line x1="275.21" y1="212.11" x2="275.21" y2="213.11" style="stroke:white" />
<line x1="239.33" y1="28.42" x2="239.33" y2="29.42" style="stroke:white" />
<line x1="90.19" y1="120.38" x2="90.19" y2="121.38" style="stroke:white" />
<line x1="329.10" y1="208.27" x2="329.10" y2="209.27" style="stroke:white" />
<line x1="385.94" y1="64.60" x2="385.94" y2="65.60" style="stroke:white" />
<line x1="101.23" y1="50.59" x2="101.23" y2="51.59" style="stroke:white" />
<line x1="378.98" y1="405.01" x2="378.98" y2="406.01" style="stroke:white" />
<line x1="256.98" y1="92.88" x2="256.98" y2="93.88" style="stroke:white" />
<line x1="6.24" y1="270.14" x2="6.24" y2="271.14" style="stroke:white" />
<line x1="488.51" y1="397.65" x2="488.51" y2="398.65" style="stroke:white" />
<line x1="243.41" y1="270.38" x2="243.41" y2="271.38" style="stroke:white" />
<line x1="475.98" y1="367.20" x2="475.98" y2="368.20" style="stroke:white" />
<line x1="234.39" y1="162.59" x2="234.39" y2="163.59" style="stroke:white" />
<line x1="212.14" y1="270.31" x2="212.14" y2="271.31" style="stroke:white" />
<line x1="270.77" y1="319.28" x2="270.77" y2="320.28" style="stroke:white" />
<line x1="373.24" y1="174.67" x2="373.24" y2="175.67" style="stroke:white" />
<line x1="396.90" y1="92.80" x2="396.90" y2="93.80" style="stroke:white" />
<line x1="321.16" y1="148.88" x2="321.16" y2="149.88" style="stroke:white" />
<line x1="354.65" y1="416.96" x2="354.65" y2="417.96" style="stroke:white" />
<line x1="290.24" y1="322.11" x2="290.24" y2="323.11" style="stroke:white" />
<line x1="9.94" y1="457.01" x2="9.94" y2="458.01" style="stroke:white" />
<line x1="361.41" y1="328.14" x2="361.41" y2="329.14" style="stroke:white" />
<line x1="421.45" y1="49.67" x2="421.45" y2="50.67" style="stroke:white" />
<line x1="486.40" y1="256.87" x2="486.40" y2="257.87" style="stroke:white" />
<line x1="87.48" y1="437.73" x2="87.48" y2="438.73" style="stroke:white" />
<line x1="335.61" y1="5.81" x2="335.61" y2="6.81" style="stroke:white" />
<line x1="380.41" y1="201.23" x2="380.41" y2="202.23" style="stroke:white" />
<line x1="45.17" y1="200.83" x2="45.17" y2="201.83" style="stroke:white" />
<line x1="49.59" y1="33.56" x2="49.59" y2="34.56" style="stroke:white" />
<line x1="94.00" y1="232.06" x2="94.00" y2="233.06" style="stroke:white" />
<line x1="79.24" y1="141.18" x2="79.24" y2="142.18" style="stroke:white" />
<line x1="48.83" y1="463.04" x2="48.83" y2="464.04" style="stroke:white" />
<line x1="473.02" y1="305.26" x2="473.02" y2="306.26" style="stroke:white" />
<line x1="74.51" y1="11.53" x2="74.51" y2="12.53" style="stroke:white" />
<line x1="369.65" y1="36.62" x2="369.65" y2="37.62" style="stroke:white" />
<line x1="449.95" y1="266.01" x2="449.95" y2="267.01" style="stroke:white" />
<line x1="403.87" y1="360.43" x2="403.87" y2="361.43" style="stroke:white" />
<line x1="272.92" y1="125.33" x2="272.92" y2="126.33" style="stroke:white" />
<line x1="178.97" y1="445.59" x2="178.97" y2="446.59" style="stroke:white" />
<line x1="399.70" y1="133.27" x2="399.70" y2="134.27" style="stroke:white" />
<line x1="223.65" y1="64.17" x2="223.65" y2="65.17" style="stroke:white" />
<line x1="387.54" y1="159.33" x2="387.54" y2="160.33" style="stroke:white" />
<line x1="201.64" y1="282.96" x2="201.64" y2="283.96" style="stroke:white" />
<line x1="35.95" y1="144.94" x2="35.95" y2="145.94" style="stroke:white" />
<line x1="303.36" y1="413.13" x2="303.36" y2="414.13" style="stroke:white" />
<line x1="314.79" y1="80.61" x2="314.79" y2="81.61" style="stroke:white" />
<line x1="105.02" y1="363.07" x2="105.02" y2="364.07" style="stroke:white" />
<line x1="292.05" y1="462.01" x2="292.05" y2="463.01" style="stroke:white" />
<line x1="233.80" y1="370.65" x2="233.80" y2="371.65" style="stroke:white" />
<line x1="251.30" y1="141.79" x2="251.30" y2="142.79" style="stroke:white" />
<line x1="472.51" y1="154.35" x2="472.51" y2="155.35" style="stroke:white" />
<line x1="367.83" y1="185.06" x2="367.83" y2="186.06" style="stroke:white" />
<line x1="62.73" y1="3.84" x2="62.73" y2="4.84" style="stroke:white" />
<line x1="6.97" y1="235.17" x2="6.97" y2="236.17" style="stroke:white" />
<line x1="269.74" y1="375.19" x2="269.74" y2="376.19" style="stroke:white" />
<line x1="238.48" y1="430.39" x2="238.48" y2="431.39" style="stroke:white" />
<line x1="78.02" y1="270.82" x2="78.02" y2="271.82" style="stroke:white" />
<line x1="134.28" y1="473.86" x2="134.28" y2="474.86" style="stroke:white" />
<line x1="388.92" y1="368.71" x2="388.92" y2="369.71" style="stroke:white" />
<line x1="298.64" y1="36.65" x2="298.64" y2="37.65" style="stroke:white" />
<line x1="269.59" y1="343.20" x2="269.59" y2="344.20" style="stroke:white" />
<line x1="134.22" y1="20.66" x2="134.22" y2="21.66" style="stroke:white" />
<line x1="324.02" y1="206.52" x2="324.02" y2="207.52" style="stroke:white" />
<line x1="453.71" y1="36.57" x2="453.71" y2="37.57" style="stroke:white" />
<line x1="351.23" y1="85.65" x2="351.23" y2="86.65" style="stroke:white" />
<line x1="444.43" y1="453.18" x2="444.43" y2="454.18" style="stroke:white" />
<line x1="314.47" y1="315.49" x2="314.47" y2="316.49" style="stroke:white" />
<line x1="7.98" y1="111.49" x2="7.98" y2="112.49" style="stroke:white" />
<line x1="322.32" y1="258.84" x2="322.32" y2="259.84" style="stroke:white" />
<line x1="43.18" y1="120.88" x2="43.18" y2="121.88" style="stroke:white" />
<line x1="387.10" y1="364.25" x2="387.10" y2="365.25" style="stroke:white" />
<line x1="298.50" y1="126.51" x2="298.50" y2="127.51" style="stroke:white" />
<line x1="432.42" y1="253.38" x2="432.42" y2="254.38" style="stroke:white" />
<line x1="456.88" y1="427.33" x2="456.88" y2="428.33" style="stroke:white" />
<line x1="344.19" y1="152.49" x2="344.19" y2="153.49" style="stroke:white" />
<line x1="136.87" y1="375.48" x2="136.87" y2="376.48" style="stroke:white" />
<line x1="362.64" y1="164.46" x2="362.64" y2="165.46" style="stroke:white" />
<line x1="139.16" y1="458.96" x2="139.16" y2="459.96" style="stroke:white" />
<line x1="448.23" y1="406.41" x2="448.23" y2="407.41" style="stroke:white" />
<line x1="301.81" y1="481.36" x2="301.81" y2="482.36" style="stroke:white" />
<line x1="61.63" y1="304.52" x2="61.63" y2="305.52" style="stroke:white" />
<line x1="106.99" y1="454.67" x2="106.99" y2="455.67" style="stroke:white" />
<line x1="404.96" y1="378.17" x2="404.96" y2="379.17" style="stroke:white" />
<line x1="294.79" y1="143.38" x2="294.79" y2="144.38" style="stroke:white" />
<line x1="41.17" y1="80.32" x2="41.17" y2="81.32" style="stroke:white" />
<line x1="236.09" y1="116.10" x2="236.09" y2="117.10" style="stroke:white" />
<line x1="309.73" y1="352.20" x2="309.73" y2="353.20" style="stroke:white" />
<line x1="217.15" y1="227.68" x2="217.15" y2="228.68" style="stroke:white" />
<line x1="349.31" y1="453.40" x2="349.31" y2="454.40" style="stroke:white" />
<line x1="163.50" y1="299.61" x2="163.50" y2="300.61" style="stroke:white" />
<line x1="19.47" y1="65.43" x2="19.47" y2="66.43" style="stroke:white" />
<line x1="354.30" y1="452.65" x2="354.30" y2="453.65" style="stroke:white" />
<line x1="322.86" y1="430.89" x2="322.86" y2="431.89" style="stroke:white" />
<line x1="410.23" y1="209.55" x2="410.23" y2="210.55" style="stroke:white" />
<line x1="440.66" y1="402.50" x2="440.66" y2="403.50" style="stroke:white" />
<line x1="343.48" y1="344.51" x2="343.48" y2="345.51" style="stroke:white" />
<line x1="459.09" y1="2.79" x2="459.09" y2="3.79" style="stroke:white" />
<line x1="93.19" y1="438.61" x2="93.19" y2="439.61" style="stroke:white" />
<line x1="487.16" y1="267.37" x2="487.16" y2="268.37" style="stroke:white" />
<line x1="374.28" y1="280.55" x2="374.28" y2="281.55" style="stroke:white" />
<line x1="7.98" y1="67.25" x2="7.98" y2="68.25" style="stroke:white" />
<line x1="69.06" y1="44.20" x2="69.06" y2="45.20" style="stroke:white" />
<line x1="410.38" y1="490.51" x2="410.38" y2="491.51" style="stroke:white" />
<line x1="117.53" y1="7.95" x2="117.53" y2="8.95" style="stroke:white" />
<line x1="240.17" y1="95.02" x2="240.17" y2="96.02" style="stroke:white" />
<line x1="453.91" y1="119.78" x2="453.91" y2="120.78" style="stroke:white" />
<line x1="6.98" y1="191.61" x2="6.98" y2="192.61" style="stroke:white" />
<line x1="13.02" y1="253.34" x2="13.02" y2="254.34" style="stroke:white" />
<line x1="222.01" y1="122.07" x2="222.01" y2="123.07" style="stroke:white" />
<line x1="391.38" y1="314.06" x2="391.38" y2="315.06" style="stroke:white" />
<line x1="476.29" y1="205.83" x2="476.29" y2="206.83" style="stroke:white" />
<line x1="491.06" y1="122.09" x2="491.06" y2="123.09" style="stroke:white" />
<line x1="499.77" y1="70.10" x2="499.77" y2="71.10" style="stroke:white" />
<line x1="233.43" y1="258.37" x2="233.43" y2="259.37" style="stroke:white" />
<line x1="52.87" y1="271.66" x2="52.87" y2="272.66" style="stroke:white" />
<line x1="283.29" y1="10.56" x2="283.29" y2="11.56" style="stroke:white" />
<line x1="203.49" y1="475.07" x2="203.49" y2="476.07" style="stroke:white" />
<line x1="464.52" y1="398.74" x2="464.52" y2="399.74" style="stroke:white" />
<line x1="242.84" y1="145.24" x2="242.84" y2="146.24" style="stroke:white" />
<line x1="164.29" y1="350.61" x2="164.29" y2="351.61" style="stroke:white" />
<line x1="49.30" y1="61.16" x2="49.30" y2="62.16" style="stroke:white" />
<line x1="240.66" y1="50.44" x2="240.66" y2="51.44" style="stroke:white" />
<line x1="463.37" y1="173.33" x2="463.37" y2="174.33" style="stroke:white" />
<line x1="170.27" y1="85.72" x2="170.27" y2="86.72" style="stroke:white" />
<line x1="310.34" y1="259.67" x2="310.34" y2="260.67" style="stroke:white" />
<line x1="154.94" y1="199.93" x2="154.94" y2="200.93" style="stroke:white" />
<line x1="83.58" y1="109.01" x2="83.58" y2="110.01" style="stroke:white" />
<line x1="464.76" y1="320.28" x2="464.76" y2="321.28" style="stroke:white" />
<line x1="250.89" y1="301.36" x2="250.89" y2="302.36" style="stroke:white" />
<line x1="90.31" y1="393.22" x2="90.31" y2="394.22" style="stroke:white" />
<line x1="254.11" y1="302.86" x2="254.11" y2="303.86" style="stroke:white" />
<line x1="350.96" y1="362.05" x2="350.96" y2="363.05" style="stroke:white" />
<line x1="85.35" y1="58.91" x2="85.35" y2="59.91" style="stroke:white" />
<line x1="16.96" y1="84.45" x2="16.96" y2="85.45" style="stroke:white" />
<line x1="324.60" y1="291.51" x2="324.60" y2="292.51" style="stroke:white" />
<line x1="67.61" y1="154.19" x2="67.61" y2="155.19" style="stroke:white" />
<line x1="495.44" y1="250.18" x2="495.44" y2="251.18" style="stroke:white" />
<line x1="161.79" y1="220.64" x2="161.79" y2="221.64" style="stroke:white" />
<line x1="49.92" y1="446.53" x2="49.92" y2="447.53" style="stroke:white" />
<line x1="145.93" y1="32.87" x2="145.93" y2="33.87" style="stroke:white" />
<line x1="446.12" y1="59.67" x2="446.12" y2="60.67" style="stroke:white" />
<line x1="84.96" y1="400.01" x2="84.96" y2="401.01" style="stroke:white" />
<line x1="180.65" y1="295.40" x2="180.65" y2="296.40" style="stroke:white" />
<line x1="385.25" y1="225.34" x2="385.25" y2="226.34" style="stroke:white" />
<circle cx="150.00" cy="50.00" r="4.00" style="fill:blue" />
<circle cx="500.00" cy="500.00" r="436.00" style="fill:rgb(255, 248, 231)" />
</svg>
