<?xml version="1.0"?>
<!-- Generated by gensvg -->
<svg width="500.00" height="500.00"
     xmlns="http://www.w3.org/2000/svg"
     xmlns:xlink="http://www.w3.org/1999/xlink">
<rect x="0.00" y="0.00" width="500.00" height="500.00" style="fill:rgb(240,240,240)" />
<g style="stroke:white">
<rect x="20.00" y="20.00" width="40.00" height="40.00" style="fill-opacity:0.10; fill:rgb(10,0,0)" />
<rect x="20.00" y="50.00" width="40.00" height="40.00" style="fill-opacity:0.20; fill:rgb(10,0,0)" />
<rect x="20.00" y="80.00" width="40.00" height="40.00" style="fill-opacity:0.30; fill:rgb(10,0,0)" />
<rect x="20.00" y="110.00" width="40.00" height="40.00" style="fill-opacity:0.40; fill:rgb(10,0,0)" />
<rect x="20.00" y="140.00" width="40.00" height="40.00" style="fill-opacity:0.50; fill:rgb(10,0,0)" />
<rect x="20.00" y="170.00" width="40.00" height="40.00" style="fill-opacity:0.60; fill:rgb(10,0,0)" />
<rect x="20.00" y="200.00" width="40.00" height="40.00" style="fill-opacity:0.70; fill:rgb(10,0,0)" />
<rect x="20.00" y="230.00" width="40.00" height="40.00" style="fill-opacity:0.80; fill:rgb(10,0,0)" />
<rect x="20.00" y="260.00" width="40.00" height="40.00" style="fill-opacity:0.90; fill:rgb(10,0,0)" />
<rect x="20.00" y="290.00" width="40.00" height="40.00" style="fill-opacity:1.00; fill:rgb(10,0,0)" />
<rect x="50.00" y="20.00" width="40.00" height="40.00" style="fill-opacity:0.10; fill:rgb(35,0,0)" />
<rect x="50.00" y="50.00" width="40.00" height="40.00" style="fill-opacity:0.20; fill:rgb(35,0,0)" />
<rect x="50.00" y="80.00" width="40.00" height="40.00" style="fill-opacity:0.30; fill:rgb(35,0,0)" />
<rect x="50.00" y="110.00" width="40.00" height="40.00" style="fill-opacity:0.40; fill:rgb(35,0,0)" />
<rect x="50.00" y="140.00" width="40.00" height="40.00" style="fill-opacity:0.50; fill:rgb(35,0,0)" />
<rect x="50.00" y="170.00" width="40.00" height="40.00" style="fill-opacity:0.60; fill:rgb(35,0,0)" />
<rect x="50.00" y="200.00" width="40.00" height="40.00" style="fill-opacity:0.70; fill:rgb(35,0,0)" />
<rect x="50.00" y="230.00" width="40.00" height="40.00" style="fill-opacity:0.80; fill:rgb(35,0,0)" />
<rect x="50.00" y="260.00" width="40.00" height="40.00" style="fill-opacity:0.90; fill:rgb(35,0,0)" />
<rect x="50.00" y="290.00" width="40.00" height="40.00" style="fill-opacity:1.00; fill:rgb(35,0,0)" />
<rect x="80.00" y="20.00" width="40.00" height="40.00" style="fill-opacity:0.10; fill:rgb(60,0,0)" />
<rect x="80.00" y="50.00" width="40.00" height="40.00" style="fill-opacity:0.20; fill:rgb(60,0,0)" />
<rect x="80.00" y="80.00" width="40.00" height="40.00" style="fill-opacity:0.30; fill:rgb(60,0,0)" />
<rect x="80.00" y="110.00" width="40.00" height="40.00" style="fill-opacity:0.40; fill:rgb(60,0,0)" />
<rect x="80.00" y="140.00" width="40.00" height="40.00" style="fill-opacity:0.50; fill:rgb(60,0,0)" />
<rect x="80.00" y="170.00" width="40.00" height="40.00" style="fill-opacity:0.60; fill:rgb(60,0,0)" />
<rect x="80.00" y="200.00" width="40.00" height="40.00" style="fill-opacity:0.70; fill:rgb(60,0,0)" />
<rect x="80.00" y="230.00" width="40.00" height="40.00" style="fill-opacity:0.80; fill:rgb(60,0,0)" />
<rect x="80.00" y="260.00" width="40.00" height="40.00" style="fill-opacity:0.90; fill:rgb(60,0,0)" />
<rect x="80.00" y="290.00" width="40.00" height="40.00" style="fill-opacity:1.00; fill:rgb(60,0,0)" />
<rect x="110.00" y="20.00" width="40.00" height="40.00" style="fill-opacity:0.10; fill:rgb(85,0,0)" />
<rect x="110.00" y="50.00" width="40.00" height="40.00" style="fill-opacity:0.20; fill:rgb(85,0,0)" />
<rect x="110.00" y="80.00" width="40.00" height="40.00" style="fill-opacity:0.30; fill:rgb(85,0,0)" />
<rect x="110.00" y="110.00" width="40.00" height="40.00" style="fill-opacity:0.40; fill:rgb(85,0,0)" />
<rect x="110.00" y="140.00" width="40.00" height="40.00" style="fill-opacity:0.50; fill:rgb(85,0,0)" />
<rect x="110.00" y="170.00" width="40.00" height="40.00" style="fill-opacity:0.60; fill:rgb(85,0,0)" />
<rect x="110.00" y="200.00" width="40.00" height="40.00" style="fill-opacity:0.70; fill:rgb(85,0,0)" />
<rect x="110.00" y="230.00" width="40.00" height="40.00" style="fill-opacity:0.80; fill:rgb(85,0,0)" />
<rect x="110.00" y="260.00" width="40.00" height="40.00" style="fill-opacity:0.90; fill:rgb(85,0,0)" />
<rect x="110.00" y="290.00" width="40.00" height="40.00" style="fill-opacity:1.00; fill:rgb(85,0,0)" />
<rect x="140.00" y="20.00" width="40.00" height="40.00" style="fill-opacity:0.10; fill:rgb(110,0,0)" />
<rect x="140.00" y="50.00" width="40.00" height="40.00" style="fill-opacity:0.20; fill:rgb(110,0,0)" />
<rect x="140.00" y="80.00" width="40.00" height="40.00" style="fill-opacity:0.30; fill:rgb(110,0,0)" />
<rect x="140.00" y="110.00" width="40.00" height="40.00" style="fill-opacity:0.40; fill:rgb(110,0,0)" />
<rect x="140.00" y="140.00" width="40.00" height="40.00" style="fill-opacity:0.50; fill:rgb(110,0,0)" />
<rect x="140.00" y="170.00" width="40.00" height="40.00" style="fill-opacity:0.60; fill:rgb(110,0,0)" />
<rect x="140.00" y="200.00" width="40.00" height="40.00" style="fill-opacity:0.70; fill:rgb(110,0,0)" />
<rect x="140.00" y="230.00" width="40.00" height="40.00" style="fill-opacity:0.80; fill:rgb(110,0,0)" />
<rect x="140.00" y="260.00" width="40.00" height="40.00" style="fill-opacity:0.90; fill:rgb(110,0,0)" />
<rect x="140.00" y="290.00" width="40.00" height="40.00" style="fill-opacity:1.00; fill:rgb(110,0,0)" />
<rect x="170.00" y="20.00" width="40.00" height="40.00" style="fill-opacity:0.10; fill:rgb(135,0,0)" />
<rect x="170.00" y="50.00" width="40.00" height="40.00" style="fill-opacity:0.20; fill:rgb(135,0,0)" />
<rect x="170.00" y="80.00" width="40.00" height="40.00" style="fill-opacity:0.30; fill:rgb(135,0,0)" />
<rect x="170.00" y="110.00" width="40.00" height="40.00" style="fill-opacity:0.40; fill:rgb(135,0,0)" />
<rect x="170.00" y="140.00" width="40.00" height="40.00" style="fill-opacity:0.50; fill:rgb(135,0,0)" />
<rect x="170.00" y="170.00" width="40.00" height="40.00" style="fill-opacity:0.60; fill:rgb(135,0,0)" />
<rect x="170.00" y="200.00" width="40.00" height="40.00" style="fill-opacity:0.70; fill:rgb(135,0,0)" />
<rect x="170.00" y="230.00" width="40.00" height="40.00" style="fill-opacity:0.80; fill:rgb(135,0,0)" />
<rect x="170.00" y="260.00" width="40.00" height="40.00" style="fill-opacity:0.90; fill:rgb(135,0,0)" />
<rect x="170.00" y="290.00" width="40.00" height="40.00" style="fill-opacity:1.00; fill:rgb(135,0,0)" />
<rect x="200.00" y="20.00" width="40.00" height="40.00" style="fill-opacity:0.10; fill:rgb(160,0,0)" />
<rect x="200.00" y="50.00" width="40.00" height="40.00" style="fill-opacity:0.20; fill:rgb(160,0,0)" />
<rect x="200.00" y="80.00" width="40.00" height="40.00" style="fill-opacity:0.30; fill:rgb(160,0,0)" />
<rect x="200.00" y="110.00" width="40.00" height="40.00" style="fill-opacity:0.40; fill:rgb(160,0,0)" />
<rect x="200.00" y="140.00" width="40.00" height="40.00" style="fill-opacity:0.50; fill:rgb(160,0,0)" />
<rect x="200.00" y="170.00" width="40.00" height="40.00" style="fill-opacity:0.60; fill:rgb(160,0,0)" />
<rect x="200.00" y="200.00" width="40.00" height="40.00" style="fill-opacity:0.70; fill:rgb(160,0,0)" />
<rect x="200.00" y="230.00" width="40.00" height="40.00" style="fill-opacity:0.80; fill:rgb(160,0,0)" />
<rect x="200.00" y="260.00" width="40.00" height="40.00" style="fill-opacity:0.90; fill:rgb(160,0,0)" />
<rect x="200.00" y="290.00" width="40.00" height="40.00" style="fill-opacity:1.00; fill:rgb(160,0,0)" />
<rect x="230.00" y="20.00" width="40.00" height="40.00" style="fill-opacity:0.10; fill:rgb(185,0,0)" />
<rect x="230.00" y="50.00" width="40.00" height="40.00" style="fill-opacity:0.20; fill:rgb(185,0,0)" />
<rect x="230.00" y="80.00" width="40.00" height="40.00" style="fill-opacity:0.30; fill:rgb(185,0,0)" />
<rect x="230.00" y="110.00" width="40.00" height="40.00" style="fill-opacity:0.40; fill:rgb(185,0,0)" />
<rect x="230.00" y="140.00" width="40.00" height="40.00" style="fill-opacity:0.50; fill:rgb(185,0,0)" />
<rect x="230.00" y="170.00" width="40.00" height="40.00" style="fill-opacity:0.60; fill:rgb(185,0,0)" />
<rect x="230.00" y="200.00" width="40.00" height="40.00" style="fill-opacity:0.70; fill:rgb(185,0,0)" />
<rect x="230.00" y="230.00" width="40.00" height="40.00" style="fill-opacity:0.80; fill:rgb(185,0,0)" />
<rect x="230.00" y="260.00" width="40.00" height="40.00" style="fill-opacity:0.90; fill:rgb(185,0,0)" />
<rect x="230.00" y="290.00" width="40.00" height="40.00" style="fill-opacity:1.00; fill:rgb(185,0,0)" />
<rect x="260.00" y="20.00" width="40.00" height="40.00" style="fill-opacity:0.10; fill:rgb(210,0,0)" />
<rect x="260.00" y="50.00" width="40.00" height="40.00" style="fill-opacity:0.20; fill:rgb(210,0,0)" />
<rect x="260.00" y="80.00" width="40.00" height="40.00" style="fill-opacity:0.30; fill:rgb(210,0,0)" />
<rect x="260.00" y="110.00" width="40.00" height="40.00" style="fill-opacity:0.40; fill:rgb(210,0,0)" />
<rect x="260.00" y="140.00" width="40.00" height="40.00" style="fill-opacity:0.50; fill:rgb(210,0,0)" />
<rect x="260.00" y="170.00" width="40.00" height="40.00" style="fill-opacity:0.60; fill:rgb(210,0,0)" />
<rect x="260.00" y="200.00" width="40.00" height="40.00" style="fill-opacity:0.70; fill:rgb(210,0,0)" />
<rect x="260.00" y="230.00" width="40.00" height="40.00" style="fill-opacity:0.80; fill:rgb(210,0,0)" />
<rect x="260.00" y="260.00" width="40.00" height="40.00" style="fill-opacity:0.90; fill:rgb(210,0,0)" />
<rect x="260.00" y="290.00" width="40.00" height="40.00" style="fill-opacity:1.00; fill:rgb(210,0,0)" />
<rect x="290.00" y="20.00" width="40.00" height="40.00" style="fill-opacity:0.10; fill:rgb(235,0,0)" />
<rect x="290.00" y="50.00" width="40.00" height="40.00" style="fill-opacity:0.20; fill:rgb(235,0,0)" />
<rect x="290.00" y="80.00" width="40.00" height="40.00" style="fill-opacity:0.30; fill:rgb(235,0,0)" />
<rect x="290.00" y="110.00" width="40.00" height="40.00" style="fill-opacity:0.40; fill:rgb(235,0,0)" />
<rect x="290.00" y="140.00" width="40.00" height="40.00" style="fill-opacity:0.50; fill:rgb(235,0,0)" />
<rect x="290.00" y="170.00" width="40.00" height="40.00" style="fill-opacity:0.60; fill:rgb(235,0,0)" />
<rect x="290.00" y="200.00" width="40.00" height="40.00" style="fill-opacity:0.70; fill:rgb(235,0,0)" />
<rect x="290.00" y="230.00" width="40.00" height="40.00" style="fill-opacity:0.80; fill:rgb(235,0,0)" />
<rect x="290.00" y="260.00" width="40.00" height="40.00" style="fill-opacity:0.90; fill:rgb(235,0,0)" />
<rect x="290.00" y="290.00" width="40.00" height="40.00" style="fill-opacity:1.00; fill:rgb(235,0,0)" />
<rect x="320.00" y="20.00" width="40.00" height="40.00" style="fill-opacity:0.10; fill:rgb(260,0,0)" />
<rect x="320.00" y="50.00" width="40.00" height="40.00" style="fill-opacity:0.20; fill:rgb(260,0,0)" />
<rect x="320.00" y="80.00" width="40.00" height="40.00" style="fill-opacity:0.30; fill:rgb(260,0,0)" />
<rect x="320.00" y="110.00" width="40.00" height="40.00" style="fill-opacity:0.40; fill:rgb(260,0,0)" />
<rect x="320.00" y="140.00" width="40.00" height="40.00" style="fill-opacity:0.50; fill:rgb(260,0,0)" />
<rect x="320.00" y="170.00" width="40.00" height="40.00" style="fill-opacity:0.60; fill:rgb(260,0,0)" />
<rect x="320.00" y="200.00" width="40.00" height="40.00" style="fill-opacity:0.70; fill:rgb(260,0,0)" />
<rect x="320.00" y="230.00" width="40.00" height="40.00" style="fill-opacity:0.80; fill:rgb(260,0,0)" />
<rect x="320.00" y="260.00" width="40.00" height="40.00" style="fill-opacity:0.90; fill:rgb(260,0,0)" />
<rect x="320.00" y="290.00" width="40.00" height="40.00" style="fill-opacity:1.00; fill:rgb(260,0,0)" />
<rect x="350.00" y="20.00" width="40.00" height="40.00" style="fill-opacity:0.10; fill:rgb(285,0,0)" />
<rect x="350.00" y="50.00" width="40.00" height="40.00" style="fill-opacity:0.20; fill:rgb(285,0,0)" />
<rect x="350.00" y="80.00" width="40.00" height="40.00" style="fill-opacity:0.30; fill:rgb(285,0,0)" />
<rect x="350.00" y="110.00" width="40.00" height="40.00" style="fill-opacity:0.40; fill:rgb(285,0,0)" />
<rect x="350.00" y="140.00" width="40.00" height="40.00" style="fill-opacity:0.50; fill:rgb(285,0,0)" />
<rect x="350.00" y="170.00" width="40.00" height="40.00" style="fill-opacity:0.60; fill:rgb(285,0,0)" />
<rect x="350.00" y="200.00" width="40.00" height="40.00" style="fill-opacity:0.70; fill:rgb(285,0,0)" />
<rect x="350.00" y="230.00" width="40.00" height="40.00" style="fill-opacity:0.80; fill:rgb(285,0,0)" />
<rect x="350.00" y="260.00" width="40.00" height="40.00" style="fill-opacity:0.90; fill:rgb(285,0,0)" />
<rect x="350.00" y="290.00" width="40.00" height="40.00" style="fill-opacity:1.00; fill:rgb(285,0,0)" />
<rect x="380.00" y="20.00" width="40.00" height="40.00" style="fill-opacity:0.10; fill:rgb(310,0,0)" />
<rect x="380.00" y="50.00" width="40.00" height="40.00" style="fill-opacity:0.20; fill:rgb(310,0,0)" />
<rect x="380.00" y="80.00" width="40.00" height="40.00" style="fill-opacity:0.30; fill:rgb(310,0,0)" />
<rect x="380.00" y="110.00" width="40.00" height="40.00" style="fill-opacity:0.40; fill:rgb(310,0,0)" />
<rect x="380.00" y="140.00" width="40.00" height="40.00" style="fill-opacity:0.50; fill:rgb(310,0,0)" />
<rect x="380.00" y="170.00" width="40.00" height="40.00" style="fill-opacity:0.60; fill:rgb(310,0,0)" />
<rect x="380.00" y="200.00" width="40.00" height="40.00" style="fill-opacity:0.70; fill:rgb(310,0,0)" />
<rect x="380.00" y="230.00" width="40.00" height="40.00" style="fill-opacity:0.80; fill:rgb(310,0,0)" />
<rect x="380.00" y="260.00" width="40.00" height="40.00" style="fill-opacity:0.90; fill:rgb(310,0,0)" />
<rect x="380.00" y="290.00" width="40.00" height="40.00" style="fill-opacity:1.00; fill:rgb(310,0,0)" />
<rect x="410.00" y="20.00" width="40.00" height="40.00" style="fill-opacity:0.10; fill:rgb(335,0,0)" />
<rect x="410.00" y="50.00" width="40.00" height="40.00" style="fill-opacity:0.20; fill:rgb(335,0,0)" />
<rect x="410.00" y="80.00" width="40.00" height="40.00" style="fill-opacity:0.30; fill:rgb(335,0,0)" />
<rect x="410.00" y="110.00" width="40.00" height="40.00" style="fill-opacity:0.40; fill:rgb(335,0,0)" />
<rect x="410.00" y="140.00" width="40.00" height="40.00" style="fill-opacity:0.50; fill:rgb(335,0,0)" />
<rect x="410.00" y="170.00" width="40.00" height="40.00" style="fill-opacity:0.60; fill:rgb(335,0,0)" />
<rect x="410.00" y="200.00" width="40.00" height="40.00" style="fill-opacity:0.70; fill:rgb(335,0,0)" />
<rect x="410.00" y="230.00" width="40.00" height="40.00" style="fill-opacity:0.80; fill:rgb(335,0,0)" />
<rect x="410.00" y="260.00" width="40.00" height="40.00" style="fill-opacity:0.90; fill:rgb(335,0,0)" />
<rect x="410.00" y="290.00" width="40.00" height="40.00" style="fill-opacity:1.00; fill:rgb(335,0,0)" />
<rect x="440.00" y="20.00" width="40.00" height="40.00" style="fill-opacity:0.10; fill:rgb(360,0,0)" />
<rect x="440.00" y="50.00" width="40.00" height="40.00" style="fill-opacity:0.20; fill:rgb(360,0,0)" />
<rect x="440.00" y="80.00" width="40.00" height="40.00" style="fill-opacity:0.30; fill:rgb(360,0,0)" />
<rect x="440.00" y="110.00" width="40.00" height="40.00" style="fill-opacity:0.40; fill:rgb(360,0,0)" />
<rect x="440.00" y="140.00" width="40.00" height="40.00" style="fill-opacity:0.50; fill:rgb(360,0,0)" />
<rect x="440.00" y="170.00" width="40.00" height="40.00" style="fill-opacity:0.60; fill:rgb(360,0,0)" />
<rect x="440.00" y="200.00" width="40.00" height="40.00" style="fill-opacity:0.70; fill:rgb(360,0,0)" />
<rect x="440.00" y="230.00" width="40.00" height="40.00" style="fill-opacity:0.80; fill:rgb(360,0,0)" />
<rect x="440.00" y="260.00" width="40.00" height="40.00" style="fill-opacity:0.90; fill:rgb(360,0,0)" />
<rect x="440.00" y="290.00" width="40.00" height="40.00" style="fill-opacity:1.00; fill:rgb(360,0,0)" />
</g>
</svg>
