<?xml version="1.0"?>
<!-- Generated by gensvg -->
<svg width="500.00" height="500.00"
     xmlns="http://www.w3.org/2000/svg"
     xmlns:xlink="http://www.w3.org/1999/xlink">
<g style="font-family:Helvetica">
<text x="118.00" y="100.00" style="text-anchor:end" >Helvetica</text>
<text x="128.00" y="100.00" style="font-size:10pt" >10</text>
<text x="148.00" y="100.00" style="font-size:12pt" >12</text>
<text x="172.00" y="100.00" style="font-size:16pt" >16</text>
<text x="204.00" y="100.00" style="font-size:21pt" >21</text>
<text x="246.00" y="100.00" style="font-size:24pt" >24</text>
<text x="294.00" y="100.00" style="font-size:36pt" >36</text>
<text x="366.00" y="100.00" style="font-size:48pt" >48</text>
</g>
<g style="font-family:Times">
<text x="118.00" y="164.00" style="text-anchor:end" >Times</text>
<text x="128.00" y="164.00" style="font-size:10pt" >10</text>
<text x="148.00" y="164.00" style="font-size:12pt" >12</text>
<text x="172.00" y="164.00" style="font-size:16pt" >16</text>
<text x="204.00" y="164.00" style="font-size:21pt" >21</text>
<text x="246.00" y="164.00" style="font-size:24pt" >24</text>
<text x="294.00" y="164.00" style="font-size:36pt" >36</text>
<text x="366.00" y="164.00" style="font-size:48pt" >48</text>
</g>
<g style="font-family:Courier">
<text x="118.00" y="228.00" style="text-anchor:end" >Courier</text>
<text x="128.00" y="228.00" style="font-size:10pt" >10</text>
<text x="148.00" y="228.00" style="font-size:12pt" >12</text>
<text x="172.00" y="228.00" style="font-size:16pt" >16</text>
<text x="204.00" y="228.00" style="font-size:21pt" >21</text>
<text x="246.00" y="228.00" style="font-size:24pt" >24</text>
<text x="294.00" y="228.00" style="font-size:36pt" >36</text>
<text x="366.00" y="228.00" style="font-size:48pt" >48</text>
</g>
<g style="font-family:sans-serif">
<text x="118.00" y="292.00" style="text-anchor:end" >sans-serif</text>
<text x="128.00" y="292.00" style="font-size:10pt" >10</text>
<text x="148.00" y="292.00" style="font-size:12pt" >12</text>
<text x="172.00" y="292.00" style="font-size:16pt" >16</text>
<text x="204.00" y="292.00" style="font-size:21pt" >21</text>
<text x="246.00" y="292.00" style="font-size:24pt" >24</text>
<text x="294.00" y="292.00" style="font-size:36pt" >36</text>
<text x="366.00" y="292.00" style="font-size:48pt" >48</text>
</g>
<g style="font-family:serif">
<text x="118.00" y="356.00" style="text-anchor:end" >serif</text>
<text x="128.00" y="356.00" style="font-size:10pt" >10</text>
<text x="148.00" y="356.00" style="font-size:12pt" >12</text>
<text x="172.00" y="356.00" style="font-size:16pt" >16</text>
<text x="204.00" y="356.00" style="font-size:21pt" >21</text>
<text x="246.00" y="356.00" style="font-size:24pt" >24</text>
<text x="294.00" y="356.00" style="font-size:36pt" >36</text>
<text x="366.00" y="356.00" style="font-size:48pt" >48</text>
</g>
<g style="font-family:monospace">
<text x="118.00" y="420.00" style="text-anchor:end" >monospace</text>
<text x="128.00" y="420.00" style="font-size:10pt" >10</text>
<text x="148.00" y="420.00" style="font-size:12pt" >12</text>
<text x="172.00" y="420.00" style="font-size:16pt" >16</text>
<text x="204.00" y="420.00" style="font-size:21pt" >21</text>
<text x="246.00" y="420.00" style="font-size:24pt" >24</text>
<text x="294.00" y="420.00" style="font-size:36pt" >36</text>
<text x="366.00" y="420.00" style="font-size:48pt" >48</text>
</g>
</svg>
