<?xml version="1.0"?>
<!-- Generated by gensvg -->
<svg width="500.00" height="500.00"
     xmlns="http://www.w3.org/2000/svg"
     xmlns:xlink="http://www.w3.org/1999/xlink">
<g style="stroke:lightsteelblue">
<line x1="0.00" y1="0.00" x2="0.00" y2="500.00" />
<line x1="50.00" y1="0.00" x2="50.00" y2="500.00" />
<line x1="100.00" y1="0.00" x2="100.00" y2="500.00" />
<line x1="150.00" y1="0.00" x2="150.00" y2="500.00" />
<line x1="200.00" y1="0.00" x2="200.00" y2="500.00" />
<line x1="250.00" y1="0.00" x2="250.00" y2="500.00" />
<line x1="300.00" y1="0.00" x2="300.00" y2="500.00" />
<line x1="350.00" y1="0.00" x2="350.00" y2="500.00" />
<line x1="400.00" y1="0.00" x2="400.00" y2="500.00" />
<line x1="450.00" y1="0.00" x2="450.00" y2="500.00" />
<line x1="500.00" y1="0.00" x2="500.00" y2="500.00" />
<line x1="0.00" y1="0.00" x2="500.00" y2="0.00" />
<line x1="0.00" y1="50.00" x2="500.00" y2="50.00" />
<line x1="0.00" y1="100.00" x2="500.00" y2="100.00" />
<line x1="0.00" y1="150.00" x2="500.00" y2="150.00" />
<line x1="0.00" y1="200.00" x2="500.00" y2="200.00" />
<line x1="0.00" y1="250.00" x2="500.00" y2="250.00" />
<line x1="0.00" y1="300.00" x2="500.00" y2="300.00" />
<line x1="0.00" y1="350.00" x2="500.00" y2="350.00" />
<line x1="0.00" y1="400.00" x2="500.00" y2="400.00" />
<line x1="0.00" y1="450.00" x2="500.00" y2="450.00" />
<line x1="0.00" y1="500.00" x2="500.00" y2="500.00" />
</g>
<rect x="100.00" y="100.00" width="100.00" height="100.00" />
<g transform="translate(100.00,100.00) rotate(30)">
<g style="stroke:pink">
<line x1="0.00" y1="0.00" x2="0.00" y2="500.00" />
<line x1="50.00" y1="0.00" x2="50.00" y2="500.00" />
<line x1="100.00" y1="0.00" x2="100.00" y2="500.00" />
<line x1="150.00" y1="0.00" x2="150.00" y2="500.00" />
<line x1="200.00" y1="0.00" x2="200.00" y2="500.00" />
<line x1="250.00" y1="0.00" x2="250.00" y2="500.00" />
<line x1="300.00" y1="0.00" x2="300.00" y2="500.00" />
<line x1="350.00" y1="0.00" x2="350.00" y2="500.00" />
<line x1="400.00" y1="0.00" x2="400.00" y2="500.00" />
<line x1="450.00" y1="0.00" x2="450.00" y2="500.00" />
<line x1="500.00" y1="0.00" x2="500.00" y2="500.00" />
<line x1="0.00" y1="0.00" x2="500.00" y2="0.00" />
<line x1="0.00" y1="50.00" x2="500.00" y2="50.00" />
<line x1="0.00" y1="100.00" x2="500.00" y2="100.00" />
<line x1="0.00" y1="150.00" x2="500.00" y2="150.00" />
<line x1="0.00" y1="200.00" x2="500.00" y2="200.00" />
<line x1="0.00" y1="250.00" x2="500.00" y2="250.00" />
<line x1="0.00" y1="300.00" x2="500.00" y2="300.00" />
<line x1="0.00" y1="350.00" x2="500.00" y2="350.00" />
<line x1="0.00" y1="400.00" x2="500.00" y2="400.00" />
<line x1="0.00" y1="450.00" x2="500.00" y2="450.00" />
<line x1="0.00" y1="500.00" x2="500.00" y2="500.00" />
</g>
<rect x="0.00" y="0.00" width="100.00" height="100.00" style="fill:red" />
</g>
</svg>
