<?xml version="1.0"?>
<!-- Generated by gensvg -->
<svg width="500.00" height="500.00"
     xmlns="http://www.w3.org/2000/svg"
     xmlns:xlink="http://www.w3.org/1999/xlink">
<g style="fill:rgb(178,53,138)">
<circle cx="168.39" cy="302.65" r="24.12" />
<circle cx="192.50" cy="314.71" r="12.06" />
<circle cx="132.21" cy="314.71" r="12.06" />
<circle cx="144.27" cy="302.65" r="14.47" />
<rect x="132.21" y="302.65" width="60.29" height="24.12" />
</g>
<g style="fill:rgb(173,197,233)">
<circle cx="142.79" cy="499.48" r="32.65" />
<circle cx="175.44" cy="515.80" r="16.33" />
<circle cx="93.81" cy="515.80" r="16.33" />
<circle cx="110.13" cy="499.48" r="19.59" />
<rect x="93.81" y="499.48" width="81.64" height="32.65" />
</g>
<g style="fill:rgb(62,102,10)">
<circle cx="181.17" cy="397.35" r="29.99" />
<circle cx="211.17" cy="412.35" r="15.00" />
<circle cx="136.19" cy="412.35" r="15.00" />
<circle cx="151.18" cy="397.35" r="17.99" />
<rect x="136.19" y="397.35" width="74.98" height="29.99" />
</g>
<g style="fill:rgb(66,79,209)">
<circle cx="412.05" cy="118.29" r="19.20" />
<circle cx="431.25" cy="127.89" r="9.60" />
<circle cx="383.24" cy="127.89" r="9.60" />
<circle cx="392.85" cy="118.29" r="11.52" />
<rect x="383.24" y="118.29" width="48.01" height="19.20" />
</g>
<g style="fill:rgb(125,111,34)">
<circle cx="350.08" cy="268.13" r="12.20" />
<circle cx="362.28" cy="274.23" r="6.10" />
<circle cx="331.78" cy="274.23" r="6.10" />
<circle cx="337.88" cy="268.13" r="7.32" />
<rect x="331.78" y="268.13" width="30.50" height="12.20" />
</g>
<g style="fill:rgb(91,105,93)">
<circle cx="489.45" cy="62.80" r="20.16" />
<circle cx="509.61" cy="72.88" r="10.08" />
<circle cx="459.21" cy="72.88" r="10.08" />
<circle cx="469.29" cy="62.80" r="12.10" />
<rect x="459.21" y="62.80" width="50.40" height="20.16" />
</g>
<g style="fill:rgb(74,51,128)">
<circle cx="389.77" cy="441.20" r="4.38" />
<circle cx="394.15" cy="443.39" r="2.19" />
<circle cx="383.20" cy="443.39" r="2.19" />
<circle cx="385.39" cy="441.20" r="2.63" />
<rect x="383.20" y="441.20" width="10.95" height="4.38" />
</g>
<g style="fill:rgb(118,174,66)">
<circle cx="338.10" cy="317.27" r="16.13" />
<circle cx="354.23" cy="325.33" r="8.07" />
<circle cx="313.90" cy="325.33" r="8.07" />
<circle cx="321.96" cy="317.27" r="9.68" />
<rect x="313.90" y="317.27" width="40.33" height="16.13" />
</g>
<g style="fill:rgb(108,222,151)">
<circle cx="307.19" cy="160.39" r="53.85" />
<circle cx="361.04" cy="187.31" r="26.93" />
<circle cx="226.41" cy="187.31" r="26.93" />
<circle cx="253.34" cy="160.39" r="32.31" />
<rect x="226.41" y="160.39" width="134.63" height="53.85" />
</g>
<g style="fill:rgb(9,175,196)">
<circle cx="28.08" cy="210.98" r="39.59" />
<circle cx="67.68" cy="230.77" r="19.80" />
<circle cx="-31.30" cy="230.77" r="19.80" />
<circle cx="-11.51" cy="210.98" r="23.75" />
<rect x="-31.30" y="210.98" width="98.98" height="39.59" />
</g>
<g style="fill:rgb(80,71,194)">
<circle cx="477.39" cy="181.49" r="44.06" />
<circle cx="521.45" cy="203.52" r="22.03" />
<circle cx="411.30" cy="203.52" r="22.03" />
<circle cx="433.33" cy="181.49" r="26.44" />
<rect x="411.30" y="181.49" width="110.16" height="44.06" />
</g>
<g style="fill:rgb(61,188,228)">
<circle cx="92.48" cy="374.58" r="13.03" />
<circle cx="105.51" cy="381.10" r="6.51" />
<circle cx="72.93" cy="381.10" r="6.51" />
<circle cx="79.45" cy="374.58" r="7.82" />
<rect x="72.93" y="374.58" width="32.57" height="13.03" />
</g>
<g style="fill:rgb(112,137,170)">
<circle cx="351.54" cy="231.44" r="12.15" />
<circle cx="363.69" cy="237.52" r="6.08" />
<circle cx="333.31" cy="237.52" r="6.08" />
<circle cx="339.39" cy="231.44" r="7.29" />
<rect x="333.31" y="231.44" width="30.38" height="12.15" />
</g>
<g style="fill:rgb(113,33,91)">
<circle cx="140.14" cy="83.07" r="35.33" />
<circle cx="175.47" cy="100.74" r="17.66" />
<circle cx="87.15" cy="100.74" r="17.66" />
<circle cx="104.81" cy="83.07" r="21.20" />
<rect x="87.15" y="83.07" width="88.32" height="35.33" />
</g>
<g style="fill:rgb(68,252,102)">
<circle cx="288.07" cy="321.09" r="4.88" />
<circle cx="292.95" cy="323.53" r="2.44" />
<circle cx="280.75" cy="323.53" r="2.44" />
<circle cx="283.19" cy="321.09" r="2.93" />
<rect x="280.75" y="321.09" width="12.20" height="4.88" />
</g>
<g style="fill:rgb(165,228,146)">
<circle cx="236.28" cy="286.69" r="30.80" />
<circle cx="267.07" cy="302.09" r="15.40" />
<circle cx="190.08" cy="302.09" r="15.40" />
<circle cx="205.48" cy="286.69" r="18.48" />
<rect x="190.08" y="286.69" width="76.99" height="30.80" />
</g>
<g style="fill:rgb(242,103,191)">
<circle cx="6.97" cy="300.43" r="34.23" />
<circle cx="41.20" cy="317.55" r="17.12" />
<circle cx="-44.38" cy="317.55" r="17.12" />
<circle cx="-27.26" cy="300.43" r="20.54" />
<rect x="-44.38" y="300.43" width="85.58" height="34.23" />
</g>
<g style="fill:rgb(72,180,241)">
<circle cx="340.76" cy="209.09" r="47.98" />
<circle cx="388.74" cy="233.08" r="23.99" />
<circle cx="268.79" cy="233.08" r="23.99" />
<circle cx="292.78" cy="209.09" r="28.79" />
<rect x="268.79" y="209.09" width="119.95" height="47.98" />
</g>
<g style="fill:rgb(7,225,154)">
<circle cx="452.80" cy="2.65" r="58.89" />
<circle cx="511.69" cy="32.09" r="29.44" />
<circle cx="364.47" cy="32.09" r="29.44" />
<circle cx="393.91" cy="2.65" r="35.33" />
<rect x="364.47" y="2.65" width="147.22" height="58.89" />
</g>
<g style="fill:rgb(242,234,202)">
<circle cx="249.68" cy="273.07" r="59.86" />
<circle cx="309.54" cy="303.00" r="29.93" />
<circle cx="159.88" cy="303.00" r="29.93" />
<circle cx="189.81" cy="273.07" r="35.92" />
<rect x="159.88" y="273.07" width="149.66" height="59.86" />
</g>
<g style="fill:rgb(39,198,209)">
<circle cx="354.32" cy="14.16" r="29.63" />
<circle cx="383.95" cy="28.97" r="14.82" />
<circle cx="309.87" cy="28.97" r="14.82" />
<circle cx="324.68" cy="14.16" r="17.78" />
<rect x="309.87" y="14.16" width="74.08" height="29.63" />
</g>
<g style="fill:rgb(213,94,51)">
<circle cx="135.78" cy="251.95" r="59.17" />
<circle cx="194.95" cy="281.53" r="29.58" />
<circle cx="47.03" cy="281.53" r="29.58" />
<circle cx="76.61" cy="251.95" r="35.50" />
<rect x="47.03" y="251.95" width="147.92" height="59.17" />
</g>
<g style="fill:rgb(159,86,104)">
<circle cx="213.20" cy="490.15" r="16.71" />
<circle cx="229.91" cy="498.51" r="8.36" />
<circle cx="188.13" cy="498.51" r="8.36" />
<circle cx="196.48" cy="490.15" r="10.03" />
<rect x="188.13" y="490.15" width="41.78" height="16.71" />
</g>
<g style="fill:rgb(112,78,35)">
<circle cx="314.27" cy="344.60" r="32.34" />
<circle cx="346.61" cy="360.77" r="16.17" />
<circle cx="265.75" cy="360.77" r="16.17" />
<circle cx="281.92" cy="344.60" r="19.41" />
<rect x="265.75" y="344.60" width="80.86" height="32.34" />
</g>
<g style="fill:rgb(10,22,71)">
<circle cx="114.48" cy="231.67" r="37.43" />
<circle cx="151.91" cy="250.39" r="18.72" />
<circle cx="58.33" cy="250.39" r="18.72" />
<circle cx="77.05" cy="231.67" r="22.46" />
<rect x="58.33" y="231.67" width="93.58" height="37.43" />
</g>
<g style="fill:rgb(227,206,214)">
<circle cx="339.07" cy="45.64" r="57.74" />
<circle cx="396.81" cy="74.51" r="28.87" />
<circle cx="252.46" cy="74.51" r="28.87" />
<circle cx="281.33" cy="45.64" r="34.64" />
<rect x="252.46" y="45.64" width="144.35" height="57.74" />
</g>
<g style="fill:rgb(192,188,198)">
<circle cx="403.49" cy="35.11" r="3.91" />
<circle cx="407.40" cy="37.07" r="1.96" />
<circle cx="397.62" cy="37.07" r="1.96" />
<circle cx="399.58" cy="35.11" r="2.35" />
<rect x="397.62" y="35.11" width="9.78" height="3.91" />
</g>
<g style="fill:rgb(112,117,204)">
<circle cx="229.91" cy="87.15" r="25.30" />
<circle cx="255.21" cy="99.80" r="12.65" />
<circle cx="191.96" cy="99.80" r="12.65" />
<circle cx="204.61" cy="87.15" r="15.18" />
<rect x="191.96" y="87.15" width="63.26" height="25.30" />
</g>
<g style="fill:rgb(207,56,250)">
<circle cx="256.77" cy="478.14" r="17.25" />
<circle cx="274.02" cy="486.77" r="8.63" />
<circle cx="230.89" cy="486.77" r="8.63" />
<circle cx="239.52" cy="478.14" r="10.35" />
<rect x="230.89" y="478.14" width="43.13" height="17.25" />
</g>
<g style="fill:rgb(179,249,6)">
<circle cx="465.81" cy="55.98" r="10.66" />
<circle cx="476.46" cy="61.30" r="5.33" />
<circle cx="449.82" cy="61.30" r="5.33" />
<circle cx="455.15" cy="55.98" r="6.39" />
<rect x="449.82" y="55.98" width="26.64" height="10.66" />
</g>
<g style="fill:rgb(5,92,181)">
<circle cx="142.14" cy="471.54" r="41.40" />
<circle cx="183.54" cy="492.24" r="20.70" />
<circle cx="80.04" cy="492.24" r="20.70" />
<circle cx="100.74" cy="471.54" r="24.84" />
<rect x="80.04" y="471.54" width="103.49" height="41.40" />
</g>
<g style="fill:rgb(160,69,104)">
<circle cx="457.07" cy="81.25" r="17.98" />
<circle cx="475.06" cy="90.24" r="8.99" />
<circle cx="430.09" cy="90.24" r="8.99" />
<circle cx="439.09" cy="81.25" r="10.79" />
<rect x="430.09" y="81.25" width="44.96" height="17.98" />
</g>
<g style="fill:rgb(82,90,59)">
<circle cx="261.59" cy="57.23" r="28.39" />
<circle cx="289.99" cy="71.43" r="14.20" />
<circle cx="219.00" cy="71.43" r="14.20" />
<circle cx="233.20" cy="57.23" r="17.04" />
<rect x="219.00" y="57.23" width="70.99" height="28.39" />
</g>
<g style="fill:rgb(107,96,240)">
<circle cx="199.79" cy="5.36" r="26.16" />
<circle cx="225.95" cy="18.44" r="13.08" />
<circle cx="160.55" cy="18.44" r="13.08" />
<circle cx="173.63" cy="5.36" r="15.70" />
<rect x="160.55" y="5.36" width="65.40" height="26.16" />
</g>
<g style="fill:rgb(62,61,236)">
<circle cx="458.49" cy="61.22" r="2.29" />
<circle cx="460.78" cy="62.37" r="1.15" />
<circle cx="455.05" cy="62.37" r="1.15" />
<circle cx="456.19" cy="61.22" r="1.38" />
<rect x="455.05" y="61.22" width="5.73" height="2.29" />
</g>
<g style="fill:rgb(235,253,87)">
<circle cx="2.45" cy="1.68" r="52.20" />
<circle cx="54.65" cy="27.78" r="26.10" />
<circle cx="-75.86" cy="27.78" r="26.10" />
<circle cx="-49.75" cy="1.68" r="31.32" />
<rect x="-75.86" y="1.68" width="130.51" height="52.20" />
</g>
<g style="fill:rgb(59,52,155)">
<circle cx="171.62" cy="30.63" r="14.82" />
<circle cx="186.43" cy="38.04" r="7.41" />
<circle cx="149.39" cy="38.04" r="7.41" />
<circle cx="156.80" cy="30.63" r="8.89" />
<rect x="149.39" y="30.63" width="37.04" height="14.82" />
</g>
<g style="fill:rgb(118,69,52)">
<circle cx="329.52" cy="24.01" r="51.77" />
<circle cx="381.29" cy="49.90" r="25.89" />
<circle cx="251.86" cy="49.90" r="25.89" />
<circle cx="277.75" cy="24.01" r="31.06" />
<rect x="251.86" y="24.01" width="129.43" height="51.77" />
</g>
<g style="fill:rgb(233,123,86)">
<circle cx="473.60" cy="380.80" r="3.67" />
<circle cx="477.27" cy="382.64" r="1.84" />
<circle cx="468.09" cy="382.64" r="1.84" />
<circle cx="469.92" cy="380.80" r="2.20" />
<rect x="468.09" y="380.80" width="9.18" height="3.67" />
</g>
<g style="fill:rgb(241,144,19)">
<circle cx="253.00" cy="175.48" r="54.40" />
<circle cx="307.40" cy="202.68" r="27.20" />
<circle cx="171.39" cy="202.68" r="27.20" />
<circle cx="198.60" cy="175.48" r="32.64" />
<rect x="171.39" y="175.48" width="136.01" height="54.40" />
</g>
<g style="fill:rgb(37,94,92)">
<circle cx="305.69" cy="196.66" r="6.90" />
<circle cx="312.59" cy="200.11" r="3.45" />
<circle cx="295.33" cy="200.11" r="3.45" />
<circle cx="298.78" cy="196.66" r="4.14" />
<rect x="295.33" y="196.66" width="17.26" height="6.90" />
</g>
<g style="fill:rgb(179,241,122)">
<circle cx="37.72" cy="22.80" r="39.85" />
<circle cx="77.57" cy="42.72" r="19.92" />
<circle cx="-22.05" cy="42.72" r="19.92" />
<circle cx="-2.13" cy="22.80" r="23.91" />
<rect x="-22.05" y="22.80" width="99.61" height="39.85" />
</g>
<g style="fill:rgb(18,51,74)">
<circle cx="7.20" cy="272.38" r="16.04" />
<circle cx="23.25" cy="280.40" r="8.02" />
<circle cx="-16.86" cy="280.40" r="8.02" />
<circle cx="-8.84" cy="272.38" r="9.63" />
<rect x="-16.86" y="272.38" width="40.11" height="16.04" />
</g>
<g style="fill:rgb(136,22,30)">
<circle cx="337.37" cy="252.55" r="56.20" />
<circle cx="393.58" cy="280.65" r="28.10" />
<circle cx="253.07" cy="280.65" r="28.10" />
<circle cx="281.17" cy="252.55" r="33.72" />
<rect x="253.07" y="252.55" width="140.51" height="56.20" />
</g>
<g style="fill:rgb(53,46,2)">
<circle cx="350.17" cy="178.55" r="0.62" />
<circle cx="350.79" cy="178.86" r="0.31" />
<circle cx="349.25" cy="178.86" r="0.31" />
<circle cx="349.56" cy="178.55" r="0.37" />
<rect x="349.25" y="178.55" width="1.54" height="0.62" />
</g>
<g style="fill:rgb(43,93,53)">
<circle cx="410.46" cy="52.82" r="3.46" />
<circle cx="413.92" cy="54.56" r="1.73" />
<circle cx="405.26" cy="54.56" r="1.73" />
<circle cx="407.00" cy="52.82" r="2.08" />
<rect x="405.26" y="52.82" width="8.66" height="3.46" />
</g>
<g style="fill:rgb(198,126,112)">
<circle cx="271.80" cy="121.59" r="5.50" />
<circle cx="277.30" cy="124.34" r="2.75" />
<circle cx="263.55" cy="124.34" r="2.75" />
<circle cx="266.30" cy="121.59" r="3.30" />
<rect x="263.55" y="121.59" width="13.75" height="5.50" />
</g>
<g style="fill:rgb(26,181,115)">
<circle cx="49.50" cy="117.14" r="6.18" />
<circle cx="55.68" cy="120.23" r="3.09" />
<circle cx="40.22" cy="120.23" r="3.09" />
<circle cx="43.31" cy="117.14" r="3.71" />
<rect x="40.22" y="117.14" width="15.46" height="6.18" />
</g>
<g style="fill:rgb(61,112,164)">
<circle cx="81.93" cy="68.52" r="15.42" />
<circle cx="97.35" cy="76.23" r="7.71" />
<circle cx="58.81" cy="76.23" r="7.71" />
<circle cx="66.52" cy="68.52" r="9.25" />
<rect x="58.81" y="68.52" width="38.54" height="15.42" />
</g>
<g style="fill:rgb(137,91,204)">
<circle cx="211.03" cy="295.30" r="6.90" />
<circle cx="217.92" cy="298.75" r="3.45" />
<circle cx="200.68" cy="298.75" r="3.45" />
<circle cx="204.13" cy="295.30" r="4.14" />
<rect x="200.68" y="295.30" width="17.25" height="6.90" />
</g>
</svg>
