<?xml version="1.0"?>
<!-- Generated by gensvg -->
<svg width="500.00" height="500.00"
     xmlns="http://www.w3.org/2000/svg"
     xmlns:xlink="http://www.w3.org/1999/xlink">
<rect x="0.00" y="0.00" width="500.00" height="500.00" />
<g style="stroke-width:10">
<line x1="0.00" y1="0.00" x2="314.54" y2="500.00" style="stroke:rgb(232,232,232); opacity:0.39" />
<line x1="1.00" y1="0.00" x2="211.06" y2="500.00" style="stroke:rgb(167,167,167); opacity:0.39" />
<line x1="2.00" y1="0.00" x2="203.38" y2="500.00" style="stroke:rgb(239,239,239); opacity:0.39" />
<line x1="3.00" y1="0.00" x2="270.71" y2="500.00" style="stroke:rgb(58,58,58); opacity:0.39" />
<line x1="4.00" y1="0.00" x2="190.26" y2="500.00" style="stroke:rgb(9,9,9); opacity:0.39" />
<line x1="5.00" y1="0.00" x2="315.09" y2="500.00" style="stroke:rgb(207,207,207); opacity:0.39" />
<line x1="6.00" y1="0.00" x2="300.40" y2="500.00" style="stroke:rgb(142,142,142); opacity:0.39" />
<line x1="7.00" y1="0.00" x2="205.11" y2="500.00" style="stroke:rgb(92,92,92); opacity:0.39" />
<line x1="8.00" y1="0.00" x2="454.22" y2="500.00" style="stroke:rgb(20,20,20); opacity:0.39" />
<line x1="9.00" y1="0.00" x2="226.49" y2="500.00" style="stroke:rgb(231,231,231); opacity:0.39" />
<line x1="10.00" y1="0.00" x2="418.31" y2="500.00" style="stroke:rgb(133,133,133); opacity:0.39" />
<line x1="11.00" y1="0.00" x2="105.42" y2="500.00" style="stroke:rgb(242,242,242); opacity:0.39" />
<line x1="12.00" y1="0.00" x2="434.24" y2="500.00" style="stroke:rgb(185,185,185); opacity:0.39" />
<line x1="13.00" y1="0.00" x2="114.50" y2="500.00" style="stroke:rgb(202,202,202); opacity:0.39" />
<line x1="14.00" y1="0.00" x2="231.20" y2="500.00" style="stroke:rgb(224,224,224); opacity:0.39" />
<line x1="15.00" y1="0.00" x2="36.58" y2="500.00" style="stroke:rgb(68,68,68); opacity:0.39" />
<line x1="16.00" y1="0.00" x2="191.23" y2="500.00" style="stroke:rgb(39,39,39); opacity:0.39" />
<line x1="17.00" y1="0.00" x2="192.90" y2="500.00" style="stroke:rgb(3,3,3); opacity:0.39" />
<line x1="18.00" y1="0.00" x2="164.79" y2="500.00" style="stroke:rgb(153,153,153); opacity:0.39" />
<line x1="19.00" y1="0.00" x2="96.26" y2="500.00" style="stroke:rgb(233,233,233); opacity:0.39" />
<line x1="20.00" y1="0.00" x2="182.69" y2="500.00" style="stroke:rgb(158,158,158); opacity:0.39" />
<line x1="21.00" y1="0.00" x2="110.28" y2="500.00" style="stroke:rgb(149,149,149); opacity:0.39" />
<line x1="22.00" y1="0.00" x2="56.35" y2="500.00" style="stroke:rgb(243,243,243); opacity:0.39" />
<line x1="23.00" y1="0.00" x2="345.60" y2="500.00" style="stroke:rgb(176,176,176); opacity:0.39" />
<line x1="24.00" y1="0.00" x2="423.78" y2="500.00" style="stroke:rgb(154,154,154); opacity:0.39" />
<line x1="25.00" y1="0.00" x2="9.38" y2="500.00" style="stroke:rgb(234,234,234); opacity:0.39" />
<line x1="26.00" y1="0.00" x2="39.21" y2="500.00" style="stroke:rgb(162,162,162); opacity:0.39" />
<line x1="27.00" y1="0.00" x2="357.46" y2="500.00" style="stroke:rgb(52,52,52); opacity:0.39" />
<line x1="28.00" y1="0.00" x2="353.22" y2="500.00" style="stroke:rgb(61,61,61); opacity:0.39" />
<line x1="29.00" y1="0.00" x2="378.87" y2="500.00" style="stroke:rgb(194,194,194); opacity:0.39" />
<line x1="30.00" y1="0.00" x2="186.19" y2="500.00" style="stroke:rgb(228,228,228); opacity:0.39" />
<line x1="31.00" y1="0.00" x2="324.76" y2="500.00" style="stroke:rgb(54,54,54); opacity:0.39" />
<line x1="32.00" y1="0.00" x2="79.49" y2="500.00" style="stroke:rgb(115,115,115); opacity:0.39" />
<line x1="33.00" y1="0.00" x2="0.62" y2="500.00" style="stroke:rgb(168,168,168); opacity:0.39" />
<line x1="34.00" y1="0.00" x2="475.70" y2="500.00" style="stroke:rgb(81,81,81); opacity:0.39" />
<line x1="35.00" y1="0.00" x2="209.11" y2="500.00" style="stroke:rgb(135,135,135); opacity:0.39" />
<line x1="36.00" y1="0.00" x2="15.64" y2="500.00" style="stroke:rgb(233,233,233); opacity:0.39" />
<line x1="37.00" y1="0.00" x2="44.80" y2="500.00" style="stroke:rgb(7,7,7); opacity:0.39" />
<line x1="38.00" y1="0.00" x2="438.72" y2="500.00" style="stroke:rgb(197,197,197); opacity:0.39" />
<line x1="39.00" y1="0.00" x2="74.62" y2="500.00" style="stroke:rgb(90,90,90); opacity:0.39" />
<line x1="40.00" y1="0.00" x2="257.40" y2="500.00" style="stroke:rgb(247,247,247); opacity:0.39" />
<line x1="41.00" y1="0.00" x2="433.88" y2="500.00" style="stroke:rgb(94,94,94); opacity:0.39" />
<line x1="42.00" y1="0.00" x2="168.09" y2="500.00" style="stroke:rgb(236,236,236); opacity:0.39" />
<line x1="43.00" y1="0.00" x2="430.40" y2="500.00" style="stroke:rgb(50,50,50); opacity:0.39" />
<line x1="44.00" y1="0.00" x2="208.64" y2="500.00" style="stroke:rgb(156,156,156); opacity:0.39" />
<line x1="45.00" y1="0.00" x2="437.94" y2="500.00" style="stroke:rgb(185,185,185); opacity:0.39" />
<line x1="46.00" y1="0.00" x2="408.64" y2="500.00" style="stroke:rgb(196,196,196); opacity:0.39" />
<line x1="47.00" y1="0.00" x2="294.74" y2="500.00" style="stroke:rgb(1,1,1); opacity:0.39" />
<line x1="48.00" y1="0.00" x2="250.55" y2="500.00" style="stroke:rgb(134,134,134); opacity:0.39" />
<line x1="49.00" y1="0.00" x2="70.39" y2="500.00" style="stroke:rgb(173,173,173); opacity:0.39" />
<line x1="50.00" y1="0.00" x2="166.77" y2="500.00" style="stroke:rgb(110,110,110); opacity:0.39" />
<line x1="51.00" y1="0.00" x2="488.66" y2="500.00" style="stroke:rgb(233,233,233); opacity:0.39" />
<line x1="52.00" y1="0.00" x2="41.62" y2="500.00" style="stroke:rgb(197,197,197); opacity:0.39" />
<line x1="53.00" y1="0.00" x2="75.18" y2="500.00" style="stroke:rgb(121,121,121); opacity:0.39" />
<line x1="54.00" y1="0.00" x2="287.88" y2="500.00" style="stroke:rgb(171,171,171); opacity:0.39" />
<line x1="55.00" y1="0.00" x2="273.42" y2="500.00" style="stroke:rgb(205,205,205); opacity:0.39" />
<line x1="56.00" y1="0.00" x2="121.46" y2="500.00" style="stroke:rgb(214,214,214); opacity:0.39" />
<line x1="57.00" y1="0.00" x2="45.71" y2="500.00" style="stroke:rgb(171,171,171); opacity:0.39" />
<line x1="58.00" y1="0.00" x2="78.47" y2="500.00" style="stroke:rgb(140,140,140); opacity:0.39" />
<line x1="59.00" y1="0.00" x2="314.43" y2="500.00" style="stroke:rgb(203,203,203); opacity:0.39" />
<line x1="60.00" y1="0.00" x2="247.44" y2="500.00" style="stroke:rgb(61,61,61); opacity:0.39" />
<line x1="61.00" y1="0.00" x2="282.15" y2="500.00" style="stroke:rgb(193,193,193); opacity:0.39" />
<line x1="62.00" y1="0.00" x2="1.06" y2="500.00" style="stroke:rgb(5,5,5); opacity:0.39" />
<line x1="63.00" y1="0.00" x2="202.21" y2="500.00" style="stroke:rgb(36,36,36); opacity:0.39" />
<line x1="64.00" y1="0.00" x2="131.24" y2="500.00" style="stroke:rgb(18,18,18); opacity:0.39" />
<line x1="65.00" y1="0.00" x2="27.49" y2="500.00" style="stroke:rgb(212,212,212); opacity:0.39" />
<line x1="66.00" y1="0.00" x2="324.97" y2="500.00" style="stroke:rgb(147,147,147); opacity:0.39" />
<line x1="67.00" y1="0.00" x2="355.20" y2="500.00" style="stroke:rgb(247,247,247); opacity:0.39" />
<line x1="68.00" y1="0.00" x2="41.20" y2="500.00" style="stroke:rgb(90,90,90); opacity:0.39" />
<line x1="69.00" y1="0.00" x2="205.77" y2="500.00" style="stroke:rgb(96,96,96); opacity:0.39" />
<line x1="70.00" y1="0.00" x2="420.83" y2="500.00" style="stroke:rgb(93,93,93); opacity:0.39" />
<line x1="71.00" y1="0.00" x2="354.81" y2="500.00" style="stroke:rgb(106,106,106); opacity:0.39" />
<line x1="72.00" y1="0.00" x2="327.31" y2="500.00" style="stroke:rgb(100,100,100); opacity:0.39" />
<line x1="73.00" y1="0.00" x2="323.38" y2="500.00" style="stroke:rgb(53,53,53); opacity:0.39" />
<line x1="74.00" y1="0.00" x2="12.12" y2="500.00" style="stroke:rgb(13,13,13); opacity:0.39" />
<line x1="75.00" y1="0.00" x2="332.89" y2="500.00" style="stroke:rgb(28,28,28); opacity:0.39" />
<line x1="76.00" y1="0.00" x2="51.81" y2="500.00" style="stroke:rgb(250,250,250); opacity:0.39" />
<line x1="77.00" y1="0.00" x2="372.80" y2="500.00" style="stroke:rgb(184,184,184); opacity:0.39" />
<line x1="78.00" y1="0.00" x2="56.87" y2="500.00" style="stroke:rgb(45,45,45); opacity:0.39" />
<line x1="79.00" y1="0.00" x2="167.65" y2="500.00" style="stroke:rgb(12,12,12); opacity:0.39" />
<line x1="80.00" y1="0.00" x2="403.71" y2="500.00" style="stroke:rgb(247,247,247); opacity:0.39" />
<line x1="81.00" y1="0.00" x2="212.78" y2="500.00" style="stroke:rgb(164,164,164); opacity:0.39" />
<line x1="82.00" y1="0.00" x2="298.93" y2="500.00" style="stroke:rgb(120,120,120); opacity:0.39" />
<line x1="83.00" y1="0.00" x2="347.23" y2="500.00" style="stroke:rgb(108,108,108); opacity:0.39" />
<line x1="84.00" y1="0.00" x2="307.21" y2="500.00" style="stroke:rgb(201,201,201); opacity:0.39" />
<line x1="85.00" y1="0.00" x2="175.77" y2="500.00" style="stroke:rgb(170,170,170); opacity:0.39" />
<line x1="86.00" y1="0.00" x2="477.70" y2="500.00" style="stroke:rgb(154,154,154); opacity:0.39" />
<line x1="87.00" y1="0.00" x2="381.37" y2="500.00" style="stroke:rgb(111,111,111); opacity:0.39" />
<line x1="88.00" y1="0.00" x2="32.00" y2="500.00" style="stroke:rgb(2,2,2); opacity:0.39" />
<line x1="89.00" y1="0.00" x2="375.78" y2="500.00" style="stroke:rgb(54,54,54); opacity:0.39" />
<line x1="90.00" y1="0.00" x2="96.36" y2="500.00" style="stroke:rgb(119,119,119); opacity:0.39" />
<line x1="91.00" y1="0.00" x2="118.80" y2="500.00" style="stroke:rgb(34,34,34); opacity:0.39" />
<line x1="92.00" y1="0.00" x2="84.95" y2="500.00" style="stroke:rgb(81,81,81); opacity:0.39" />
<line x1="93.00" y1="0.00" x2="124.99" y2="500.00" style="stroke:rgb(21,21,21); opacity:0.39" />
<line x1="94.00" y1="0.00" x2="255.83" y2="500.00" style="stroke:rgb(244,244,244); opacity:0.39" />
<line x1="95.00" y1="0.00" x2="311.92" y2="500.00" style="stroke:rgb(38,38,38); opacity:0.39" />
<line x1="96.00" y1="0.00" x2="9.27" y2="500.00" style="stroke:rgb(253,253,253); opacity:0.39" />
<line x1="97.00" y1="0.00" x2="256.77" y2="500.00" style="stroke:rgb(61,61,61); opacity:0.39" />
<line x1="98.00" y1="0.00" x2="491.97" y2="500.00" style="stroke:rgb(105,105,105); opacity:0.39" />
<line x1="99.00" y1="0.00" x2="170.52" y2="500.00" style="stroke:rgb(84,84,84); opacity:0.39" />
<line x1="100.00" y1="0.00" x2="4.77" y2="500.00" style="stroke:rgb(66,66,66); opacity:0.39" />
<line x1="101.00" y1="0.00" x2="273.53" y2="500.00" style="stroke:rgb(125,125,125); opacity:0.39" />
<line x1="102.00" y1="0.00" x2="46.78" y2="500.00" style="stroke:rgb(161,161,161); opacity:0.39" />
<line x1="103.00" y1="0.00" x2="277.28" y2="500.00" style="stroke:rgb(232,232,232); opacity:0.39" />
<line x1="104.00" y1="0.00" x2="0.79" y2="500.00" style="stroke:rgb(180,180,180); opacity:0.39" />
<line x1="105.00" y1="0.00" x2="459.81" y2="500.00" style="stroke:rgb(220,220,220); opacity:0.39" />
<line x1="106.00" y1="0.00" x2="270.27" y2="500.00" style="stroke:rgb(230,230,230); opacity:0.39" />
<line x1="107.00" y1="0.00" x2="399.67" y2="500.00" style="stroke:rgb(116,116,116); opacity:0.39" />
<line x1="108.00" y1="0.00" x2="277.70" y2="500.00" style="stroke:rgb(49,49,49); opacity:0.39" />
<line x1="109.00" y1="0.00" x2="240.91" y2="500.00" style="stroke:rgb(72,72,72); opacity:0.39" />
<line x1="110.00" y1="0.00" x2="205.52" y2="500.00" style="stroke:rgb(246,246,246); opacity:0.39" />
<line x1="111.00" y1="0.00" x2="257.39" y2="500.00" style="stroke:rgb(221,221,221); opacity:0.39" />
<line x1="112.00" y1="0.00" x2="193.46" y2="500.00" style="stroke:rgb(116,116,116); opacity:0.39" />
<line x1="113.00" y1="0.00" x2="179.83" y2="500.00" style="stroke:rgb(6,6,6); opacity:0.39" />
<line x1="114.00" y1="0.00" x2="160.11" y2="500.00" style="stroke:rgb(23,23,23); opacity:0.39" />
<line x1="115.00" y1="0.00" x2="124.20" y2="500.00" style="stroke:rgb(58,58,58); opacity:0.39" />
<line x1="116.00" y1="0.00" x2="495.05" y2="500.00" style="stroke:rgb(158,158,158); opacity:0.39" />
<line x1="117.00" y1="0.00" x2="46.46" y2="500.00" style="stroke:rgb(222,222,222); opacity:0.39" />
<line x1="118.00" y1="0.00" x2="297.93" y2="500.00" style="stroke:rgb(188,188,188); opacity:0.39" />
<line x1="119.00" y1="0.00" x2="362.17" y2="500.00" style="stroke:rgb(81,81,81); opacity:0.39" />
<line x1="120.00" y1="0.00" x2="178.88" y2="500.00" style="stroke:rgb(72,72,72); opacity:0.39" />
<line x1="121.00" y1="0.00" x2="106.25" y2="500.00" style="stroke:rgb(30,30,30); opacity:0.39" />
<line x1="122.00" y1="0.00" x2="33.11" y2="500.00" style="stroke:rgb(199,199,199); opacity:0.39" />
<line x1="123.00" y1="0.00" x2="273.52" y2="500.00" style="stroke:rgb(110,110,110); opacity:0.39" />
<line x1="124.00" y1="0.00" x2="294.04" y2="500.00" style="stroke:rgb(147,147,147); opacity:0.39" />
<line x1="125.00" y1="0.00" x2="173.90" y2="500.00" style="stroke:rgb(48,48,48); opacity:0.39" />
<line x1="126.00" y1="0.00" x2="235.83" y2="500.00" style="stroke:rgb(21,21,21); opacity:0.39" />
<line x1="127.00" y1="0.00" x2="300.28" y2="500.00" style="stroke:rgb(195,195,195); opacity:0.39" />
<line x1="128.00" y1="0.00" x2="446.75" y2="500.00" style="stroke:rgb(168,168,168); opacity:0.39" />
<line x1="129.00" y1="0.00" x2="95.83" y2="500.00" style="stroke:rgb(243,243,243); opacity:0.39" />
<line x1="130.00" y1="0.00" x2="428.44" y2="500.00" style="stroke:rgb(114,114,114); opacity:0.39" />
<line x1="131.00" y1="0.00" x2="175.11" y2="500.00" style="stroke:rgb(22,22,22); opacity:0.39" />
<line x1="132.00" y1="0.00" x2="92.78" y2="500.00" style="stroke:rgb(134,134,134); opacity:0.39" />
<line x1="133.00" y1="0.00" x2="285.01" y2="500.00" style="stroke:rgb(180,180,180); opacity:0.39" />
<line x1="134.00" y1="0.00" x2="399.50" y2="500.00" style="stroke:rgb(206,206,206); opacity:0.39" />
<line x1="135.00" y1="0.00" x2="413.17" y2="500.00" style="stroke:rgb(46,46,46); opacity:0.39" />
<line x1="136.00" y1="0.00" x2="490.24" y2="500.00" style="stroke:rgb(32,32,32); opacity:0.39" />
<line x1="137.00" y1="0.00" x2="59.98" y2="500.00" style="stroke:rgb(143,143,143); opacity:0.39" />
<line x1="138.00" y1="0.00" x2="433.99" y2="500.00" style="stroke:rgb(58,58,58); opacity:0.39" />
<line x1="139.00" y1="0.00" x2="424.43" y2="500.00" style="stroke:rgb(99,99,99); opacity:0.39" />
<line x1="140.00" y1="0.00" x2="48.63" y2="500.00" style="stroke:rgb(198,198,198); opacity:0.39" />
<line x1="141.00" y1="0.00" x2="187.55" y2="500.00" style="stroke:rgb(68,68,68); opacity:0.39" />
<line x1="142.00" y1="0.00" x2="7.68" y2="500.00" style="stroke:rgb(199,199,199); opacity:0.39" />
<line x1="143.00" y1="0.00" x2="55.29" y2="500.00" style="stroke:rgb(164,164,164); opacity:0.39" />
<line x1="144.00" y1="0.00" x2="476.24" y2="500.00" style="stroke:rgb(166,166,166); opacity:0.39" />
<line x1="145.00" y1="0.00" x2="179.83" y2="500.00" style="stroke:rgb(231,231,231); opacity:0.39" />
<line x1="146.00" y1="0.00" x2="462.11" y2="500.00" style="stroke:rgb(138,138,138); opacity:0.39" />
<line x1="147.00" y1="0.00" x2="237.62" y2="500.00" style="stroke:rgb(178,178,178); opacity:0.39" />
<line x1="148.00" y1="0.00" x2="52.03" y2="500.00" style="stroke:rgb(13,13,13); opacity:0.39" />
<line x1="149.00" y1="0.00" x2="168.98" y2="500.00" style="stroke:rgb(104,104,104); opacity:0.39" />
<line x1="150.00" y1="0.00" x2="9.76" y2="500.00" style="stroke:rgb(181,181,181); opacity:0.39" />
<line x1="151.00" y1="0.00" x2="184.14" y2="500.00" style="stroke:rgb(232,232,232); opacity:0.39" />
<line x1="152.00" y1="0.00" x2="175.66" y2="500.00" style="stroke:rgb(111,111,111); opacity:0.39" />
<line x1="153.00" y1="0.00" x2="1.77" y2="500.00" style="stroke:rgb(178,178,178); opacity:0.39" />
<line x1="154.00" y1="0.00" x2="383.98" y2="500.00" style="stroke:rgb(241,241,241); opacity:0.39" />
<line x1="155.00" y1="0.00" x2="383.86" y2="500.00" style="stroke:rgb(222,222,222); opacity:0.39" />
<line x1="156.00" y1="0.00" x2="282.81" y2="500.00" style="stroke:rgb(92,92,92); opacity:0.39" />
<line x1="157.00" y1="0.00" x2="276.65" y2="500.00" style="stroke:rgb(232,232,232); opacity:0.39" />
<line x1="158.00" y1="0.00" x2="168.15" y2="500.00" style="stroke:rgb(138,138,138); opacity:0.39" />
<line x1="159.00" y1="0.00" x2="448.24" y2="500.00" style="stroke:rgb(132,132,132); opacity:0.39" />
<line x1="160.00" y1="0.00" x2="365.86" y2="500.00" style="stroke:rgb(238,238,238); opacity:0.39" />
<line x1="161.00" y1="0.00" x2="152.97" y2="500.00" style="stroke:rgb(91,91,91); opacity:0.39" />
<line x1="162.00" y1="0.00" x2="395.76" y2="500.00" style="stroke:rgb(228,228,228); opacity:0.39" />
<line x1="163.00" y1="0.00" x2="437.45" y2="500.00" style="stroke:rgb(151,151,151); opacity:0.39" />
<line x1="164.00" y1="0.00" x2="204.74" y2="500.00" style="stroke:rgb(188,188,188); opacity:0.39" />
<line x1="165.00" y1="0.00" x2="387.70" y2="500.00" style="stroke:rgb(181,181,181); opacity:0.39" />
<line x1="166.00" y1="0.00" x2="77.36" y2="500.00" style="stroke:rgb(40,40,40); opacity:0.39" />
<line x1="167.00" y1="0.00" x2="159.69" y2="500.00" style="stroke:rgb(216,216,216); opacity:0.39" />
<line x1="168.00" y1="0.00" x2="249.24" y2="500.00" style="stroke:rgb(142,142,142); opacity:0.39" />
<line x1="169.00" y1="0.00" x2="406.89" y2="500.00" style="stroke:rgb(58,58,58); opacity:0.39" />
<line x1="170.00" y1="0.00" x2="368.51" y2="500.00" style="stroke:rgb(69,69,69); opacity:0.39" />
<line x1="171.00" y1="0.00" x2="354.53" y2="500.00" style="stroke:rgb(54,54,54); opacity:0.39" />
<line x1="172.00" y1="0.00" x2="160.50" y2="500.00" style="stroke:rgb(164,164,164); opacity:0.39" />
<line x1="173.00" y1="0.00" x2="412.69" y2="500.00" style="stroke:rgb(66,66,66); opacity:0.39" />
<line x1="174.00" y1="0.00" x2="296.68" y2="500.00" style="stroke:rgb(42,42,42); opacity:0.39" />
<line x1="175.00" y1="0.00" x2="499.74" y2="500.00" style="stroke:rgb(109,109,109); opacity:0.39" />
<line x1="176.00" y1="0.00" x2="45.70" y2="500.00" style="stroke:rgb(78,78,78); opacity:0.39" />
<line x1="177.00" y1="0.00" x2="300.15" y2="500.00" style="stroke:rgb(31,31,31); opacity:0.39" />
<line x1="178.00" y1="0.00" x2="151.94" y2="500.00" style="stroke:rgb(69,69,69); opacity:0.39" />
<line x1="179.00" y1="0.00" x2="20.85" y2="500.00" style="stroke:rgb(21,21,21); opacity:0.39" />
<line x1="180.00" y1="0.00" x2="449.33" y2="500.00" style="stroke:rgb(109,109,109); opacity:0.39" />
<line x1="181.00" y1="0.00" x2="337.95" y2="500.00" style="stroke:rgb(48,48,48); opacity:0.39" />
<line x1="182.00" y1="0.00" x2="333.84" y2="500.00" style="stroke:rgb(203,203,203); opacity:0.39" />
<line x1="183.00" y1="0.00" x2="499.75" y2="500.00" style="stroke:rgb(62,62,62); opacity:0.39" />
<line x1="184.00" y1="0.00" x2="51.77" y2="500.00" style="stroke:rgb(233,233,233); opacity:0.39" />
<line x1="185.00" y1="0.00" x2="90.80" y2="500.00" style="stroke:rgb(121,121,121); opacity:0.39" />
<line x1="186.00" y1="0.00" x2="377.42" y2="500.00" style="stroke:rgb(143,143,143); opacity:0.39" />
<line x1="187.00" y1="0.00" x2="496.34" y2="500.00" style="stroke:rgb(186,186,186); opacity:0.39" />
<line x1="188.00" y1="0.00" x2="157.79" y2="500.00" style="stroke:rgb(43,43,43); opacity:0.39" />
<line x1="189.00" y1="0.00" x2="422.77" y2="500.00" style="stroke:rgb(41,41,41); opacity:0.39" />
<line x1="190.00" y1="0.00" x2="459.49" y2="500.00" style="stroke:rgb(176,176,176); opacity:0.39" />
<line x1="191.00" y1="0.00" x2="62.67" y2="500.00" style="stroke:rgb(25,25,25); opacity:0.39" />
<line x1="192.00" y1="0.00" x2="396.54" y2="500.00" style="stroke:rgb(15,15,15); opacity:0.39" />
<line x1="193.00" y1="0.00" x2="368.62" y2="500.00" style="stroke:rgb(143,143,143); opacity:0.39" />
<line x1="194.00" y1="0.00" x2="488.66" y2="500.00" style="stroke:rgb(241,241,241); opacity:0.39" />
<line x1="195.00" y1="0.00" x2="455.47" y2="500.00" style="stroke:rgb(119,119,119); opacity:0.39" />
<line x1="196.00" y1="0.00" x2="274.34" y2="500.00" style="stroke:rgb(134,134,134); opacity:0.39" />
<line x1="197.00" y1="0.00" x2="417.59" y2="500.00" style="stroke:rgb(206,206,206); opacity:0.39" />
<line x1="198.00" y1="0.00" x2="7.25" y2="500.00" style="stroke:rgb(214,214,214); opacity:0.39" />
<line x1="199.00" y1="0.00" x2="229.39" y2="500.00" style="stroke:rgb(238,238,238); opacity:0.39" />
<line x1="200.00" y1="0.00" x2="55.87" y2="500.00" style="stroke:rgb(118,118,118); opacity:0.39" />
<line x1="201.00" y1="0.00" x2="122.33" y2="500.00" style="stroke:rgb(169,169,169); opacity:0.39" />
<line x1="202.00" y1="0.00" x2="116.77" y2="500.00" style="stroke:rgb(87,87,87); opacity:0.39" />
<line x1="203.00" y1="0.00" x2="332.60" y2="500.00" style="stroke:rgb(95,95,95); opacity:0.39" />
<line x1="204.00" y1="0.00" x2="334.99" y2="500.00" style="stroke:rgb(26,26,26); opacity:0.39" />
<line x1="205.00" y1="0.00" x2="40.47" y2="500.00" style="stroke:rgb(24,24,24); opacity:0.39" />
<line x1="206.00" y1="0.00" x2="72.39" y2="500.00" style="stroke:rgb(114,114,114); opacity:0.39" />
<line x1="207.00" y1="0.00" x2="193.62" y2="500.00" style="stroke:rgb(23,23,23); opacity:0.39" />
<line x1="208.00" y1="0.00" x2="356.54" y2="500.00" style="stroke:rgb(94,94,94); opacity:0.39" />
<line x1="209.00" y1="0.00" x2="167.90" y2="500.00" style="stroke:rgb(61,61,61); opacity:0.39" />
<line x1="210.00" y1="0.00" x2="37.51" y2="500.00" style="stroke:rgb(252,252,252); opacity:0.39" />
<line x1="211.00" y1="0.00" x2="416.64" y2="500.00" style="stroke:rgb(238,238,238); opacity:0.39" />
<line x1="212.00" y1="0.00" x2="25.66" y2="500.00" style="stroke:rgb(33,33,33); opacity:0.39" />
<line x1="213.00" y1="0.00" x2="383.08" y2="500.00" style="stroke:rgb(169,169,169); opacity:0.39" />
<line x1="214.00" y1="0.00" x2="1.90" y2="500.00" style="stroke:rgb(19,19,19); opacity:0.39" />
<line x1="215.00" y1="0.00" x2="62.83" y2="500.00" style="stroke:rgb(215,215,215); opacity:0.39" />
<line x1="216.00" y1="0.00" x2="318.54" y2="500.00" style="stroke:rgb(200,200,200); opacity:0.39" />
<line x1="217.00" y1="0.00" x2="301.29" y2="500.00" style="stroke:rgb(39,39,39); opacity:0.39" />
<line x1="218.00" y1="0.00" x2="463.28" y2="500.00" style="stroke:rgb(125,125,125); opacity:0.39" />
<line x1="219.00" y1="0.00" x2="240.31" y2="500.00" style="stroke:rgb(114,114,114); opacity:0.39" />
<line x1="220.00" y1="0.00" x2="167.19" y2="500.00" style="stroke:rgb(237,237,237); opacity:0.39" />
<line x1="221.00" y1="0.00" x2="182.01" y2="500.00" style="stroke:rgb(182,182,182); opacity:0.39" />
<line x1="222.00" y1="0.00" x2="90.60" y2="500.00" style="stroke:rgb(38,38,38); opacity:0.39" />
<line x1="223.00" y1="0.00" x2="414.58" y2="500.00" style="stroke:rgb(95,95,95); opacity:0.39" />
<line x1="224.00" y1="0.00" x2="207.10" y2="500.00" style="stroke:rgb(217,217,217); opacity:0.39" />
<line x1="225.00" y1="0.00" x2="437.58" y2="500.00" style="stroke:rgb(147,147,147); opacity:0.39" />
<line x1="226.00" y1="0.00" x2="21.01" y2="500.00" style="stroke:rgb(131,131,131); opacity:0.39" />
<line x1="227.00" y1="0.00" x2="312.13" y2="500.00" style="stroke:rgb(184,184,184); opacity:0.39" />
<line x1="228.00" y1="0.00" x2="210.70" y2="500.00" style="stroke:rgb(180,180,180); opacity:0.39" />
<line x1="229.00" y1="0.00" x2="217.57" y2="500.00" style="stroke:rgb(222,222,222); opacity:0.39" />
<line x1="230.00" y1="0.00" x2="59.20" y2="500.00" style="stroke:rgb(246,246,246); opacity:0.39" />
<line x1="231.00" y1="0.00" x2="381.49" y2="500.00" style="stroke:rgb(25,25,25); opacity:0.39" />
<line x1="232.00" y1="0.00" x2="301.58" y2="500.00" style="stroke:rgb(208,208,208); opacity:0.39" />
<line x1="233.00" y1="0.00" x2="104.53" y2="500.00" style="stroke:rgb(103,103,103); opacity:0.39" />
<line x1="234.00" y1="0.00" x2="21.12" y2="500.00" style="stroke:rgb(108,108,108); opacity:0.39" />
<line x1="235.00" y1="0.00" x2="20.11" y2="500.00" style="stroke:rgb(0,0,0); opacity:0.39" />
<line x1="236.00" y1="0.00" x2="68.64" y2="500.00" style="stroke:rgb(147,147,147); opacity:0.39" />
<line x1="237.00" y1="0.00" x2="88.47" y2="500.00" style="stroke:rgb(105,105,105); opacity:0.39" />
<line x1="238.00" y1="0.00" x2="82.78" y2="500.00" style="stroke:rgb(226,226,226); opacity:0.39" />
<line x1="239.00" y1="0.00" x2="120.22" y2="500.00" style="stroke:rgb(86,86,86); opacity:0.39" />
<line x1="240.00" y1="0.00" x2="58.30" y2="500.00" style="stroke:rgb(205,205,205); opacity:0.39" />
<line x1="241.00" y1="0.00" x2="238.48" y2="500.00" style="stroke:rgb(223,223,223); opacity:0.39" />
<line x1="242.00" y1="0.00" x2="176.76" y2="500.00" style="stroke:rgb(247,247,247); opacity:0.39" />
<line x1="243.00" y1="0.00" x2="452.03" y2="500.00" style="stroke:rgb(137,137,137); opacity:0.39" />
<line x1="244.00" y1="0.00" x2="39.56" y2="500.00" style="stroke:rgb(89,89,89); opacity:0.39" />
<line x1="245.00" y1="0.00" x2="412.40" y2="500.00" style="stroke:rgb(237,237,237); opacity:0.39" />
<line x1="246.00" y1="0.00" x2="199.83" y2="500.00" style="stroke:rgb(150,150,150); opacity:0.39" />
<line x1="247.00" y1="0.00" x2="407.74" y2="500.00" style="stroke:rgb(105,105,105); opacity:0.39" />
<line x1="248.00" y1="0.00" x2="81.36" y2="500.00" style="stroke:rgb(254,254,254); opacity:0.39" />
<line x1="249.00" y1="0.00" x2="409.87" y2="500.00" style="stroke:rgb(202,202,202); opacity:0.39" />
<line x1="250.00" y1="0.00" x2="211.51" y2="500.00" style="stroke:rgb(165,165,165); opacity:0.39" />
<line x1="251.00" y1="0.00" x2="34.96" y2="500.00" style="stroke:rgb(208,208,208); opacity:0.39" />
<line x1="252.00" y1="0.00" x2="381.37" y2="500.00" style="stroke:rgb(94,94,94); opacity:0.39" />
<line x1="253.00" y1="0.00" x2="362.00" y2="500.00" style="stroke:rgb(130,130,130); opacity:0.39" />
<line x1="254.00" y1="0.00" x2="451.20" y2="500.00" style="stroke:rgb(165,165,165); opacity:0.39" />
<line x1="255.00" y1="0.00" x2="327.00" y2="500.00" style="stroke:rgb(241,241,241); opacity:0.39" />
<line x1="256.00" y1="0.00" x2="86.33" y2="500.00" style="stroke:rgb(155,155,155); opacity:0.39" />
<line x1="257.00" y1="0.00" x2="4.31" y2="500.00" style="stroke:rgb(144,144,144); opacity:0.39" />
<line x1="258.00" y1="0.00" x2="432.99" y2="500.00" style="stroke:rgb(155,155,155); opacity:0.39" />
<line x1="259.00" y1="0.00" x2="174.57" y2="500.00" style="stroke:rgb(251,251,251); opacity:0.39" />
<line x1="260.00" y1="0.00" x2="28.21" y2="500.00" style="stroke:rgb(2,2,2); opacity:0.39" />
<line x1="261.00" y1="0.00" x2="195.76" y2="500.00" style="stroke:rgb(86,86,86); opacity:0.39" />
<line x1="262.00" y1="0.00" x2="499.35" y2="500.00" style="stroke:rgb(167,167,167); opacity:0.39" />
<line x1="263.00" y1="0.00" x2="256.16" y2="500.00" style="stroke:rgb(106,106,106); opacity:0.39" />
<line x1="264.00" y1="0.00" x2="301.76" y2="500.00" style="stroke:rgb(246,246,246); opacity:0.39" />
<line x1="265.00" y1="0.00" x2="492.71" y2="500.00" style="stroke:rgb(11,11,11); opacity:0.39" />
<line x1="266.00" y1="0.00" x2="382.04" y2="500.00" style="stroke:rgb(61,61,61); opacity:0.39" />
<line x1="267.00" y1="0.00" x2="452.33" y2="500.00" style="stroke:rgb(226,226,226); opacity:0.39" />
<line x1="268.00" y1="0.00" x2="85.86" y2="500.00" style="stroke:rgb(151,151,151); opacity:0.39" />
<line x1="269.00" y1="0.00" x2="192.75" y2="500.00" style="stroke:rgb(3,3,3); opacity:0.39" />
<line x1="270.00" y1="0.00" x2="163.15" y2="500.00" style="stroke:rgb(44,44,44); opacity:0.39" />
<line x1="271.00" y1="0.00" x2="204.66" y2="500.00" style="stroke:rgb(219,219,219); opacity:0.39" />
<line x1="272.00" y1="0.00" x2="499.57" y2="500.00" style="stroke:rgb(217,217,217); opacity:0.39" />
<line x1="273.00" y1="0.00" x2="421.28" y2="500.00" style="stroke:rgb(5,5,5); opacity:0.39" />
<line x1="274.00" y1="0.00" x2="311.67" y2="500.00" style="stroke:rgb(189,189,189); opacity:0.39" />
<line x1="275.00" y1="0.00" x2="43.18" y2="500.00" style="stroke:rgb(207,207,207); opacity:0.39" />
<line x1="276.00" y1="0.00" x2="314.39" y2="500.00" style="stroke:rgb(155,155,155); opacity:0.39" />
<line x1="277.00" y1="0.00" x2="23.05" y2="500.00" style="stroke:rgb(232,232,232); opacity:0.39" />
<line x1="278.00" y1="0.00" x2="461.52" y2="500.00" style="stroke:rgb(225,225,225); opacity:0.39" />
<line x1="279.00" y1="0.00" x2="444.00" y2="500.00" style="stroke:rgb(23,23,23); opacity:0.39" />
<line x1="280.00" y1="0.00" x2="144.28" y2="500.00" style="stroke:rgb(108,108,108); opacity:0.39" />
<line x1="281.00" y1="0.00" x2="73.97" y2="500.00" style="stroke:rgb(163,163,163); opacity:0.39" />
<line x1="282.00" y1="0.00" x2="496.41" y2="500.00" style="stroke:rgb(174,174,174); opacity:0.39" />
<line x1="283.00" y1="0.00" x2="276.71" y2="500.00" style="stroke:rgb(196,196,196); opacity:0.39" />
<line x1="284.00" y1="0.00" x2="285.77" y2="500.00" style="stroke:rgb(224,224,224); opacity:0.39" />
<line x1="285.00" y1="0.00" x2="176.41" y2="500.00" style="stroke:rgb(110,110,110); opacity:0.39" />
<line x1="286.00" y1="0.00" x2="193.28" y2="500.00" style="stroke:rgb(24,24,24); opacity:0.39" />
<line x1="287.00" y1="0.00" x2="84.76" y2="500.00" style="stroke:rgb(162,162,162); opacity:0.39" />
<line x1="288.00" y1="0.00" x2="284.89" y2="500.00" style="stroke:rgb(180,180,180); opacity:0.39" />
<line x1="289.00" y1="0.00" x2="238.39" y2="500.00" style="stroke:rgb(36,36,36); opacity:0.39" />
<line x1="290.00" y1="0.00" x2="480.51" y2="500.00" style="stroke:rgb(129,129,129); opacity:0.39" />
<line x1="291.00" y1="0.00" x2="375.50" y2="500.00" style="stroke:rgb(244,244,244); opacity:0.39" />
<line x1="292.00" y1="0.00" x2="460.51" y2="500.00" style="stroke:rgb(163,163,163); opacity:0.39" />
<line x1="293.00" y1="0.00" x2="335.49" y2="500.00" style="stroke:rgb(59,59,59); opacity:0.39" />
<line x1="294.00" y1="0.00" x2="47.55" y2="500.00" style="stroke:rgb(26,26,26); opacity:0.39" />
<line x1="295.00" y1="0.00" x2="28.95" y2="500.00" style="stroke:rgb(208,208,208); opacity:0.39" />
<line x1="296.00" y1="0.00" x2="459.81" y2="500.00" style="stroke:rgb(110,110,110); opacity:0.39" />
<line x1="297.00" y1="0.00" x2="100.79" y2="500.00" style="stroke:rgb(166,166,166); opacity:0.39" />
<line x1="298.00" y1="0.00" x2="305.64" y2="500.00" style="stroke:rgb(87,87,87); opacity:0.39" />
<line x1="299.00" y1="0.00" x2="116.71" y2="500.00" style="stroke:rgb(170,170,170); opacity:0.39" />
<line x1="300.00" y1="0.00" x2="350.89" y2="500.00" style="stroke:rgb(109,109,109); opacity:0.39" />
<line x1="301.00" y1="0.00" x2="22.74" y2="500.00" style="stroke:rgb(226,226,226); opacity:0.39" />
<line x1="302.00" y1="0.00" x2="345.14" y2="500.00" style="stroke:rgb(77,77,77); opacity:0.39" />
<line x1="303.00" y1="0.00" x2="491.64" y2="500.00" style="stroke:rgb(194,194,194); opacity:0.39" />
<line x1="304.00" y1="0.00" x2="415.19" y2="500.00" style="stroke:rgb(101,101,101); opacity:0.39" />
<line x1="305.00" y1="0.00" x2="151.43" y2="500.00" style="stroke:rgb(11,11,11); opacity:0.39" />
<line x1="306.00" y1="0.00" x2="9.79" y2="500.00" style="stroke:rgb(57,57,57); opacity:0.39" />
<line x1="307.00" y1="0.00" x2="138.89" y2="500.00" style="stroke:rgb(32,32,32); opacity:0.39" />
<line x1="308.00" y1="0.00" x2="171.06" y2="500.00" style="stroke:rgb(220,220,220); opacity:0.39" />
<line x1="309.00" y1="0.00" x2="94.92" y2="500.00" style="stroke:rgb(9,9,9); opacity:0.39" />
<line x1="310.00" y1="0.00" x2="97.38" y2="500.00" style="stroke:rgb(198,198,198); opacity:0.39" />
<line x1="311.00" y1="0.00" x2="191.84" y2="500.00" style="stroke:rgb(246,246,246); opacity:0.39" />
<line x1="312.00" y1="0.00" x2="368.83" y2="500.00" style="stroke:rgb(213,213,213); opacity:0.39" />
<line x1="313.00" y1="0.00" x2="497.82" y2="500.00" style="stroke:rgb(92,92,92); opacity:0.39" />
<line x1="314.00" y1="0.00" x2="319.80" y2="500.00" style="stroke:rgb(220,220,220); opacity:0.39" />
<line x1="315.00" y1="0.00" x2="424.32" y2="500.00" style="stroke:rgb(74,74,74); opacity:0.39" />
<line x1="316.00" y1="0.00" x2="416.57" y2="500.00" style="stroke:rgb(50,50,50); opacity:0.39" />
<line x1="317.00" y1="0.00" x2="312.32" y2="500.00" style="stroke:rgb(37,37,37); opacity:0.39" />
<line x1="318.00" y1="0.00" x2="155.85" y2="500.00" style="stroke:rgb(113,113,113); opacity:0.39" />
<line x1="319.00" y1="0.00" x2="301.66" y2="500.00" style="stroke:rgb(103,103,103); opacity:0.39" />
<line x1="320.00" y1="0.00" x2="203.72" y2="500.00" style="stroke:rgb(111,111,111); opacity:0.39" />
<line x1="321.00" y1="0.00" x2="0.93" y2="500.00" style="stroke:rgb(145,145,145); opacity:0.39" />
<line x1="322.00" y1="0.00" x2="107.16" y2="500.00" style="stroke:rgb(188,188,188); opacity:0.39" />
<line x1="323.00" y1="0.00" x2="302.30" y2="500.00" style="stroke:rgb(95,95,95); opacity:0.39" />
<line x1="324.00" y1="0.00" x2="192.99" y2="500.00" style="stroke:rgb(218,218,218); opacity:0.39" />
<line x1="325.00" y1="0.00" x2="57.18" y2="500.00" style="stroke:rgb(52,52,52); opacity:0.39" />
<line x1="326.00" y1="0.00" x2="317.38" y2="500.00" style="stroke:rgb(218,218,218); opacity:0.39" />
<line x1="327.00" y1="0.00" x2="472.44" y2="500.00" style="stroke:rgb(73,73,73); opacity:0.39" />
<line x1="328.00" y1="0.00" x2="310.11" y2="500.00" style="stroke:rgb(163,163,163); opacity:0.39" />
<line x1="329.00" y1="0.00" x2="433.40" y2="500.00" style="stroke:rgb(239,239,239); opacity:0.39" />
<line x1="330.00" y1="0.00" x2="187.51" y2="500.00" style="stroke:rgb(102,102,102); opacity:0.39" />
<line x1="331.00" y1="0.00" x2="323.82" y2="500.00" style="stroke:rgb(147,147,147); opacity:0.39" />
<line x1="332.00" y1="0.00" x2="463.63" y2="500.00" style="stroke:rgb(39,39,39); opacity:0.39" />
<line x1="333.00" y1="0.00" x2="207.32" y2="500.00" style="stroke:rgb(186,186,186); opacity:0.39" />
<line x1="334.00" y1="0.00" x2="159.62" y2="500.00" style="stroke:rgb(210,210,210); opacity:0.39" />
<line x1="335.00" y1="0.00" x2="255.40" y2="500.00" style="stroke:rgb(140,140,140); opacity:0.39" />
<line x1="336.00" y1="0.00" x2="30.33" y2="500.00" style="stroke:rgb(165,165,165); opacity:0.39" />
<line x1="337.00" y1="0.00" x2="430.63" y2="500.00" style="stroke:rgb(46,46,46); opacity:0.39" />
<line x1="338.00" y1="0.00" x2="121.01" y2="500.00" style="stroke:rgb(187,187,187); opacity:0.39" />
<line x1="339.00" y1="0.00" x2="134.69" y2="500.00" style="stroke:rgb(78,78,78); opacity:0.39" />
<line x1="340.00" y1="0.00" x2="334.76" y2="500.00" style="stroke:rgb(175,175,175); opacity:0.39" />
<line x1="341.00" y1="0.00" x2="475.46" y2="500.00" style="stroke:rgb(200,200,200); opacity:0.39" />
<line x1="342.00" y1="0.00" x2="14.26" y2="500.00" style="stroke:rgb(81,81,81); opacity:0.39" />
<line x1="343.00" y1="0.00" x2="233.55" y2="500.00" style="stroke:rgb(234,234,234); opacity:0.39" />
<line x1="344.00" y1="0.00" x2="6.87" y2="500.00" style="stroke:rgb(118,118,118); opacity:0.39" />
<line x1="345.00" y1="0.00" x2="91.12" y2="500.00" style="stroke:rgb(246,246,246); opacity:0.39" />
<line x1="346.00" y1="0.00" x2="402.44" y2="500.00" style="stroke:rgb(229,229,229); opacity:0.39" />
<line x1="347.00" y1="0.00" x2="480.07" y2="500.00" style="stroke:rgb(172,172,172); opacity:0.39" />
<line x1="348.00" y1="0.00" x2="195.03" y2="500.00" style="stroke:rgb(64,64,64); opacity:0.39" />
<line x1="349.00" y1="0.00" x2="413.04" y2="500.00" style="stroke:rgb(105,105,105); opacity:0.39" />
<line x1="350.00" y1="0.00" x2="491.77" y2="500.00" style="stroke:rgb(125,125,125); opacity:0.39" />
<line x1="351.00" y1="0.00" x2="421.20" y2="500.00" style="stroke:rgb(107,107,107); opacity:0.39" />
<line x1="352.00" y1="0.00" x2="34.38" y2="500.00" style="stroke:rgb(57,57,57); opacity:0.39" />
<line x1="353.00" y1="0.00" x2="357.34" y2="500.00" style="stroke:rgb(63,63,63); opacity:0.39" />
<line x1="354.00" y1="0.00" x2="39.98" y2="500.00" style="stroke:rgb(241,241,241); opacity:0.39" />
<line x1="355.00" y1="0.00" x2="268.85" y2="500.00" style="stroke:rgb(125,125,125); opacity:0.39" />
<line x1="356.00" y1="0.00" x2="478.34" y2="500.00" style="stroke:rgb(17,17,17); opacity:0.39" />
<line x1="357.00" y1="0.00" x2="240.63" y2="500.00" style="stroke:rgb(19,19,19); opacity:0.39" />
<line x1="358.00" y1="0.00" x2="222.87" y2="500.00" style="stroke:rgb(90,90,90); opacity:0.39" />
<line x1="359.00" y1="0.00" x2="306.74" y2="500.00" style="stroke:rgb(3,3,3); opacity:0.39" />
<line x1="360.00" y1="0.00" x2="241.48" y2="500.00" style="stroke:rgb(203,203,203); opacity:0.39" />
<line x1="361.00" y1="0.00" x2="110.06" y2="500.00" style="stroke:rgb(245,245,245); opacity:0.39" />
<line x1="362.00" y1="0.00" x2="353.38" y2="500.00" style="stroke:rgb(195,195,195); opacity:0.39" />
<line x1="363.00" y1="0.00" x2="239.93" y2="500.00" style="stroke:rgb(188,188,188); opacity:0.39" />
<line x1="364.00" y1="0.00" x2="263.33" y2="500.00" style="stroke:rgb(141,141,141); opacity:0.39" />
<line x1="365.00" y1="0.00" x2="238.29" y2="500.00" style="stroke:rgb(62,62,62); opacity:0.39" />
<line x1="366.00" y1="0.00" x2="153.57" y2="500.00" style="stroke:rgb(69,69,69); opacity:0.39" />
<line x1="367.00" y1="0.00" x2="272.65" y2="500.00" style="stroke:rgb(253,253,253); opacity:0.39" />
<line x1="368.00" y1="0.00" x2="88.54" y2="500.00" style="stroke:rgb(34,34,34); opacity:0.39" />
<line x1="369.00" y1="0.00" x2="89.44" y2="500.00" style="stroke:rgb(213,213,213); opacity:0.39" />
<line x1="370.00" y1="0.00" x2="472.14" y2="500.00" style="stroke:rgb(249,249,249); opacity:0.39" />
<line x1="371.00" y1="0.00" x2="178.99" y2="500.00" style="stroke:rgb(14,14,14); opacity:0.39" />
<line x1="372.00" y1="0.00" x2="238.22" y2="500.00" style="stroke:rgb(41,41,41); opacity:0.39" />
<line x1="373.00" y1="0.00" x2="21.67" y2="500.00" style="stroke:rgb(31,31,31); opacity:0.39" />
<line x1="374.00" y1="0.00" x2="236.31" y2="500.00" style="stroke:rgb(63,63,63); opacity:0.39" />
<line x1="375.00" y1="0.00" x2="419.99" y2="500.00" style="stroke:rgb(231,231,231); opacity:0.39" />
<line x1="376.00" y1="0.00" x2="176.22" y2="500.00" style="stroke:rgb(178,178,178); opacity:0.39" />
<line x1="377.00" y1="0.00" x2="121.87" y2="500.00" style="stroke:rgb(135,135,135); opacity:0.39" />
<line x1="378.00" y1="0.00" x2="233.73" y2="500.00" style="stroke:rgb(55,55,55); opacity:0.39" />
<line x1="379.00" y1="0.00" x2="89.48" y2="500.00" style="stroke:rgb(7,7,7); opacity:0.39" />
<line x1="380.00" y1="0.00" x2="309.89" y2="500.00" style="stroke:rgb(4,4,4); opacity:0.39" />
<line x1="381.00" y1="0.00" x2="329.59" y2="500.00" style="stroke:rgb(112,112,112); opacity:0.39" />
<line x1="382.00" y1="0.00" x2="269.14" y2="500.00" style="stroke:rgb(11,11,11); opacity:0.39" />
<line x1="383.00" y1="0.00" x2="227.97" y2="500.00" style="stroke:rgb(142,142,142); opacity:0.39" />
<line x1="384.00" y1="0.00" x2="426.78" y2="500.00" style="stroke:rgb(102,102,102); opacity:0.39" />
<line x1="385.00" y1="0.00" x2="151.96" y2="500.00" style="stroke:rgb(181,181,181); opacity:0.39" />
<line x1="386.00" y1="0.00" x2="44.89" y2="500.00" style="stroke:rgb(42,42,42); opacity:0.39" />
<line x1="387.00" y1="0.00" x2="313.91" y2="500.00" style="stroke:rgb(173,173,173); opacity:0.39" />
<line x1="388.00" y1="0.00" x2="355.85" y2="500.00" style="stroke:rgb(231,231,231); opacity:0.39" />
<line x1="389.00" y1="0.00" x2="34.39" y2="500.00" style="stroke:rgb(93,93,93); opacity:0.39" />
<line x1="390.00" y1="0.00" x2="143.22" y2="500.00" style="stroke:rgb(228,228,228); opacity:0.39" />
<line x1="391.00" y1="0.00" x2="152.87" y2="500.00" style="stroke:rgb(249,249,249); opacity:0.39" />
<line x1="392.00" y1="0.00" x2="408.93" y2="500.00" style="stroke:rgb(222,222,222); opacity:0.39" />
<line x1="393.00" y1="0.00" x2="387.19" y2="500.00" style="stroke:rgb(201,201,201); opacity:0.39" />
<line x1="394.00" y1="0.00" x2="17.65" y2="500.00" style="stroke:rgb(253,253,253); opacity:0.39" />
<line x1="395.00" y1="0.00" x2="33.89" y2="500.00" style="stroke:rgb(15,15,15); opacity:0.39" />
<line x1="396.00" y1="0.00" x2="319.30" y2="500.00" style="stroke:rgb(106,106,106); opacity:0.39" />
<line x1="397.00" y1="0.00" x2="245.60" y2="500.00" style="stroke:rgb(179,179,179); opacity:0.39" />
<line x1="398.00" y1="0.00" x2="209.02" y2="500.00" style="stroke:rgb(213,213,213); opacity:0.39" />
<line x1="399.00" y1="0.00" x2="109.21" y2="500.00" style="stroke:rgb(163,163,163); opacity:0.39" />
<line x1="400.00" y1="0.00" x2="188.91" y2="500.00" style="stroke:rgb(172,172,172); opacity:0.39" />
<line x1="401.00" y1="0.00" x2="128.36" y2="500.00" style="stroke:rgb(142,142,142); opacity:0.39" />
<line x1="402.00" y1="0.00" x2="130.87" y2="500.00" style="stroke:rgb(192,192,192); opacity:0.39" />
<line x1="403.00" y1="0.00" x2="106.42" y2="500.00" style="stroke:rgb(216,216,216); opacity:0.39" />
<line x1="404.00" y1="0.00" x2="183.68" y2="500.00" style="stroke:rgb(174,174,174); opacity:0.39" />
<line x1="405.00" y1="0.00" x2="80.66" y2="500.00" style="stroke:rgb(130,130,130); opacity:0.39" />
<line x1="406.00" y1="0.00" x2="240.53" y2="500.00" style="stroke:rgb(47,47,47); opacity:0.39" />
<line x1="407.00" y1="0.00" x2="203.83" y2="500.00" style="stroke:rgb(199,199,199); opacity:0.39" />
<line x1="408.00" y1="0.00" x2="408.96" y2="500.00" style="stroke:rgb(198,198,198); opacity:0.39" />
<line x1="409.00" y1="0.00" x2="229.56" y2="500.00" style="stroke:rgb(25,25,25); opacity:0.39" />
<line x1="410.00" y1="0.00" x2="65.36" y2="500.00" style="stroke:rgb(140,140,140); opacity:0.39" />
<line x1="411.00" y1="0.00" x2="193.69" y2="500.00" style="stroke:rgb(118,118,118); opacity:0.39" />
<line x1="412.00" y1="0.00" x2="291.66" y2="500.00" style="stroke:rgb(92,92,92); opacity:0.39" />
<line x1="413.00" y1="0.00" x2="446.32" y2="500.00" style="stroke:rgb(27,27,27); opacity:0.39" />
<line x1="414.00" y1="0.00" x2="421.21" y2="500.00" style="stroke:rgb(130,130,130); opacity:0.39" />
<line x1="415.00" y1="0.00" x2="463.73" y2="500.00" style="stroke:rgb(206,206,206); opacity:0.39" />
<line x1="416.00" y1="0.00" x2="346.49" y2="500.00" style="stroke:rgb(117,117,117); opacity:0.39" />
<line x1="417.00" y1="0.00" x2="132.66" y2="500.00" style="stroke:rgb(96,96,96); opacity:0.39" />
<line x1="418.00" y1="0.00" x2="92.94" y2="500.00" style="stroke:rgb(236,236,236); opacity:0.39" />
<line x1="419.00" y1="0.00" x2="303.19" y2="500.00" style="stroke:rgb(49,49,49); opacity:0.39" />
<line x1="420.00" y1="0.00" x2="299.56" y2="500.00" style="stroke:rgb(82,82,82); opacity:0.39" />
<line x1="421.00" y1="0.00" x2="405.08" y2="500.00" style="stroke:rgb(39,39,39); opacity:0.39" />
<line x1="422.00" y1="0.00" x2="263.99" y2="500.00" style="stroke:rgb(111,111,111); opacity:0.39" />
<line x1="423.00" y1="0.00" x2="133.35" y2="500.00" style="stroke:rgb(19,19,19); opacity:0.39" />
<line x1="424.00" y1="0.00" x2="367.67" y2="500.00" style="stroke:rgb(15,15,15); opacity:0.39" />
<line x1="425.00" y1="0.00" x2="43.18" y2="500.00" style="stroke:rgb(134,134,134); opacity:0.39" />
<line x1="426.00" y1="0.00" x2="129.80" y2="500.00" style="stroke:rgb(82,82,82); opacity:0.39" />
<line x1="427.00" y1="0.00" x2="152.10" y2="500.00" style="stroke:rgb(15,15,15); opacity:0.39" />
<line x1="428.00" y1="0.00" x2="26.39" y2="500.00" style="stroke:rgb(74,74,74); opacity:0.39" />
<line x1="429.00" y1="0.00" x2="444.83" y2="500.00" style="stroke:rgb(97,97,97); opacity:0.39" />
<line x1="430.00" y1="0.00" x2="130.02" y2="500.00" style="stroke:rgb(229,229,229); opacity:0.39" />
<line x1="431.00" y1="0.00" x2="354.48" y2="500.00" style="stroke:rgb(207,207,207); opacity:0.39" />
<line x1="432.00" y1="0.00" x2="52.43" y2="500.00" style="stroke:rgb(106,106,106); opacity:0.39" />
<line x1="433.00" y1="0.00" x2="186.76" y2="500.00" style="stroke:rgb(163,163,163); opacity:0.39" />
<line x1="434.00" y1="0.00" x2="422.40" y2="500.00" style="stroke:rgb(96,96,96); opacity:0.39" />
<line x1="435.00" y1="0.00" x2="175.67" y2="500.00" style="stroke:rgb(33,33,33); opacity:0.39" />
<line x1="436.00" y1="0.00" x2="214.06" y2="500.00" style="stroke:rgb(142,142,142); opacity:0.39" />
<line x1="437.00" y1="0.00" x2="242.70" y2="500.00" style="stroke:rgb(199,199,199); opacity:0.39" />
<line x1="438.00" y1="0.00" x2="3.32" y2="500.00" style="stroke:rgb(63,63,63); opacity:0.39" />
<line x1="439.00" y1="0.00" x2="50.79" y2="500.00" style="stroke:rgb(39,39,39); opacity:0.39" />
<line x1="440.00" y1="0.00" x2="5.92" y2="500.00" style="stroke:rgb(16,16,16); opacity:0.39" />
<line x1="441.00" y1="0.00" x2="16.56" y2="500.00" style="stroke:rgb(158,158,158); opacity:0.39" />
<line x1="442.00" y1="0.00" x2="337.34" y2="500.00" style="stroke:rgb(247,247,247); opacity:0.39" />
<line x1="443.00" y1="0.00" x2="482.59" y2="500.00" style="stroke:rgb(130,130,130); opacity:0.39" />
<line x1="444.00" y1="0.00" x2="35.05" y2="500.00" style="stroke:rgb(238,238,238); opacity:0.39" />
<line x1="445.00" y1="0.00" x2="321.35" y2="500.00" style="stroke:rgb(134,134,134); opacity:0.39" />
<line x1="446.00" y1="0.00" x2="382.21" y2="500.00" style="stroke:rgb(64,64,64); opacity:0.39" />
<line x1="447.00" y1="0.00" x2="2.07" y2="500.00" style="stroke:rgb(0,0,0); opacity:0.39" />
<line x1="448.00" y1="0.00" x2="408.79" y2="500.00" style="stroke:rgb(49,49,49); opacity:0.39" />
<line x1="449.00" y1="0.00" x2="268.52" y2="500.00" style="stroke:rgb(129,129,129); opacity:0.39" />
<line x1="450.00" y1="0.00" x2="274.27" y2="500.00" style="stroke:rgb(90,90,90); opacity:0.39" />
<line x1="451.00" y1="0.00" x2="160.86" y2="500.00" style="stroke:rgb(157,157,157); opacity:0.39" />
<line x1="452.00" y1="0.00" x2="287.55" y2="500.00" style="stroke:rgb(13,13,13); opacity:0.39" />
<line x1="453.00" y1="0.00" x2="242.20" y2="500.00" style="stroke:rgb(206,206,206); opacity:0.39" />
<line x1="454.00" y1="0.00" x2="108.10" y2="500.00" style="stroke:rgb(1,1,1); opacity:0.39" />
<line x1="455.00" y1="0.00" x2="83.00" y2="500.00" style="stroke:rgb(203,203,203); opacity:0.39" />
<line x1="456.00" y1="0.00" x2="317.52" y2="500.00" style="stroke:rgb(127,127,127); opacity:0.39" />
<line x1="457.00" y1="0.00" x2="87.13" y2="500.00" style="stroke:rgb(145,145,145); opacity:0.39" />
<line x1="458.00" y1="0.00" x2="436.18" y2="500.00" style="stroke:rgb(116,116,116); opacity:0.39" />
<line x1="459.00" y1="0.00" x2="165.39" y2="500.00" style="stroke:rgb(94,94,94); opacity:0.39" />
<line x1="460.00" y1="0.00" x2="85.39" y2="500.00" style="stroke:rgb(2,2,2); opacity:0.39" />
<line x1="461.00" y1="0.00" x2="347.42" y2="500.00" style="stroke:rgb(166,166,166); opacity:0.39" />
<line x1="462.00" y1="0.00" x2="17.73" y2="500.00" style="stroke:rgb(163,163,163); opacity:0.39" />
<line x1="463.00" y1="0.00" x2="292.96" y2="500.00" style="stroke:rgb(15,15,15); opacity:0.39" />
<line x1="464.00" y1="0.00" x2="59.57" y2="500.00" style="stroke:rgb(65,65,65); opacity:0.39" />
<line x1="465.00" y1="0.00" x2="306.86" y2="500.00" style="stroke:rgb(127,127,127); opacity:0.39" />
<line x1="466.00" y1="0.00" x2="95.37" y2="500.00" style="stroke:rgb(93,93,93); opacity:0.39" />
<line x1="467.00" y1="0.00" x2="105.52" y2="500.00" style="stroke:rgb(71,71,71); opacity:0.39" />
<line x1="468.00" y1="0.00" x2="150.68" y2="500.00" style="stroke:rgb(14,14,14); opacity:0.39" />
<line x1="469.00" y1="0.00" x2="166.40" y2="500.00" style="stroke:rgb(176,176,176); opacity:0.39" />
<line x1="470.00" y1="0.00" x2="18.11" y2="500.00" style="stroke:rgb(81,81,81); opacity:0.39" />
<line x1="471.00" y1="0.00" x2="252.83" y2="500.00" style="stroke:rgb(38,38,38); opacity:0.39" />
<line x1="472.00" y1="0.00" x2="198.22" y2="500.00" style="stroke:rgb(91,91,91); opacity:0.39" />
<line x1="473.00" y1="0.00" x2="138.42" y2="500.00" style="stroke:rgb(224,224,224); opacity:0.39" />
<line x1="474.00" y1="0.00" x2="54.76" y2="500.00" style="stroke:rgb(20,20,20); opacity:0.39" />
<line x1="475.00" y1="0.00" x2="79.66" y2="500.00" style="stroke:rgb(93,93,93); opacity:0.39" />
<line x1="476.00" y1="0.00" x2="114.32" y2="500.00" style="stroke:rgb(191,191,191); opacity:0.39" />
<line x1="477.00" y1="0.00" x2="88.31" y2="500.00" style="stroke:rgb(136,136,136); opacity:0.39" />
<line x1="478.00" y1="0.00" x2="83.97" y2="500.00" style="stroke:rgb(104,104,104); opacity:0.39" />
<line x1="479.00" y1="0.00" x2="203.88" y2="500.00" style="stroke:rgb(246,246,246); opacity:0.39" />
<line x1="480.00" y1="0.00" x2="85.33" y2="500.00" style="stroke:rgb(184,184,184); opacity:0.39" />
<line x1="481.00" y1="0.00" x2="375.44" y2="500.00" style="stroke:rgb(76,76,76); opacity:0.39" />
<line x1="482.00" y1="0.00" x2="81.86" y2="500.00" style="stroke:rgb(229,229,229); opacity:0.39" />
<line x1="483.00" y1="0.00" x2="369.56" y2="500.00" style="stroke:rgb(53,53,53); opacity:0.39" />
<line x1="484.00" y1="0.00" x2="206.09" y2="500.00" style="stroke:rgb(238,238,238); opacity:0.39" />
<line x1="485.00" y1="0.00" x2="214.13" y2="500.00" style="stroke:rgb(235,235,235); opacity:0.39" />
<line x1="486.00" y1="0.00" x2="322.68" y2="500.00" style="stroke:rgb(43,43,43); opacity:0.39" />
<line x1="487.00" y1="0.00" x2="231.94" y2="500.00" style="stroke:rgb(49,49,49); opacity:0.39" />
<line x1="488.00" y1="0.00" x2="83.35" y2="500.00" style="stroke:rgb(78,78,78); opacity:0.39" />
<line x1="489.00" y1="0.00" x2="270.64" y2="500.00" style="stroke:rgb(45,45,45); opacity:0.39" />
<line x1="490.00" y1="0.00" x2="123.61" y2="500.00" style="stroke:rgb(254,254,254); opacity:0.39" />
<line x1="491.00" y1="0.00" x2="260.83" y2="500.00" style="stroke:rgb(224,224,224); opacity:0.39" />
<line x1="492.00" y1="0.00" x2="363.61" y2="500.00" style="stroke:rgb(155,155,155); opacity:0.39" />
<line x1="493.00" y1="0.00" x2="456.22" y2="500.00" style="stroke:rgb(171,171,171); opacity:0.39" />
<line x1="494.00" y1="0.00" x2="234.69" y2="500.00" style="stroke:rgb(90,90,90); opacity:0.39" />
<line x1="495.00" y1="0.00" x2="421.88" y2="500.00" style="stroke:rgb(117,117,117); opacity:0.39" />
<line x1="496.00" y1="0.00" x2="356.36" y2="500.00" style="stroke:rgb(182,182,182); opacity:0.39" />
<line x1="497.00" y1="0.00" x2="496.82" y2="500.00" style="stroke:rgb(233,233,233); opacity:0.39" />
<line x1="498.00" y1="0.00" x2="321.20" y2="500.00" style="stroke:rgb(68,68,68); opacity:0.39" />
<line x1="499.00" y1="0.00" x2="131.91" y2="500.00" style="stroke:rgb(232,232,232); opacity:0.39" />
</g>
</svg>
