<?xml version="1.0"?>
<!-- Generated by gensvg -->
<svg width="500.00" height="500.00"
     xmlns="http://www.w3.org/2000/svg"
     xmlns:xlink="http://www.w3.org/1999/xlink">
<rect x="0.00" y="0.00" width="500.00" height="500.00" style="fill:rgb(240,240,240)" />
<g transform="translate(0.00,20.00)">
<rect x="80.00" y="0.00" width="360.00" height="120.00" style="fill:white;stroke:gray" />
<g transform="translate(0.00,-380.00)">
<circle cx="80.00" cy="440.00" r="2.00" />
</g>
<g transform="translate(0.00,-380.00)">
<circle cx="83.00" cy="430.61" r="2.00" />
</g>
<g transform="translate(0.00,-380.00)">
<circle cx="86.00" cy="421.46" r="2.00" />
</g>
<g transform="translate(0.00,-380.00)">
<circle cx="89.00" cy="412.76" r="2.00" />
</g>
<g transform="translate(0.00,-380.00)">
<circle cx="92.00" cy="404.73" r="2.00" />
</g>
<g transform="translate(0.00,-380.00)">
<circle cx="95.00" cy="397.57" r="2.00" />
</g>
<g transform="translate(0.00,-380.00)">
<circle cx="98.00" cy="391.46" r="2.00" />
</g>
<g transform="translate(0.00,-380.00)">
<circle cx="101.00" cy="386.54" r="2.00" />
</g>
<g transform="translate(0.00,-380.00)">
<circle cx="104.00" cy="382.94" r="2.00" />
</g>
<g transform="translate(0.00,-380.00)">
<circle cx="107.00" cy="380.74" r="2.00" />
</g>
<g transform="translate(0.00,-380.00)">
<circle cx="110.00" cy="380.00" r="2.00" />
</g>
<g transform="translate(0.00,-380.00)">
<circle cx="113.00" cy="380.74" r="2.00" />
</g>
<g transform="translate(0.00,-380.00)">
<circle cx="116.00" cy="382.94" r="2.00" />
</g>
<g transform="translate(0.00,-380.00)">
<circle cx="119.00" cy="386.54" r="2.00" />
</g>
<g transform="translate(0.00,-380.00)">
<circle cx="122.00" cy="391.46" r="2.00" />
</g>
<g transform="translate(0.00,-380.00)">
<circle cx="125.00" cy="397.57" r="2.00" />
</g>
<g transform="translate(0.00,-380.00)">
<circle cx="128.00" cy="404.73" r="2.00" />
</g>
<g transform="translate(0.00,-380.00)">
<circle cx="131.00" cy="412.76" r="2.00" />
</g>
<g transform="translate(0.00,-380.00)">
<circle cx="134.00" cy="421.46" r="2.00" />
</g>
<g transform="translate(0.00,-380.00)">
<circle cx="137.00" cy="430.61" r="2.00" />
</g>
<g transform="translate(0.00,-380.00)">
<circle cx="140.00" cy="440.00" r="2.00" />
</g>
<g transform="translate(0.00,-380.00)">
<circle cx="143.00" cy="449.39" r="2.00" />
</g>
<g transform="translate(0.00,-380.00)">
<circle cx="146.00" cy="458.54" r="2.00" />
</g>
<g transform="translate(0.00,-380.00)">
<circle cx="149.00" cy="467.24" r="2.00" />
</g>
<g transform="translate(0.00,-380.00)">
<circle cx="152.00" cy="475.27" r="2.00" />
</g>
<g transform="translate(0.00,-380.00)">
<circle cx="155.00" cy="482.43" r="2.00" />
</g>
<g transform="translate(0.00,-380.00)">
<circle cx="158.00" cy="488.54" r="2.00" />
</g>
<g transform="translate(0.00,-380.00)">
<circle cx="161.00" cy="493.46" r="2.00" />
</g>
<g transform="translate(0.00,-380.00)">
<circle cx="164.00" cy="497.06" r="2.00" />
</g>
<g transform="translate(0.00,-380.00)">
<circle cx="167.00" cy="499.26" r="2.00" />
</g>
<g transform="translate(0.00,-380.00)">
<circle cx="170.00" cy="500.00" r="2.00" />
</g>
<g transform="translate(0.00,-380.00)">
<circle cx="173.00" cy="499.26" r="2.00" />
</g>
<g transform="translate(0.00,-380.00)">
<circle cx="176.00" cy="497.06" r="2.00" />
</g>
<g transform="translate(0.00,-380.00)">
<circle cx="179.00" cy="493.46" r="2.00" />
</g>
<g transform="translate(0.00,-380.00)">
<circle cx="182.00" cy="488.54" r="2.00" />
</g>
<g transform="translate(0.00,-380.00)">
<circle cx="185.00" cy="482.43" r="2.00" />
</g>
<g transform="translate(0.00,-380.00)">
<circle cx="188.00" cy="475.27" r="2.00" />
</g>
<g transform="translate(0.00,-380.00)">
<circle cx="191.00" cy="467.24" r="2.00" />
</g>
<g transform="translate(0.00,-380.00)">
<circle cx="194.00" cy="458.54" r="2.00" />
</g>
<g transform="translate(0.00,-380.00)">
<circle cx="197.00" cy="449.39" r="2.00" />
</g>
<g transform="translate(0.00,-380.00)">
<circle cx="200.00" cy="440.00" r="2.00" />
</g>
<g transform="translate(0.00,-380.00)">
<circle cx="203.00" cy="430.61" r="2.00" />
</g>
<g transform="translate(0.00,-380.00)">
<circle cx="206.00" cy="421.46" r="2.00" />
</g>
<g transform="translate(0.00,-380.00)">
<circle cx="209.00" cy="412.76" r="2.00" />
</g>
<g transform="translate(0.00,-380.00)">
<circle cx="212.00" cy="404.73" r="2.00" />
</g>
<g transform="translate(0.00,-380.00)">
<circle cx="215.00" cy="397.57" r="2.00" />
</g>
<g transform="translate(0.00,-380.00)">
<circle cx="218.00" cy="391.46" r="2.00" />
</g>
<g transform="translate(0.00,-380.00)">
<circle cx="221.00" cy="386.54" r="2.00" />
</g>
<g transform="translate(0.00,-380.00)">
<circle cx="224.00" cy="382.94" r="2.00" />
</g>
<g transform="translate(0.00,-380.00)">
<circle cx="227.00" cy="380.74" r="2.00" />
</g>
<g transform="translate(0.00,-380.00)">
<circle cx="230.00" cy="380.00" r="2.00" />
</g>
<g transform="translate(0.00,-380.00)">
<circle cx="233.00" cy="380.74" r="2.00" />
</g>
<g transform="translate(0.00,-380.00)">
<circle cx="236.00" cy="382.94" r="2.00" />
</g>
<g transform="translate(0.00,-380.00)">
<circle cx="239.00" cy="386.54" r="2.00" />
</g>
<g transform="translate(0.00,-380.00)">
<circle cx="242.00" cy="391.46" r="2.00" />
</g>
<g transform="translate(0.00,-380.00)">
<circle cx="245.00" cy="397.57" r="2.00" />
</g>
<g transform="translate(0.00,-380.00)">
<circle cx="248.00" cy="404.73" r="2.00" />
</g>
<g transform="translate(0.00,-380.00)">
<circle cx="251.00" cy="412.76" r="2.00" />
</g>
<g transform="translate(0.00,-380.00)">
<circle cx="254.00" cy="421.46" r="2.00" />
</g>
<g transform="translate(0.00,-380.00)">
<circle cx="257.00" cy="430.61" r="2.00" />
</g>
<g transform="translate(0.00,-380.00)">
<circle cx="260.00" cy="440.00" r="2.00" />
</g>
<g transform="translate(0.00,-380.00)">
<circle cx="263.00" cy="449.39" r="2.00" />
</g>
<g transform="translate(0.00,-380.00)">
<circle cx="266.00" cy="458.54" r="2.00" />
</g>
<g transform="translate(0.00,-380.00)">
<circle cx="269.00" cy="467.24" r="2.00" />
</g>
<g transform="translate(0.00,-380.00)">
<circle cx="272.00" cy="475.27" r="2.00" />
</g>
<g transform="translate(0.00,-380.00)">
<circle cx="275.00" cy="482.43" r="2.00" />
</g>
<g transform="translate(0.00,-380.00)">
<circle cx="278.00" cy="488.54" r="2.00" />
</g>
<g transform="translate(0.00,-380.00)">
<circle cx="281.00" cy="493.46" r="2.00" />
</g>
<g transform="translate(0.00,-380.00)">
<circle cx="284.00" cy="497.06" r="2.00" />
</g>
<g transform="translate(0.00,-380.00)">
<circle cx="287.00" cy="499.26" r="2.00" />
</g>
<g transform="translate(0.00,-380.00)">
<circle cx="290.00" cy="500.00" r="2.00" />
</g>
<g transform="translate(0.00,-380.00)">
<circle cx="293.00" cy="499.26" r="2.00" />
</g>
<g transform="translate(0.00,-380.00)">
<circle cx="296.00" cy="497.06" r="2.00" />
</g>
<g transform="translate(0.00,-380.00)">
<circle cx="299.00" cy="493.46" r="2.00" />
</g>
<g transform="translate(0.00,-380.00)">
<circle cx="302.00" cy="488.54" r="2.00" />
</g>
<g transform="translate(0.00,-380.00)">
<circle cx="305.00" cy="482.43" r="2.00" />
</g>
<g transform="translate(0.00,-380.00)">
<circle cx="308.00" cy="475.27" r="2.00" />
</g>
<g transform="translate(0.00,-380.00)">
<circle cx="311.00" cy="467.24" r="2.00" />
</g>
<g transform="translate(0.00,-380.00)">
<circle cx="314.00" cy="458.54" r="2.00" />
</g>
<g transform="translate(0.00,-380.00)">
<circle cx="317.00" cy="449.39" r="2.00" />
</g>
<g transform="translate(0.00,-380.00)">
<circle cx="320.00" cy="440.00" r="2.00" />
</g>
<g transform="translate(0.00,-380.00)">
<circle cx="323.00" cy="430.61" r="2.00" />
</g>
<g transform="translate(0.00,-380.00)">
<circle cx="326.00" cy="421.46" r="2.00" />
</g>
<g transform="translate(0.00,-380.00)">
<circle cx="329.00" cy="412.76" r="2.00" />
</g>
<g transform="translate(0.00,-380.00)">
<circle cx="332.00" cy="404.73" r="2.00" />
</g>
<g transform="translate(0.00,-380.00)">
<circle cx="335.00" cy="397.57" r="2.00" />
</g>
<g transform="translate(0.00,-380.00)">
<circle cx="338.00" cy="391.46" r="2.00" />
</g>
<g transform="translate(0.00,-380.00)">
<circle cx="341.00" cy="386.54" r="2.00" />
</g>
<g transform="translate(0.00,-380.00)">
<circle cx="344.00" cy="382.94" r="2.00" />
</g>
<g transform="translate(0.00,-380.00)">
<circle cx="347.00" cy="380.74" r="2.00" />
</g>
<g transform="translate(0.00,-380.00)">
<circle cx="350.00" cy="380.00" r="2.00" />
</g>
<g transform="translate(0.00,-380.00)">
<circle cx="353.00" cy="380.74" r="2.00" />
</g>
<g transform="translate(0.00,-380.00)">
<circle cx="356.00" cy="382.94" r="2.00" />
</g>
<g transform="translate(0.00,-380.00)">
<circle cx="359.00" cy="386.54" r="2.00" />
</g>
<g transform="translate(0.00,-380.00)">
<circle cx="362.00" cy="391.46" r="2.00" />
</g>
<g transform="translate(0.00,-380.00)">
<circle cx="365.00" cy="397.57" r="2.00" />
</g>
<g transform="translate(0.00,-380.00)">
<circle cx="368.00" cy="404.73" r="2.00" />
</g>
<g transform="translate(0.00,-380.00)">
<circle cx="371.00" cy="412.76" r="2.00" />
</g>
<g transform="translate(0.00,-380.00)">
<circle cx="374.00" cy="421.46" r="2.00" />
</g>
<g transform="translate(0.00,-380.00)">
<circle cx="377.00" cy="430.61" r="2.00" />
</g>
<g transform="translate(0.00,-380.00)">
<circle cx="380.00" cy="440.00" r="2.00" />
</g>
<g transform="translate(0.00,-380.00)">
<circle cx="383.00" cy="449.39" r="2.00" />
</g>
<g transform="translate(0.00,-380.00)">
<circle cx="386.00" cy="458.54" r="2.00" />
</g>
<g transform="translate(0.00,-380.00)">
<circle cx="389.00" cy="467.24" r="2.00" />
</g>
<g transform="translate(0.00,-380.00)">
<circle cx="392.00" cy="475.27" r="2.00" />
</g>
<g transform="translate(0.00,-380.00)">
<circle cx="395.00" cy="482.43" r="2.00" />
</g>
<g transform="translate(0.00,-380.00)">
<circle cx="398.00" cy="488.54" r="2.00" />
</g>
<g transform="translate(0.00,-380.00)">
<circle cx="401.00" cy="493.46" r="2.00" />
</g>
<g transform="translate(0.00,-380.00)">
<circle cx="404.00" cy="497.06" r="2.00" />
</g>
<g transform="translate(0.00,-380.00)">
<circle cx="407.00" cy="499.26" r="2.00" />
</g>
<g transform="translate(0.00,-380.00)">
<circle cx="410.00" cy="500.00" r="2.00" />
</g>
<g transform="translate(0.00,-380.00)">
<circle cx="413.00" cy="499.26" r="2.00" />
</g>
<g transform="translate(0.00,-380.00)">
<circle cx="416.00" cy="497.06" r="2.00" />
</g>
<g transform="translate(0.00,-380.00)">
<circle cx="419.00" cy="493.46" r="2.00" />
</g>
<g transform="translate(0.00,-380.00)">
<circle cx="422.00" cy="488.54" r="2.00" />
</g>
<g transform="translate(0.00,-380.00)">
<circle cx="425.00" cy="482.43" r="2.00" />
</g>
<g transform="translate(0.00,-380.00)">
<circle cx="428.00" cy="475.27" r="2.00" />
</g>
<g transform="translate(0.00,-380.00)">
<circle cx="431.00" cy="467.24" r="2.00" />
</g>
<g transform="translate(0.00,-380.00)">
<circle cx="434.00" cy="458.54" r="2.00" />
</g>
<g transform="translate(0.00,-380.00)">
<circle cx="437.00" cy="449.39" r="2.00" />
</g>
</g>
<g transform="translate(0.00,180.00)">
<rect x="80.00" y="0.00" width="360.00" height="120.00" style="fill:white;stroke:gray" />
<g transform="translate(0.00,-380.00)">
<circle cx="80.00" cy="380.00" r="2.00" style="fill:red" />
</g>
<g transform="translate(0.00,-380.00)">
<circle cx="81.50" cy="380.74" r="2.00" style="fill:red" />
</g>
<g transform="translate(0.00,-380.00)">
<circle cx="83.00" cy="382.94" r="2.00" style="fill:red" />
</g>
<g transform="translate(0.00,-380.00)">
<circle cx="84.50" cy="386.54" r="2.00" style="fill:red" />
</g>
<g transform="translate(0.00,-380.00)">
<circle cx="86.00" cy="391.46" r="2.00" style="fill:red" />
</g>
<g transform="translate(0.00,-380.00)">
<circle cx="87.50" cy="397.57" r="2.00" style="fill:red" />
</g>
<g transform="translate(0.00,-380.00)">
<circle cx="89.00" cy="404.73" r="2.00" style="fill:red" />
</g>
<g transform="translate(0.00,-380.00)">
<circle cx="90.50" cy="412.76" r="2.00" style="fill:red" />
</g>
<g transform="translate(0.00,-380.00)">
<circle cx="92.00" cy="421.46" r="2.00" style="fill:red" />
</g>
<g transform="translate(0.00,-380.00)">
<circle cx="93.50" cy="430.61" r="2.00" style="fill:red" />
</g>
<g transform="translate(0.00,-380.00)">
<circle cx="95.00" cy="440.00" r="2.00" style="fill:red" />
</g>
<g transform="translate(0.00,-380.00)">
<circle cx="96.50" cy="449.39" r="2.00" style="fill:red" />
</g>
<g transform="translate(0.00,-380.00)">
<circle cx="98.00" cy="458.54" r="2.00" style="fill:red" />
</g>
<g transform="translate(0.00,-380.00)">
<circle cx="99.50" cy="467.24" r="2.00" style="fill:red" />
</g>
<g transform="translate(0.00,-380.00)">
<circle cx="101.00" cy="475.27" r="2.00" style="fill:red" />
</g>
<g transform="translate(0.00,-380.00)">
<circle cx="102.50" cy="482.43" r="2.00" style="fill:red" />
</g>
<g transform="translate(0.00,-380.00)">
<circle cx="104.00" cy="488.54" r="2.00" style="fill:red" />
</g>
<g transform="translate(0.00,-380.00)">
<circle cx="105.50" cy="493.46" r="2.00" style="fill:red" />
</g>
<g transform="translate(0.00,-380.00)">
<circle cx="107.00" cy="497.06" r="2.00" style="fill:red" />
</g>
<g transform="translate(0.00,-380.00)">
<circle cx="108.50" cy="499.26" r="2.00" style="fill:red" />
</g>
<g transform="translate(0.00,-380.00)">
<circle cx="110.00" cy="500.00" r="2.00" style="fill:red" />
</g>
<g transform="translate(0.00,-380.00)">
<circle cx="111.50" cy="499.26" r="2.00" style="fill:red" />
</g>
<g transform="translate(0.00,-380.00)">
<circle cx="113.00" cy="497.06" r="2.00" style="fill:red" />
</g>
<g transform="translate(0.00,-380.00)">
<circle cx="114.50" cy="493.46" r="2.00" style="fill:red" />
</g>
<g transform="translate(0.00,-380.00)">
<circle cx="116.00" cy="488.54" r="2.00" style="fill:red" />
</g>
<g transform="translate(0.00,-380.00)">
<circle cx="117.50" cy="482.43" r="2.00" style="fill:red" />
</g>
<g transform="translate(0.00,-380.00)">
<circle cx="119.00" cy="475.27" r="2.00" style="fill:red" />
</g>
<g transform="translate(0.00,-380.00)">
<circle cx="120.50" cy="467.24" r="2.00" style="fill:red" />
</g>
<g transform="translate(0.00,-380.00)">
<circle cx="122.00" cy="458.54" r="2.00" style="fill:red" />
</g>
<g transform="translate(0.00,-380.00)">
<circle cx="123.50" cy="449.39" r="2.00" style="fill:red" />
</g>
<g transform="translate(0.00,-380.00)">
<circle cx="125.00" cy="440.00" r="2.00" style="fill:red" />
</g>
<g transform="translate(0.00,-380.00)">
<circle cx="126.50" cy="430.61" r="2.00" style="fill:red" />
</g>
<g transform="translate(0.00,-380.00)">
<circle cx="128.00" cy="421.46" r="2.00" style="fill:red" />
</g>
<g transform="translate(0.00,-380.00)">
<circle cx="129.50" cy="412.76" r="2.00" style="fill:red" />
</g>
<g transform="translate(0.00,-380.00)">
<circle cx="131.00" cy="404.73" r="2.00" style="fill:red" />
</g>
<g transform="translate(0.00,-380.00)">
<circle cx="132.50" cy="397.57" r="2.00" style="fill:red" />
</g>
<g transform="translate(0.00,-380.00)">
<circle cx="134.00" cy="391.46" r="2.00" style="fill:red" />
</g>
<g transform="translate(0.00,-380.00)">
<circle cx="135.50" cy="386.54" r="2.00" style="fill:red" />
</g>
<g transform="translate(0.00,-380.00)">
<circle cx="137.00" cy="382.94" r="2.00" style="fill:red" />
</g>
<g transform="translate(0.00,-380.00)">
<circle cx="138.50" cy="380.74" r="2.00" style="fill:red" />
</g>
<g transform="translate(0.00,-380.00)">
<circle cx="140.00" cy="380.00" r="2.00" style="fill:red" />
</g>
<g transform="translate(0.00,-380.00)">
<circle cx="141.50" cy="380.74" r="2.00" style="fill:red" />
</g>
<g transform="translate(0.00,-380.00)">
<circle cx="143.00" cy="382.94" r="2.00" style="fill:red" />
</g>
<g transform="translate(0.00,-380.00)">
<circle cx="144.50" cy="386.54" r="2.00" style="fill:red" />
</g>
<g transform="translate(0.00,-380.00)">
<circle cx="146.00" cy="391.46" r="2.00" style="fill:red" />
</g>
<g transform="translate(0.00,-380.00)">
<circle cx="147.50" cy="397.57" r="2.00" style="fill:red" />
</g>
<g transform="translate(0.00,-380.00)">
<circle cx="149.00" cy="404.73" r="2.00" style="fill:red" />
</g>
<g transform="translate(0.00,-380.00)">
<circle cx="150.50" cy="412.76" r="2.00" style="fill:red" />
</g>
<g transform="translate(0.00,-380.00)">
<circle cx="152.00" cy="421.46" r="2.00" style="fill:red" />
</g>
<g transform="translate(0.00,-380.00)">
<circle cx="153.50" cy="430.61" r="2.00" style="fill:red" />
</g>
<g transform="translate(0.00,-380.00)">
<circle cx="155.00" cy="440.00" r="2.00" style="fill:red" />
</g>
<g transform="translate(0.00,-380.00)">
<circle cx="156.50" cy="449.39" r="2.00" style="fill:red" />
</g>
<g transform="translate(0.00,-380.00)">
<circle cx="158.00" cy="458.54" r="2.00" style="fill:red" />
</g>
<g transform="translate(0.00,-380.00)">
<circle cx="159.50" cy="467.24" r="2.00" style="fill:red" />
</g>
<g transform="translate(0.00,-380.00)">
<circle cx="161.00" cy="475.27" r="2.00" style="fill:red" />
</g>
<g transform="translate(0.00,-380.00)">
<circle cx="162.50" cy="482.43" r="2.00" style="fill:red" />
</g>
<g transform="translate(0.00,-380.00)">
<circle cx="164.00" cy="488.54" r="2.00" style="fill:red" />
</g>
<g transform="translate(0.00,-380.00)">
<circle cx="165.50" cy="493.46" r="2.00" style="fill:red" />
</g>
<g transform="translate(0.00,-380.00)">
<circle cx="167.00" cy="497.06" r="2.00" style="fill:red" />
</g>
<g transform="translate(0.00,-380.00)">
<circle cx="168.50" cy="499.26" r="2.00" style="fill:red" />
</g>
<g transform="translate(0.00,-380.00)">
<circle cx="170.00" cy="500.00" r="2.00" style="fill:red" />
</g>
<g transform="translate(0.00,-380.00)">
<circle cx="171.50" cy="499.26" r="2.00" style="fill:red" />
</g>
<g transform="translate(0.00,-380.00)">
<circle cx="173.00" cy="497.06" r="2.00" style="fill:red" />
</g>
<g transform="translate(0.00,-380.00)">
<circle cx="174.50" cy="493.46" r="2.00" style="fill:red" />
</g>
<g transform="translate(0.00,-380.00)">
<circle cx="176.00" cy="488.54" r="2.00" style="fill:red" />
</g>
<g transform="translate(0.00,-380.00)">
<circle cx="177.50" cy="482.43" r="2.00" style="fill:red" />
</g>
<g transform="translate(0.00,-380.00)">
<circle cx="179.00" cy="475.27" r="2.00" style="fill:red" />
</g>
<g transform="translate(0.00,-380.00)">
<circle cx="180.50" cy="467.24" r="2.00" style="fill:red" />
</g>
<g transform="translate(0.00,-380.00)">
<circle cx="182.00" cy="458.54" r="2.00" style="fill:red" />
</g>
<g transform="translate(0.00,-380.00)">
<circle cx="183.50" cy="449.39" r="2.00" style="fill:red" />
</g>
<g transform="translate(0.00,-380.00)">
<circle cx="185.00" cy="440.00" r="2.00" style="fill:red" />
</g>
<g transform="translate(0.00,-380.00)">
<circle cx="186.50" cy="430.61" r="2.00" style="fill:red" />
</g>
<g transform="translate(0.00,-380.00)">
<circle cx="188.00" cy="421.46" r="2.00" style="fill:red" />
</g>
<g transform="translate(0.00,-380.00)">
<circle cx="189.50" cy="412.76" r="2.00" style="fill:red" />
</g>
<g transform="translate(0.00,-380.00)">
<circle cx="191.00" cy="404.73" r="2.00" style="fill:red" />
</g>
<g transform="translate(0.00,-380.00)">
<circle cx="192.50" cy="397.57" r="2.00" style="fill:red" />
</g>
<g transform="translate(0.00,-380.00)">
<circle cx="194.00" cy="391.46" r="2.00" style="fill:red" />
</g>
<g transform="translate(0.00,-380.00)">
<circle cx="195.50" cy="386.54" r="2.00" style="fill:red" />
</g>
<g transform="translate(0.00,-380.00)">
<circle cx="197.00" cy="382.94" r="2.00" style="fill:red" />
</g>
<g transform="translate(0.00,-380.00)">
<circle cx="198.50" cy="380.74" r="2.00" style="fill:red" />
</g>
<g transform="translate(0.00,-380.00)">
<circle cx="200.00" cy="380.00" r="2.00" style="fill:red" />
</g>
<g transform="translate(0.00,-380.00)">
<circle cx="201.50" cy="380.74" r="2.00" style="fill:red" />
</g>
<g transform="translate(0.00,-380.00)">
<circle cx="203.00" cy="382.94" r="2.00" style="fill:red" />
</g>
<g transform="translate(0.00,-380.00)">
<circle cx="204.50" cy="386.54" r="2.00" style="fill:red" />
</g>
<g transform="translate(0.00,-380.00)">
<circle cx="206.00" cy="391.46" r="2.00" style="fill:red" />
</g>
<g transform="translate(0.00,-380.00)">
<circle cx="207.50" cy="397.57" r="2.00" style="fill:red" />
</g>
<g transform="translate(0.00,-380.00)">
<circle cx="209.00" cy="404.73" r="2.00" style="fill:red" />
</g>
<g transform="translate(0.00,-380.00)">
<circle cx="210.50" cy="412.76" r="2.00" style="fill:red" />
</g>
<g transform="translate(0.00,-380.00)">
<circle cx="212.00" cy="421.46" r="2.00" style="fill:red" />
</g>
<g transform="translate(0.00,-380.00)">
<circle cx="213.50" cy="430.61" r="2.00" style="fill:red" />
</g>
<g transform="translate(0.00,-380.00)">
<circle cx="215.00" cy="440.00" r="2.00" style="fill:red" />
</g>
<g transform="translate(0.00,-380.00)">
<circle cx="216.50" cy="449.39" r="2.00" style="fill:red" />
</g>
<g transform="translate(0.00,-380.00)">
<circle cx="218.00" cy="458.54" r="2.00" style="fill:red" />
</g>
<g transform="translate(0.00,-380.00)">
<circle cx="219.50" cy="467.24" r="2.00" style="fill:red" />
</g>
<g transform="translate(0.00,-380.00)">
<circle cx="221.00" cy="475.27" r="2.00" style="fill:red" />
</g>
<g transform="translate(0.00,-380.00)">
<circle cx="222.50" cy="482.43" r="2.00" style="fill:red" />
</g>
<g transform="translate(0.00,-380.00)">
<circle cx="224.00" cy="488.54" r="2.00" style="fill:red" />
</g>
<g transform="translate(0.00,-380.00)">
<circle cx="225.50" cy="493.46" r="2.00" style="fill:red" />
</g>
<g transform="translate(0.00,-380.00)">
<circle cx="227.00" cy="497.06" r="2.00" style="fill:red" />
</g>
<g transform="translate(0.00,-380.00)">
<circle cx="228.50" cy="499.26" r="2.00" style="fill:red" />
</g>
<g transform="translate(0.00,-380.00)">
<circle cx="230.00" cy="500.00" r="2.00" style="fill:red" />
</g>
<g transform="translate(0.00,-380.00)">
<circle cx="231.50" cy="499.26" r="2.00" style="fill:red" />
</g>
<g transform="translate(0.00,-380.00)">
<circle cx="233.00" cy="497.06" r="2.00" style="fill:red" />
</g>
<g transform="translate(0.00,-380.00)">
<circle cx="234.50" cy="493.46" r="2.00" style="fill:red" />
</g>
<g transform="translate(0.00,-380.00)">
<circle cx="236.00" cy="488.54" r="2.00" style="fill:red" />
</g>
<g transform="translate(0.00,-380.00)">
<circle cx="237.50" cy="482.43" r="2.00" style="fill:red" />
</g>
<g transform="translate(0.00,-380.00)">
<circle cx="239.00" cy="475.27" r="2.00" style="fill:red" />
</g>
<g transform="translate(0.00,-380.00)">
<circle cx="240.50" cy="467.24" r="2.00" style="fill:red" />
</g>
<g transform="translate(0.00,-380.00)">
<circle cx="242.00" cy="458.54" r="2.00" style="fill:red" />
</g>
<g transform="translate(0.00,-380.00)">
<circle cx="243.50" cy="449.39" r="2.00" style="fill:red" />
</g>
<g transform="translate(0.00,-380.00)">
<circle cx="245.00" cy="440.00" r="2.00" style="fill:red" />
</g>
<g transform="translate(0.00,-380.00)">
<circle cx="246.50" cy="430.61" r="2.00" style="fill:red" />
</g>
<g transform="translate(0.00,-380.00)">
<circle cx="248.00" cy="421.46" r="2.00" style="fill:red" />
</g>
<g transform="translate(0.00,-380.00)">
<circle cx="249.50" cy="412.76" r="2.00" style="fill:red" />
</g>
<g transform="translate(0.00,-380.00)">
<circle cx="251.00" cy="404.73" r="2.00" style="fill:red" />
</g>
<g transform="translate(0.00,-380.00)">
<circle cx="252.50" cy="397.57" r="2.00" style="fill:red" />
</g>
<g transform="translate(0.00,-380.00)">
<circle cx="254.00" cy="391.46" r="2.00" style="fill:red" />
</g>
<g transform="translate(0.00,-380.00)">
<circle cx="255.50" cy="386.54" r="2.00" style="fill:red" />
</g>
<g transform="translate(0.00,-380.00)">
<circle cx="257.00" cy="382.94" r="2.00" style="fill:red" />
</g>
<g transform="translate(0.00,-380.00)">
<circle cx="258.50" cy="380.74" r="2.00" style="fill:red" />
</g>
<g transform="translate(0.00,-380.00)">
<circle cx="260.00" cy="380.00" r="2.00" style="fill:red" />
</g>
<g transform="translate(0.00,-380.00)">
<circle cx="261.50" cy="380.74" r="2.00" style="fill:red" />
</g>
<g transform="translate(0.00,-380.00)">
<circle cx="263.00" cy="382.94" r="2.00" style="fill:red" />
</g>
<g transform="translate(0.00,-380.00)">
<circle cx="264.50" cy="386.54" r="2.00" style="fill:red" />
</g>
<g transform="translate(0.00,-380.00)">
<circle cx="266.00" cy="391.46" r="2.00" style="fill:red" />
</g>
<g transform="translate(0.00,-380.00)">
<circle cx="267.50" cy="397.57" r="2.00" style="fill:red" />
</g>
<g transform="translate(0.00,-380.00)">
<circle cx="269.00" cy="404.73" r="2.00" style="fill:red" />
</g>
<g transform="translate(0.00,-380.00)">
<circle cx="270.50" cy="412.76" r="2.00" style="fill:red" />
</g>
<g transform="translate(0.00,-380.00)">
<circle cx="272.00" cy="421.46" r="2.00" style="fill:red" />
</g>
<g transform="translate(0.00,-380.00)">
<circle cx="273.50" cy="430.61" r="2.00" style="fill:red" />
</g>
<g transform="translate(0.00,-380.00)">
<circle cx="275.00" cy="440.00" r="2.00" style="fill:red" />
</g>
<g transform="translate(0.00,-380.00)">
<circle cx="276.50" cy="449.39" r="2.00" style="fill:red" />
</g>
<g transform="translate(0.00,-380.00)">
<circle cx="278.00" cy="458.54" r="2.00" style="fill:red" />
</g>
<g transform="translate(0.00,-380.00)">
<circle cx="279.50" cy="467.24" r="2.00" style="fill:red" />
</g>
<g transform="translate(0.00,-380.00)">
<circle cx="281.00" cy="475.27" r="2.00" style="fill:red" />
</g>
<g transform="translate(0.00,-380.00)">
<circle cx="282.50" cy="482.43" r="2.00" style="fill:red" />
</g>
<g transform="translate(0.00,-380.00)">
<circle cx="284.00" cy="488.54" r="2.00" style="fill:red" />
</g>
<g transform="translate(0.00,-380.00)">
<circle cx="285.50" cy="493.46" r="2.00" style="fill:red" />
</g>
<g transform="translate(0.00,-380.00)">
<circle cx="287.00" cy="497.06" r="2.00" style="fill:red" />
</g>
<g transform="translate(0.00,-380.00)">
<circle cx="288.50" cy="499.26" r="2.00" style="fill:red" />
</g>
<g transform="translate(0.00,-380.00)">
<circle cx="290.00" cy="500.00" r="2.00" style="fill:red" />
</g>
<g transform="translate(0.00,-380.00)">
<circle cx="291.50" cy="499.26" r="2.00" style="fill:red" />
</g>
<g transform="translate(0.00,-380.00)">
<circle cx="293.00" cy="497.06" r="2.00" style="fill:red" />
</g>
<g transform="translate(0.00,-380.00)">
<circle cx="294.50" cy="493.46" r="2.00" style="fill:red" />
</g>
<g transform="translate(0.00,-380.00)">
<circle cx="296.00" cy="488.54" r="2.00" style="fill:red" />
</g>
<g transform="translate(0.00,-380.00)">
<circle cx="297.50" cy="482.43" r="2.00" style="fill:red" />
</g>
<g transform="translate(0.00,-380.00)">
<circle cx="299.00" cy="475.27" r="2.00" style="fill:red" />
</g>
<g transform="translate(0.00,-380.00)">
<circle cx="300.50" cy="467.24" r="2.00" style="fill:red" />
</g>
<g transform="translate(0.00,-380.00)">
<circle cx="302.00" cy="458.54" r="2.00" style="fill:red" />
</g>
<g transform="translate(0.00,-380.00)">
<circle cx="303.50" cy="449.39" r="2.00" style="fill:red" />
</g>
<g transform="translate(0.00,-380.00)">
<circle cx="305.00" cy="440.00" r="2.00" style="fill:red" />
</g>
<g transform="translate(0.00,-380.00)">
<circle cx="306.50" cy="430.61" r="2.00" style="fill:red" />
</g>
<g transform="translate(0.00,-380.00)">
<circle cx="308.00" cy="421.46" r="2.00" style="fill:red" />
</g>
<g transform="translate(0.00,-380.00)">
<circle cx="309.50" cy="412.76" r="2.00" style="fill:red" />
</g>
<g transform="translate(0.00,-380.00)">
<circle cx="311.00" cy="404.73" r="2.00" style="fill:red" />
</g>
<g transform="translate(0.00,-380.00)">
<circle cx="312.50" cy="397.57" r="2.00" style="fill:red" />
</g>
<g transform="translate(0.00,-380.00)">
<circle cx="314.00" cy="391.46" r="2.00" style="fill:red" />
</g>
<g transform="translate(0.00,-380.00)">
<circle cx="315.50" cy="386.54" r="2.00" style="fill:red" />
</g>
<g transform="translate(0.00,-380.00)">
<circle cx="317.00" cy="382.94" r="2.00" style="fill:red" />
</g>
<g transform="translate(0.00,-380.00)">
<circle cx="318.50" cy="380.74" r="2.00" style="fill:red" />
</g>
<g transform="translate(0.00,-380.00)">
<circle cx="320.00" cy="380.00" r="2.00" style="fill:red" />
</g>
<g transform="translate(0.00,-380.00)">
<circle cx="321.50" cy="380.74" r="2.00" style="fill:red" />
</g>
<g transform="translate(0.00,-380.00)">
<circle cx="323.00" cy="382.94" r="2.00" style="fill:red" />
</g>
<g transform="translate(0.00,-380.00)">
<circle cx="324.50" cy="386.54" r="2.00" style="fill:red" />
</g>
<g transform="translate(0.00,-380.00)">
<circle cx="326.00" cy="391.46" r="2.00" style="fill:red" />
</g>
<g transform="translate(0.00,-380.00)">
<circle cx="327.50" cy="397.57" r="2.00" style="fill:red" />
</g>
<g transform="translate(0.00,-380.00)">
<circle cx="329.00" cy="404.73" r="2.00" style="fill:red" />
</g>
<g transform="translate(0.00,-380.00)">
<circle cx="330.50" cy="412.76" r="2.00" style="fill:red" />
</g>
<g transform="translate(0.00,-380.00)">
<circle cx="332.00" cy="421.46" r="2.00" style="fill:red" />
</g>
<g transform="translate(0.00,-380.00)">
<circle cx="333.50" cy="430.61" r="2.00" style="fill:red" />
</g>
<g transform="translate(0.00,-380.00)">
<circle cx="335.00" cy="440.00" r="2.00" style="fill:red" />
</g>
<g transform="translate(0.00,-380.00)">
<circle cx="336.50" cy="449.39" r="2.00" style="fill:red" />
</g>
<g transform="translate(0.00,-380.00)">
<circle cx="338.00" cy="458.54" r="2.00" style="fill:red" />
</g>
<g transform="translate(0.00,-380.00)">
<circle cx="339.50" cy="467.24" r="2.00" style="fill:red" />
</g>
<g transform="translate(0.00,-380.00)">
<circle cx="341.00" cy="475.27" r="2.00" style="fill:red" />
</g>
<g transform="translate(0.00,-380.00)">
<circle cx="342.50" cy="482.43" r="2.00" style="fill:red" />
</g>
<g transform="translate(0.00,-380.00)">
<circle cx="344.00" cy="488.54" r="2.00" style="fill:red" />
</g>
<g transform="translate(0.00,-380.00)">
<circle cx="345.50" cy="493.46" r="2.00" style="fill:red" />
</g>
<g transform="translate(0.00,-380.00)">
<circle cx="347.00" cy="497.06" r="2.00" style="fill:red" />
</g>
<g transform="translate(0.00,-380.00)">
<circle cx="348.50" cy="499.26" r="2.00" style="fill:red" />
</g>
<g transform="translate(0.00,-380.00)">
<circle cx="350.00" cy="500.00" r="2.00" style="fill:red" />
</g>
<g transform="translate(0.00,-380.00)">
<circle cx="351.50" cy="499.26" r="2.00" style="fill:red" />
</g>
<g transform="translate(0.00,-380.00)">
<circle cx="353.00" cy="497.06" r="2.00" style="fill:red" />
</g>
<g transform="translate(0.00,-380.00)">
<circle cx="354.50" cy="493.46" r="2.00" style="fill:red" />
</g>
<g transform="translate(0.00,-380.00)">
<circle cx="356.00" cy="488.54" r="2.00" style="fill:red" />
</g>
<g transform="translate(0.00,-380.00)">
<circle cx="357.50" cy="482.43" r="2.00" style="fill:red" />
</g>
<g transform="translate(0.00,-380.00)">
<circle cx="359.00" cy="475.27" r="2.00" style="fill:red" />
</g>
<g transform="translate(0.00,-380.00)">
<circle cx="360.50" cy="467.24" r="2.00" style="fill:red" />
</g>
<g transform="translate(0.00,-380.00)">
<circle cx="362.00" cy="458.54" r="2.00" style="fill:red" />
</g>
<g transform="translate(0.00,-380.00)">
<circle cx="363.50" cy="449.39" r="2.00" style="fill:red" />
</g>
<g transform="translate(0.00,-380.00)">
<circle cx="365.00" cy="440.00" r="2.00" style="fill:red" />
</g>
<g transform="translate(0.00,-380.00)">
<circle cx="366.50" cy="430.61" r="2.00" style="fill:red" />
</g>
<g transform="translate(0.00,-380.00)">
<circle cx="368.00" cy="421.46" r="2.00" style="fill:red" />
</g>
<g transform="translate(0.00,-380.00)">
<circle cx="369.50" cy="412.76" r="2.00" style="fill:red" />
</g>
<g transform="translate(0.00,-380.00)">
<circle cx="371.00" cy="404.73" r="2.00" style="fill:red" />
</g>
<g transform="translate(0.00,-380.00)">
<circle cx="372.50" cy="397.57" r="2.00" style="fill:red" />
</g>
<g transform="translate(0.00,-380.00)">
<circle cx="374.00" cy="391.46" r="2.00" style="fill:red" />
</g>
<g transform="translate(0.00,-380.00)">
<circle cx="375.50" cy="386.54" r="2.00" style="fill:red" />
</g>
<g transform="translate(0.00,-380.00)">
<circle cx="377.00" cy="382.94" r="2.00" style="fill:red" />
</g>
<g transform="translate(0.00,-380.00)">
<circle cx="378.50" cy="380.74" r="2.00" style="fill:red" />
</g>
<g transform="translate(0.00,-380.00)">
<circle cx="380.00" cy="380.00" r="2.00" style="fill:red" />
</g>
<g transform="translate(0.00,-380.00)">
<circle cx="381.50" cy="380.74" r="2.00" style="fill:red" />
</g>
<g transform="translate(0.00,-380.00)">
<circle cx="383.00" cy="382.94" r="2.00" style="fill:red" />
</g>
<g transform="translate(0.00,-380.00)">
<circle cx="384.50" cy="386.54" r="2.00" style="fill:red" />
</g>
<g transform="translate(0.00,-380.00)">
<circle cx="386.00" cy="391.46" r="2.00" style="fill:red" />
</g>
<g transform="translate(0.00,-380.00)">
<circle cx="387.50" cy="397.57" r="2.00" style="fill:red" />
</g>
<g transform="translate(0.00,-380.00)">
<circle cx="389.00" cy="404.73" r="2.00" style="fill:red" />
</g>
<g transform="translate(0.00,-380.00)">
<circle cx="390.50" cy="412.76" r="2.00" style="fill:red" />
</g>
<g transform="translate(0.00,-380.00)">
<circle cx="392.00" cy="421.46" r="2.00" style="fill:red" />
</g>
<g transform="translate(0.00,-380.00)">
<circle cx="393.50" cy="430.61" r="2.00" style="fill:red" />
</g>
<g transform="translate(0.00,-380.00)">
<circle cx="395.00" cy="440.00" r="2.00" style="fill:red" />
</g>
<g transform="translate(0.00,-380.00)">
<circle cx="396.50" cy="449.39" r="2.00" style="fill:red" />
</g>
<g transform="translate(0.00,-380.00)">
<circle cx="398.00" cy="458.54" r="2.00" style="fill:red" />
</g>
<g transform="translate(0.00,-380.00)">
<circle cx="399.50" cy="467.24" r="2.00" style="fill:red" />
</g>
<g transform="translate(0.00,-380.00)">
<circle cx="401.00" cy="475.27" r="2.00" style="fill:red" />
</g>
<g transform="translate(0.00,-380.00)">
<circle cx="402.50" cy="482.43" r="2.00" style="fill:red" />
</g>
<g transform="translate(0.00,-380.00)">
<circle cx="404.00" cy="488.54" r="2.00" style="fill:red" />
</g>
<g transform="translate(0.00,-380.00)">
<circle cx="405.50" cy="493.46" r="2.00" style="fill:red" />
</g>
<g transform="translate(0.00,-380.00)">
<circle cx="407.00" cy="497.06" r="2.00" style="fill:red" />
</g>
<g transform="translate(0.00,-380.00)">
<circle cx="408.50" cy="499.26" r="2.00" style="fill:red" />
</g>
<g transform="translate(0.00,-380.00)">
<circle cx="410.00" cy="500.00" r="2.00" style="fill:red" />
</g>
<g transform="translate(0.00,-380.00)">
<circle cx="411.50" cy="499.26" r="2.00" style="fill:red" />
</g>
<g transform="translate(0.00,-380.00)">
<circle cx="413.00" cy="497.06" r="2.00" style="fill:red" />
</g>
<g transform="translate(0.00,-380.00)">
<circle cx="414.50" cy="493.46" r="2.00" style="fill:red" />
</g>
<g transform="translate(0.00,-380.00)">
<circle cx="416.00" cy="488.54" r="2.00" style="fill:red" />
</g>
<g transform="translate(0.00,-380.00)">
<circle cx="417.50" cy="482.43" r="2.00" style="fill:red" />
</g>
<g transform="translate(0.00,-380.00)">
<circle cx="419.00" cy="475.27" r="2.00" style="fill:red" />
</g>
<g transform="translate(0.00,-380.00)">
<circle cx="420.50" cy="467.24" r="2.00" style="fill:red" />
</g>
<g transform="translate(0.00,-380.00)">
<circle cx="422.00" cy="458.54" r="2.00" style="fill:red" />
</g>
<g transform="translate(0.00,-380.00)">
<circle cx="423.50" cy="449.39" r="2.00" style="fill:red" />
</g>
<g transform="translate(0.00,-380.00)">
<circle cx="425.00" cy="440.00" r="2.00" style="fill:red" />
</g>
<g transform="translate(0.00,-380.00)">
<circle cx="426.50" cy="430.61" r="2.00" style="fill:red" />
</g>
<g transform="translate(0.00,-380.00)">
<circle cx="428.00" cy="421.46" r="2.00" style="fill:red" />
</g>
<g transform="translate(0.00,-380.00)">
<circle cx="429.50" cy="412.76" r="2.00" style="fill:red" />
</g>
<g transform="translate(0.00,-380.00)">
<circle cx="431.00" cy="404.73" r="2.00" style="fill:red" />
</g>
<g transform="translate(0.00,-380.00)">
<circle cx="432.50" cy="397.57" r="2.00" style="fill:red" />
</g>
<g transform="translate(0.00,-380.00)">
<circle cx="434.00" cy="391.46" r="2.00" style="fill:red" />
</g>
<g transform="translate(0.00,-380.00)">
<circle cx="435.50" cy="386.54" r="2.00" style="fill:red" />
</g>
<g transform="translate(0.00,-380.00)">
<circle cx="437.00" cy="382.94" r="2.00" style="fill:red" />
</g>
<g transform="translate(0.00,-380.00)">
<circle cx="438.50" cy="380.74" r="2.00" style="fill:red" />
</g>
</g>
<g transform="translate(0.00,340.00)">
<rect x="80.00" y="0.00" width="360.00" height="120.00" style="fill:white;stroke:gray" />
<g transform="translate(0.00,-380.00)">
<circle cx="80.00" cy="488.82" r="2.00" style="fill:green" />
</g>
<g transform="translate(0.00,-380.00)">
<circle cx="92.00" cy="488.76" r="2.00" style="fill:green" />
</g>
<g transform="translate(0.00,-380.00)">
<circle cx="104.00" cy="488.69" r="2.00" style="fill:green" />
</g>
<g transform="translate(0.00,-380.00)">
<circle cx="116.00" cy="488.60" r="2.00" style="fill:green" />
</g>
<g transform="translate(0.00,-380.00)">
<circle cx="128.00" cy="488.49" r="2.00" style="fill:green" />
</g>
<g transform="translate(0.00,-380.00)">
<circle cx="140.00" cy="488.35" r="2.00" style="fill:green" />
</g>
<g transform="translate(0.00,-380.00)">
<circle cx="152.00" cy="488.19" r="2.00" style="fill:green" />
</g>
<g transform="translate(0.00,-380.00)">
<circle cx="164.00" cy="487.99" r="2.00" style="fill:green" />
</g>
<g transform="translate(0.00,-380.00)">
<circle cx="176.00" cy="487.75" r="2.00" style="fill:green" />
</g>
<g transform="translate(0.00,-380.00)">
<circle cx="188.00" cy="487.45" r="2.00" style="fill:green" />
</g>
<g transform="translate(0.00,-380.00)">
<circle cx="200.00" cy="487.08" r="2.00" style="fill:green" />
</g>
<g transform="translate(0.00,-380.00)">
<circle cx="212.00" cy="486.64" r="2.00" style="fill:green" />
</g>
<g transform="translate(0.00,-380.00)">
<circle cx="224.00" cy="486.10" r="2.00" style="fill:green" />
</g>
<g transform="translate(0.00,-380.00)">
<circle cx="236.00" cy="485.43" r="2.00" style="fill:green" />
</g>
<g transform="translate(0.00,-380.00)">
<circle cx="248.00" cy="484.63" r="2.00" style="fill:green" />
</g>
<g transform="translate(0.00,-380.00)">
<circle cx="260.00" cy="483.64" r="2.00" style="fill:green" />
</g>
<g transform="translate(0.00,-380.00)">
<circle cx="272.00" cy="482.43" r="2.00" style="fill:green" />
</g>
<g transform="translate(0.00,-380.00)">
<circle cx="284.00" cy="480.95" r="2.00" style="fill:green" />
</g>
<g transform="translate(0.00,-380.00)">
<circle cx="296.00" cy="479.15" r="2.00" style="fill:green" />
</g>
<g transform="translate(0.00,-380.00)">
<circle cx="308.00" cy="476.95" r="2.00" style="fill:green" />
</g>
<g transform="translate(0.00,-380.00)">
<circle cx="320.00" cy="474.26" r="2.00" style="fill:green" />
</g>
<g transform="translate(0.00,-380.00)">
<circle cx="332.00" cy="470.98" r="2.00" style="fill:green" />
</g>
<g transform="translate(0.00,-380.00)">
<circle cx="344.00" cy="466.97" r="2.00" style="fill:green" />
</g>
<g transform="translate(0.00,-380.00)">
<circle cx="356.00" cy="462.07" r="2.00" style="fill:green" />
</g>
<g transform="translate(0.00,-380.00)">
<circle cx="368.00" cy="456.09" r="2.00" style="fill:green" />
</g>
<g transform="translate(0.00,-380.00)">
<circle cx="380.00" cy="448.79" r="2.00" style="fill:green" />
</g>
<g transform="translate(0.00,-380.00)">
<circle cx="392.00" cy="439.86" r="2.00" style="fill:green" />
</g>
<g transform="translate(0.00,-380.00)">
<circle cx="404.00" cy="428.96" r="2.00" style="fill:green" />
</g>
<g transform="translate(0.00,-380.00)">
<circle cx="416.00" cy="415.65" r="2.00" style="fill:green" />
</g>
<g transform="translate(0.00,-380.00)">
<circle cx="428.00" cy="399.39" r="2.00" style="fill:green" />
</g>
</g>
</svg>
