<?xml version="1.0"?>
<!-- Generated by gensvg -->
<svg width="500.00" height="500.00"
     xmlns="http://www.w3.org/2000/svg"
     xmlns:xlink="http://www.w3.org/1999/xlink">
<rect x="0.00" y="0.00" width="500.00" height="500.00" style="fill:lightsteelblue" />
<g style="fill:white;;stroke:lightsteelblue;stroke-width:10.00px">
<circle cx="250.00" cy="250.00" r="50.00" />
<circle cx="200.00" cy="300.00" r="50.00" />
<circle cx="300.00" cy="300.00" r="50.00" />
<circle cx="150.00" cy="350.00" r="50.00" />
<circle cx="250.00" cy="350.00" r="50.00" />
<circle cx="350.00" cy="350.00" r="50.00" />
<circle cx="100.00" cy="400.00" r="50.00" />
<circle cx="200.00" cy="400.00" r="50.00" />
<circle cx="300.00" cy="400.00" r="50.00" />
<circle cx="400.00" cy="400.00" r="50.00" />
<circle cx="50.00" cy="450.00" r="50.00" />
<circle cx="150.00" cy="450.00" r="50.00" />
<circle cx="250.00" cy="450.00" r="50.00" />
<circle cx="350.00" cy="450.00" r="50.00" />
<circle cx="450.00" cy="450.00" r="50.00" />
<circle cx="0.00" cy="500.00" r="50.00" />
<circle cx="100.00" cy="500.00" r="50.00" />
<circle cx="200.00" cy="500.00" r="50.00" />
<circle cx="300.00" cy="500.00" r="50.00" />
<circle cx="400.00" cy="500.00" r="50.00" />
<circle cx="500.00" cy="500.00" r="50.00" />
</g>
</svg>
