<?xml version="1.0"?>
<!-- Generated by gensvg -->
<svg width="500.00" height="500.00"
     xmlns="http://www.w3.org/2000/svg"
     xmlns:xlink="http://www.w3.org/1999/xlink">
<g style="font-family:sans-serif;font-size:12pt">
<text x="90.00" y="75.00" style="text-anchor:end;baseline-shift:-33%" >Cost</text>
<rect x="100.00" y="50.00" width="400.00" height="50.00" rx="25.00" ry="25.00" style="fill:rgb(240,240,240)" />
<rect x="125.00" y="62.50" width="100.00" height="25.00" rx="12.50" ry="12.50" style="fill:darkgray" />
<circle cx="212.50" cy="75.00" r="12.50" style="fill:red;fill-opacity:0.3" />
<text x="227.00" y="75.00" style="font-size:75%;text-anchor:start;baseline-shift:-33%" >100</text>
<text x="90.00" y="145.00" style="text-anchor:end;baseline-shift:-33%" >Timing</text>
<rect x="100.00" y="120.00" width="400.00" height="50.00" rx="25.00" ry="25.00" style="fill:rgb(240,240,240)" />
<rect x="125.00" y="132.50" width="250.00" height="25.00" rx="12.50" ry="12.50" style="fill:darkgray" />
<circle cx="362.50" cy="145.00" r="12.50" style="fill:red;fill-opacity:0.3" />
<text x="377.00" y="145.00" style="font-size:75%;text-anchor:start;baseline-shift:-33%" >250</text>
<text x="90.00" y="215.00" style="text-anchor:end;baseline-shift:-33%" >Sourcing</text>
<rect x="100.00" y="190.00" width="400.00" height="50.00" rx="25.00" ry="25.00" style="fill:rgb(240,240,240)" />
<rect x="125.00" y="202.50" width="50.00" height="25.00" rx="12.50" ry="12.50" style="fill:darkgray" />
<circle cx="162.50" cy="215.00" r="12.50" style="fill:red;fill-opacity:0.3" />
<text x="177.00" y="215.00" style="font-size:75%;text-anchor:start;baseline-shift:-33%" >50</text>
<text x="90.00" y="285.00" style="text-anchor:end;baseline-shift:-33%" >Technology</text>
<rect x="100.00" y="260.00" width="400.00" height="50.00" rx="25.00" ry="25.00" style="fill:rgb(240,240,240)" />
<rect x="125.00" y="272.50" width="175.00" height="25.00" rx="12.50" ry="12.50" style="fill:darkgray" />
<circle cx="287.50" cy="285.00" r="12.50" style="fill:red;fill-opacity:0.3" />
<text x="302.00" y="285.00" style="font-size:75%;text-anchor:start;baseline-shift:-33%" >175</text>
</g>
</svg>
