<?xml version="1.0"?>
<!-- Generated by gensvg -->
<svg width="500.00" height="500.00"
     xmlns="http://www.w3.org/2000/svg"
     xmlns:xlink="http://www.w3.org/1999/xlink">
<rect x="0.00" y="0.00" width="500.00" height="500.00" style="fill:white" />
<circle cx="500.00" cy="450.00" r="200.00" style="fill:pink" />
<g transform="translate(364.00,275.47) rotate(17.949634775717318)">
<ellipse cx="0.00" cy="0.00" rx="5.00" ry="2.50" style="fill:blue" />
<path d="M-40.00,0.00 C-20.00,-20.00 -20.00,5.00 -5.00,0.00" style="stroke:blue;fill:none" />
</g>
<g transform="translate(369.19,341.14) rotate(11.384379572316432)">
<ellipse cx="0.00" cy="0.00" rx="5.00" ry="2.50" style="fill:blue" />
<path d="M-40.00,0.00 C-20.00,-20.00 -20.00,5.00 -5.00,0.00" style="stroke:blue;fill:none" />
</g>
<g transform="translate(303.61,329.41) rotate(19.600638956467034)">
<ellipse cx="0.00" cy="0.00" rx="5.00" ry="2.50" style="fill:blue" />
<path d="M-40.00,0.00 C-20.00,-20.00 -20.00,5.00 -5.00,0.00" style="stroke:blue;fill:none" />
</g>
<g transform="translate(373.48,283.69) rotate(30.1995482879247)">
<ellipse cx="0.00" cy="0.00" rx="5.00" ry="2.50" style="fill:blue" />
<path d="M-40.00,0.00 C-20.00,-20.00 -20.00,5.00 -5.00,0.00" style="stroke:blue;fill:none" />
</g>
<g transform="translate(354.48,291.70) rotate(23.057301089194254)">
<ellipse cx="0.00" cy="0.00" rx="5.00" ry="2.50" style="fill:blue" />
<path d="M-40.00,0.00 C-20.00,-20.00 -20.00,5.00 -5.00,0.00" style="stroke:blue;fill:none" />
</g>
<g transform="translate(366.16,315.08) rotate(31.274841451946383)">
<ellipse cx="0.00" cy="0.00" rx="5.00" ry="2.50" style="fill:blue" />
<path d="M-40.00,0.00 C-20.00,-20.00 -20.00,5.00 -5.00,0.00" style="stroke:blue;fill:none" />
</g>
<g transform="translate(356.15,264.68) rotate(36.11138159344253)">
<ellipse cx="0.00" cy="0.00" rx="5.00" ry="2.50" style="fill:blue" />
<path d="M-40.00,0.00 C-20.00,-20.00 -20.00,5.00 -5.00,0.00" style="stroke:blue;fill:none" />
</g>
<g transform="translate(345.37,389.70) rotate(19.5838628460584)">
<ellipse cx="0.00" cy="0.00" rx="5.00" ry="2.50" style="fill:blue" />
<path d="M-40.00,0.00 C-20.00,-20.00 -20.00,5.00 -5.00,0.00" style="stroke:blue;fill:none" />
</g>
<g transform="translate(389.97,373.95) rotate(28.244292540714138)">
<ellipse cx="0.00" cy="0.00" rx="5.00" ry="2.50" style="fill:blue" />
<path d="M-40.00,0.00 C-20.00,-20.00 -20.00,5.00 -5.00,0.00" style="stroke:blue;fill:none" />
</g>
<g transform="translate(326.39,382.76) rotate(1.1788015239146596)">
<ellipse cx="0.00" cy="0.00" rx="5.00" ry="2.50" style="fill:blue" />
<path d="M-40.00,0.00 C-20.00,-20.00 -20.00,5.00 -5.00,0.00" style="stroke:blue;fill:none" />
</g>
<g transform="translate(283.18,215.60) rotate(22.909161428980934)">
<ellipse cx="0.00" cy="0.00" rx="5.00" ry="2.50" style="fill:blue" />
<path d="M-40.00,0.00 C-20.00,-20.00 -20.00,5.00 -5.00,0.00" style="stroke:blue;fill:none" />
</g>
<g transform="translate(316.87,283.90) rotate(22.201322473633642)">
<ellipse cx="0.00" cy="0.00" rx="5.00" ry="2.50" style="fill:blue" />
<path d="M-40.00,0.00 C-20.00,-20.00 -20.00,5.00 -5.00,0.00" style="stroke:blue;fill:none" />
</g>
<g transform="translate(106.70,233.91) rotate(29.884240395049225)">
<ellipse cx="0.00" cy="0.00" rx="5.00" ry="2.50" style="fill:blue" />
<path d="M-40.00,0.00 C-20.00,-20.00 -20.00,5.00 -5.00,0.00" style="stroke:blue;fill:none" />
</g>
<g transform="translate(157.76,262.11) rotate(1.2231468482634276)">
<ellipse cx="0.00" cy="0.00" rx="5.00" ry="2.50" style="fill:blue" />
<path d="M-40.00,0.00 C-20.00,-20.00 -20.00,5.00 -5.00,0.00" style="stroke:blue;fill:none" />
</g>
<g transform="translate(187.11,215.04) rotate(5.195181081339532)">
<ellipse cx="0.00" cy="0.00" rx="5.00" ry="2.50" style="fill:blue" />
<path d="M-40.00,0.00 C-20.00,-20.00 -20.00,5.00 -5.00,0.00" style="stroke:blue;fill:none" />
</g>
<g transform="translate(242.51,399.75) rotate(15.634142048073716)">
<ellipse cx="0.00" cy="0.00" rx="5.00" ry="2.50" style="fill:blue" />
<path d="M-40.00,0.00 C-20.00,-20.00 -20.00,5.00 -5.00,0.00" style="stroke:blue;fill:none" />
</g>
<g transform="translate(330.09,300.12) rotate(9.956856654284394)">
<ellipse cx="0.00" cy="0.00" rx="5.00" ry="2.50" style="fill:blue" />
<path d="M-40.00,0.00 C-20.00,-20.00 -20.00,5.00 -5.00,0.00" style="stroke:blue;fill:none" />
</g>
<g transform="translate(161.34,293.83) rotate(15.283703765450271)">
<ellipse cx="0.00" cy="0.00" rx="5.00" ry="2.50" style="fill:blue" />
<path d="M-40.00,0.00 C-20.00,-20.00 -20.00,5.00 -5.00,0.00" style="stroke:blue;fill:none" />
</g>
<g transform="translate(257.06,368.40) rotate(7.69010257117612)">
<ellipse cx="0.00" cy="0.00" rx="5.00" ry="2.50" style="fill:blue" />
<path d="M-40.00,0.00 C-20.00,-20.00 -20.00,5.00 -5.00,0.00" style="stroke:blue;fill:none" />
</g>
<g transform="translate(119.44,281.78) rotate(11.957741050973047)">
<ellipse cx="0.00" cy="0.00" rx="5.00" ry="2.50" style="fill:blue" />
<path d="M-40.00,0.00 C-20.00,-20.00 -20.00,5.00 -5.00,0.00" style="stroke:blue;fill:none" />
</g>
<g transform="translate(158.96,360.23) rotate(26.7273252291177)">
<ellipse cx="0.00" cy="0.00" rx="5.00" ry="2.50" style="fill:blue" />
<path d="M-40.00,0.00 C-20.00,-20.00 -20.00,5.00 -5.00,0.00" style="stroke:blue;fill:none" />
</g>
<g transform="translate(369.73,298.32) rotate(14.483380362859249)">
<ellipse cx="0.00" cy="0.00" rx="5.00" ry="2.50" style="fill:blue" />
<path d="M-40.00,0.00 C-20.00,-20.00 -20.00,5.00 -5.00,0.00" style="stroke:blue;fill:none" />
</g>
<g transform="translate(177.64,353.34) rotate(33.813331898165735)">
<ellipse cx="0.00" cy="0.00" rx="5.00" ry="2.50" style="fill:blue" />
<path d="M-40.00,0.00 C-20.00,-20.00 -20.00,5.00 -5.00,0.00" style="stroke:blue;fill:none" />
</g>
<g transform="translate(252.31,370.48) rotate(41.02107596832951)">
<ellipse cx="0.00" cy="0.00" rx="5.00" ry="2.50" style="fill:blue" />
<path d="M-40.00,0.00 C-20.00,-20.00 -20.00,5.00 -5.00,0.00" style="stroke:blue;fill:none" />
</g>
<g transform="translate(199.71,345.76) rotate(16.096937811273158)">
<ellipse cx="0.00" cy="0.00" rx="5.00" ry="2.50" style="fill:blue" />
<path d="M-40.00,0.00 C-20.00,-20.00 -20.00,5.00 -5.00,0.00" style="stroke:blue;fill:none" />
</g>
<g transform="translate(180.87,295.81) rotate(15.874704188211346)">
<ellipse cx="0.00" cy="0.00" rx="5.00" ry="2.50" style="fill:blue" />
<path d="M-40.00,0.00 C-20.00,-20.00 -20.00,5.00 -5.00,0.00" style="stroke:blue;fill:none" />
</g>
<g transform="translate(184.63,257.38) rotate(38.56571341807199)">
<ellipse cx="0.00" cy="0.00" rx="5.00" ry="2.50" style="fill:blue" />
<path d="M-40.00,0.00 C-20.00,-20.00 -20.00,5.00 -5.00,0.00" style="stroke:blue;fill:none" />
</g>
<g transform="translate(308.94,347.76) rotate(2.0555730509263834)">
<ellipse cx="0.00" cy="0.00" rx="5.00" ry="2.50" style="fill:blue" />
<path d="M-40.00,0.00 C-20.00,-20.00 -20.00,5.00 -5.00,0.00" style="stroke:blue;fill:none" />
</g>
<g transform="translate(372.63,269.62) rotate(16.275679149732053)">
<ellipse cx="0.00" cy="0.00" rx="5.00" ry="2.50" style="fill:blue" />
<path d="M-40.00,0.00 C-20.00,-20.00 -20.00,5.00 -5.00,0.00" style="stroke:blue;fill:none" />
</g>
<g transform="translate(233.83,235.57) rotate(27.55336506588463)">
<ellipse cx="0.00" cy="0.00" rx="5.00" ry="2.50" style="fill:blue" />
<path d="M-40.00,0.00 C-20.00,-20.00 -20.00,5.00 -5.00,0.00" style="stroke:blue;fill:none" />
</g>
<g transform="translate(339.66,270.24) rotate(5.200100151054165)">
<ellipse cx="0.00" cy="0.00" rx="5.00" ry="2.50" style="fill:blue" />
<path d="M-40.00,0.00 C-20.00,-20.00 -20.00,5.00 -5.00,0.00" style="stroke:blue;fill:none" />
</g>
<g transform="translate(267.05,302.22) rotate(25.827665544100135)">
<ellipse cx="0.00" cy="0.00" rx="5.00" ry="2.50" style="fill:blue" />
<path d="M-40.00,0.00 C-20.00,-20.00 -20.00,5.00 -5.00,0.00" style="stroke:blue;fill:none" />
</g>
<g transform="translate(226.11,293.05) rotate(41.73325578327131)">
<ellipse cx="0.00" cy="0.00" rx="5.00" ry="2.50" style="fill:blue" />
<path d="M-40.00,0.00 C-20.00,-20.00 -20.00,5.00 -5.00,0.00" style="stroke:blue;fill:none" />
</g>
<g transform="translate(329.40,366.01) rotate(43.64641967626605)">
<ellipse cx="0.00" cy="0.00" rx="5.00" ry="2.50" style="fill:blue" />
<path d="M-40.00,0.00 C-20.00,-20.00 -20.00,5.00 -5.00,0.00" style="stroke:blue;fill:none" />
</g>
<g transform="translate(274.33,200.53) rotate(25.17306999582946)">
<ellipse cx="0.00" cy="0.00" rx="5.00" ry="2.50" style="fill:blue" />
<path d="M-40.00,0.00 C-20.00,-20.00 -20.00,5.00 -5.00,0.00" style="stroke:blue;fill:none" />
</g>
<g transform="translate(303.63,355.53) rotate(3.4284137914001)">
<ellipse cx="0.00" cy="0.00" rx="5.00" ry="2.50" style="fill:blue" />
<path d="M-40.00,0.00 C-20.00,-20.00 -20.00,5.00 -5.00,0.00" style="stroke:blue;fill:none" />
</g>
<g transform="translate(381.28,363.10) rotate(18.275975092275054)">
<ellipse cx="0.00" cy="0.00" rx="5.00" ry="2.50" style="fill:blue" />
<path d="M-40.00,0.00 C-20.00,-20.00 -20.00,5.00 -5.00,0.00" style="stroke:blue;fill:none" />
</g>
<g transform="translate(117.56,337.68) rotate(42.66526288039033)">
<ellipse cx="0.00" cy="0.00" rx="5.00" ry="2.50" style="fill:blue" />
<path d="M-40.00,0.00 C-20.00,-20.00 -20.00,5.00 -5.00,0.00" style="stroke:blue;fill:none" />
</g>
<g transform="translate(194.51,395.12) rotate(4.928709212188275)">
<ellipse cx="0.00" cy="0.00" rx="5.00" ry="2.50" style="fill:blue" />
<path d="M-40.00,0.00 C-20.00,-20.00 -20.00,5.00 -5.00,0.00" style="stroke:blue;fill:none" />
</g>
<g transform="translate(159.14,327.06) rotate(18.486793431273856)">
<ellipse cx="0.00" cy="0.00" rx="5.00" ry="2.50" style="fill:blue" />
<path d="M-40.00,0.00 C-20.00,-20.00 -20.00,5.00 -5.00,0.00" style="stroke:blue;fill:none" />
</g>
<g transform="translate(259.67,315.94) rotate(27.026766253645153)">
<ellipse cx="0.00" cy="0.00" rx="5.00" ry="2.50" style="fill:blue" />
<path d="M-40.00,0.00 C-20.00,-20.00 -20.00,5.00 -5.00,0.00" style="stroke:blue;fill:none" />
</g>
<g transform="translate(282.54,307.00) rotate(25.110353089745086)">
<ellipse cx="0.00" cy="0.00" rx="5.00" ry="2.50" style="fill:blue" />
<path d="M-40.00,0.00 C-20.00,-20.00 -20.00,5.00 -5.00,0.00" style="stroke:blue;fill:none" />
</g>
<g transform="translate(245.92,204.19) rotate(36.76986404658209)">
<ellipse cx="0.00" cy="0.00" rx="5.00" ry="2.50" style="fill:blue" />
<path d="M-40.00,0.00 C-20.00,-20.00 -20.00,5.00 -5.00,0.00" style="stroke:blue;fill:none" />
</g>
<g transform="translate(219.26,305.50) rotate(21.500276998309847)">
<ellipse cx="0.00" cy="0.00" rx="5.00" ry="2.50" style="fill:blue" />
<path d="M-40.00,0.00 C-20.00,-20.00 -20.00,5.00 -5.00,0.00" style="stroke:blue;fill:none" />
</g>
<g transform="translate(381.94,361.13) rotate(6.285266805442664)">
<ellipse cx="0.00" cy="0.00" rx="5.00" ry="2.50" style="fill:blue" />
<path d="M-40.00,0.00 C-20.00,-20.00 -20.00,5.00 -5.00,0.00" style="stroke:blue;fill:none" />
</g>
<g transform="translate(235.60,358.71) rotate(16.344120996452844)">
<ellipse cx="0.00" cy="0.00" rx="5.00" ry="2.50" style="fill:blue" />
<path d="M-40.00,0.00 C-20.00,-20.00 -20.00,5.00 -5.00,0.00" style="stroke:blue;fill:none" />
</g>
<g transform="translate(310.74,364.81) rotate(36.100178728571564)">
<ellipse cx="0.00" cy="0.00" rx="5.00" ry="2.50" style="fill:blue" />
<path d="M-40.00,0.00 C-20.00,-20.00 -20.00,5.00 -5.00,0.00" style="stroke:blue;fill:none" />
</g>
<g transform="translate(143.94,273.77) rotate(29.465725264556863)">
<ellipse cx="0.00" cy="0.00" rx="5.00" ry="2.50" style="fill:blue" />
<path d="M-40.00,0.00 C-20.00,-20.00 -20.00,5.00 -5.00,0.00" style="stroke:blue;fill:none" />
</g>
<g transform="translate(289.19,396.78) rotate(8.479585622494836)">
<ellipse cx="0.00" cy="0.00" rx="5.00" ry="2.50" style="fill:blue" />
<path d="M-40.00,0.00 C-20.00,-20.00 -20.00,5.00 -5.00,0.00" style="stroke:blue;fill:none" />
</g>
<g transform="translate(283.32,211.78) rotate(21.701809572114836)">
<ellipse cx="0.00" cy="0.00" rx="5.00" ry="2.50" style="fill:blue" />
<path d="M-40.00,0.00 C-20.00,-20.00 -20.00,5.00 -5.00,0.00" style="stroke:blue;fill:none" />
</g>
<g transform="translate(143.79,202.81) rotate(38.9272991751381)">
<ellipse cx="0.00" cy="0.00" rx="5.00" ry="2.50" style="fill:blue" />
<path d="M-40.00,0.00 C-20.00,-20.00 -20.00,5.00 -5.00,0.00" style="stroke:blue;fill:none" />
</g>
<g transform="translate(127.78,397.13) rotate(33.97600524545618)">
<ellipse cx="0.00" cy="0.00" rx="5.00" ry="2.50" style="fill:blue" />
<path d="M-40.00,0.00 C-20.00,-20.00 -20.00,5.00 -5.00,0.00" style="stroke:blue;fill:none" />
</g>
<g transform="translate(106.66,233.33) rotate(23.964032285067532)">
<ellipse cx="0.00" cy="0.00" rx="5.00" ry="2.50" style="fill:blue" />
<path d="M-40.00,0.00 C-20.00,-20.00 -20.00,5.00 -5.00,0.00" style="stroke:blue;fill:none" />
</g>
<g transform="translate(229.72,319.23) rotate(18.433841963822488)">
<ellipse cx="0.00" cy="0.00" rx="5.00" ry="2.50" style="fill:blue" />
<path d="M-40.00,0.00 C-20.00,-20.00 -20.00,5.00 -5.00,0.00" style="stroke:blue;fill:none" />
</g>
<g transform="translate(188.52,285.61) rotate(12.158262082101364)">
<ellipse cx="0.00" cy="0.00" rx="5.00" ry="2.50" style="fill:blue" />
<path d="M-40.00,0.00 C-20.00,-20.00 -20.00,5.00 -5.00,0.00" style="stroke:blue;fill:none" />
</g>
<g transform="translate(130.56,297.81) rotate(30.291837191062626)">
<ellipse cx="0.00" cy="0.00" rx="5.00" ry="2.50" style="fill:blue" />
<path d="M-40.00,0.00 C-20.00,-20.00 -20.00,5.00 -5.00,0.00" style="stroke:blue;fill:none" />
</g>
<g transform="translate(143.74,274.29) rotate(19.106401319880494)">
<ellipse cx="0.00" cy="0.00" rx="5.00" ry="2.50" style="fill:blue" />
<path d="M-40.00,0.00 C-20.00,-20.00 -20.00,5.00 -5.00,0.00" style="stroke:blue;fill:none" />
</g>
<g transform="translate(399.79,333.77) rotate(28.336491074919206)">
<ellipse cx="0.00" cy="0.00" rx="5.00" ry="2.50" style="fill:blue" />
<path d="M-40.00,0.00 C-20.00,-20.00 -20.00,5.00 -5.00,0.00" style="stroke:blue;fill:none" />
</g>
<g transform="translate(133.21,223.54) rotate(8.843295782837895)">
<ellipse cx="0.00" cy="0.00" rx="5.00" ry="2.50" style="fill:blue" />
<path d="M-40.00,0.00 C-20.00,-20.00 -20.00,5.00 -5.00,0.00" style="stroke:blue;fill:none" />
</g>
<g transform="translate(149.39,264.76) rotate(6.181204982929593)">
<ellipse cx="0.00" cy="0.00" rx="5.00" ry="2.50" style="fill:blue" />
<path d="M-40.00,0.00 C-20.00,-20.00 -20.00,5.00 -5.00,0.00" style="stroke:blue;fill:none" />
</g>
<g transform="translate(354.87,292.27) rotate(10.989176957640444)">
<ellipse cx="0.00" cy="0.00" rx="5.00" ry="2.50" style="fill:blue" />
<path d="M-40.00,0.00 C-20.00,-20.00 -20.00,5.00 -5.00,0.00" style="stroke:blue;fill:none" />
</g>
<g transform="translate(394.53,225.80) rotate(8.124677010241863)">
<ellipse cx="0.00" cy="0.00" rx="5.00" ry="2.50" style="fill:blue" />
<path d="M-40.00,0.00 C-20.00,-20.00 -20.00,5.00 -5.00,0.00" style="stroke:blue;fill:none" />
</g>
<g transform="translate(163.76,280.36) rotate(27.35995588963934)">
<ellipse cx="0.00" cy="0.00" rx="5.00" ry="2.50" style="fill:blue" />
<path d="M-40.00,0.00 C-20.00,-20.00 -20.00,5.00 -5.00,0.00" style="stroke:blue;fill:none" />
</g>
<g transform="translate(265.66,246.21) rotate(35.88964499738094)">
<ellipse cx="0.00" cy="0.00" rx="5.00" ry="2.50" style="fill:blue" />
<path d="M-40.00,0.00 C-20.00,-20.00 -20.00,5.00 -5.00,0.00" style="stroke:blue;fill:none" />
</g>
<g transform="translate(169.61,201.15) rotate(22.244237409511385)">
<ellipse cx="0.00" cy="0.00" rx="5.00" ry="2.50" style="fill:blue" />
<path d="M-40.00,0.00 C-20.00,-20.00 -20.00,5.00 -5.00,0.00" style="stroke:blue;fill:none" />
</g>
<g transform="translate(179.67,232.17) rotate(11.226188398840675)">
<ellipse cx="0.00" cy="0.00" rx="5.00" ry="2.50" style="fill:blue" />
<path d="M-40.00,0.00 C-20.00,-20.00 -20.00,5.00 -5.00,0.00" style="stroke:blue;fill:none" />
</g>
<g transform="translate(347.58,313.00) rotate(41.002592136474085)">
<ellipse cx="0.00" cy="0.00" rx="5.00" ry="2.50" style="fill:blue" />
<path d="M-40.00,0.00 C-20.00,-20.00 -20.00,5.00 -5.00,0.00" style="stroke:blue;fill:none" />
</g>
<g transform="translate(272.72,341.56) rotate(14.685634975940307)">
<ellipse cx="0.00" cy="0.00" rx="5.00" ry="2.50" style="fill:blue" />
<path d="M-40.00,0.00 C-20.00,-20.00 -20.00,5.00 -5.00,0.00" style="stroke:blue;fill:none" />
</g>
<g transform="translate(235.89,253.74) rotate(21.969084330765767)">
<ellipse cx="0.00" cy="0.00" rx="5.00" ry="2.50" style="fill:blue" />
<path d="M-40.00,0.00 C-20.00,-20.00 -20.00,5.00 -5.00,0.00" style="stroke:blue;fill:none" />
</g>
<g transform="translate(179.86,341.19) rotate(44.91714210804093)">
<ellipse cx="0.00" cy="0.00" rx="5.00" ry="2.50" style="fill:blue" />
<path d="M-40.00,0.00 C-20.00,-20.00 -20.00,5.00 -5.00,0.00" style="stroke:blue;fill:none" />
</g>
<g transform="translate(193.41,350.45) rotate(39.628514577741974)">
<ellipse cx="0.00" cy="0.00" rx="5.00" ry="2.50" style="fill:blue" />
<path d="M-40.00,0.00 C-20.00,-20.00 -20.00,5.00 -5.00,0.00" style="stroke:blue;fill:none" />
</g>
<g transform="translate(287.00,200.45) rotate(9.22779025418738)">
<ellipse cx="0.00" cy="0.00" rx="5.00" ry="2.50" style="fill:blue" />
<path d="M-40.00,0.00 C-20.00,-20.00 -20.00,5.00 -5.00,0.00" style="stroke:blue;fill:none" />
</g>
<g transform="translate(268.32,287.48) rotate(42.732947621622145)">
<ellipse cx="0.00" cy="0.00" rx="5.00" ry="2.50" style="fill:blue" />
<path d="M-40.00,0.00 C-20.00,-20.00 -20.00,5.00 -5.00,0.00" style="stroke:blue;fill:none" />
</g>
<g transform="translate(383.76,395.60) rotate(29.33355625989617)">
<ellipse cx="0.00" cy="0.00" rx="5.00" ry="2.50" style="fill:blue" />
<path d="M-40.00,0.00 C-20.00,-20.00 -20.00,5.00 -5.00,0.00" style="stroke:blue;fill:none" />
</g>
<g transform="translate(177.85,286.62) rotate(4.881969620056603)">
<ellipse cx="0.00" cy="0.00" rx="5.00" ry="2.50" style="fill:blue" />
<path d="M-40.00,0.00 C-20.00,-20.00 -20.00,5.00 -5.00,0.00" style="stroke:blue;fill:none" />
</g>
<g transform="translate(156.63,369.03) rotate(14.771272310756888)">
<ellipse cx="0.00" cy="0.00" rx="5.00" ry="2.50" style="fill:blue" />
<path d="M-40.00,0.00 C-20.00,-20.00 -20.00,5.00 -5.00,0.00" style="stroke:blue;fill:none" />
</g>
<g transform="translate(166.32,221.35) rotate(43.463568418913695)">
<ellipse cx="0.00" cy="0.00" rx="5.00" ry="2.50" style="fill:blue" />
<path d="M-40.00,0.00 C-20.00,-20.00 -20.00,5.00 -5.00,0.00" style="stroke:blue;fill:none" />
</g>
<g transform="translate(281.98,246.71) rotate(2.1985035023957598)">
<ellipse cx="0.00" cy="0.00" rx="5.00" ry="2.50" style="fill:blue" />
<path d="M-40.00,0.00 C-20.00,-20.00 -20.00,5.00 -5.00,0.00" style="stroke:blue;fill:none" />
</g>
<g transform="translate(131.98,386.71) rotate(40.39267892293193)">
<ellipse cx="0.00" cy="0.00" rx="5.00" ry="2.50" style="fill:blue" />
<path d="M-40.00,0.00 C-20.00,-20.00 -20.00,5.00 -5.00,0.00" style="stroke:blue;fill:none" />
</g>
<g transform="translate(197.73,243.14) rotate(8.269350602156669)">
<ellipse cx="0.00" cy="0.00" rx="5.00" ry="2.50" style="fill:blue" />
<path d="M-40.00,0.00 C-20.00,-20.00 -20.00,5.00 -5.00,0.00" style="stroke:blue;fill:none" />
</g>
<g transform="translate(344.45,354.56) rotate(13.6370497452406)">
<ellipse cx="0.00" cy="0.00" rx="5.00" ry="2.50" style="fill:blue" />
<path d="M-40.00,0.00 C-20.00,-20.00 -20.00,5.00 -5.00,0.00" style="stroke:blue;fill:none" />
</g>
<g transform="translate(214.96,292.04) rotate(37.29212740632034)">
<ellipse cx="0.00" cy="0.00" rx="5.00" ry="2.50" style="fill:blue" />
<path d="M-40.00,0.00 C-20.00,-20.00 -20.00,5.00 -5.00,0.00" style="stroke:blue;fill:none" />
</g>
<g transform="translate(120.42,342.78) rotate(18.315668817511217)">
<ellipse cx="0.00" cy="0.00" rx="5.00" ry="2.50" style="fill:blue" />
<path d="M-40.00,0.00 C-20.00,-20.00 -20.00,5.00 -5.00,0.00" style="stroke:blue;fill:none" />
</g>
<g transform="translate(331.70,293.55) rotate(3.0245775213046344)">
<ellipse cx="0.00" cy="0.00" rx="5.00" ry="2.50" style="fill:blue" />
<path d="M-40.00,0.00 C-20.00,-20.00 -20.00,5.00 -5.00,0.00" style="stroke:blue;fill:none" />
</g>
<g transform="translate(241.63,274.12) rotate(29.577389800865685)">
<ellipse cx="0.00" cy="0.00" rx="5.00" ry="2.50" style="fill:blue" />
<path d="M-40.00,0.00 C-20.00,-20.00 -20.00,5.00 -5.00,0.00" style="stroke:blue;fill:none" />
</g>
<g transform="translate(260.98,297.28) rotate(44.661889891223055)">
<ellipse cx="0.00" cy="0.00" rx="5.00" ry="2.50" style="fill:blue" />
<path d="M-40.00,0.00 C-20.00,-20.00 -20.00,5.00 -5.00,0.00" style="stroke:blue;fill:none" />
</g>
<g transform="translate(280.81,321.09) rotate(8.049912886755886)">
<ellipse cx="0.00" cy="0.00" rx="5.00" ry="2.50" style="fill:blue" />
<path d="M-40.00,0.00 C-20.00,-20.00 -20.00,5.00 -5.00,0.00" style="stroke:blue;fill:none" />
</g>
<g transform="translate(175.73,248.74) rotate(21.569862712057052)">
<ellipse cx="0.00" cy="0.00" rx="5.00" ry="2.50" style="fill:blue" />
<path d="M-40.00,0.00 C-20.00,-20.00 -20.00,5.00 -5.00,0.00" style="stroke:blue;fill:none" />
</g>
<g transform="translate(256.57,381.15) rotate(3.2986791380241196)">
<ellipse cx="0.00" cy="0.00" rx="5.00" ry="2.50" style="fill:blue" />
<path d="M-40.00,0.00 C-20.00,-20.00 -20.00,5.00 -5.00,0.00" style="stroke:blue;fill:none" />
</g>
<g transform="translate(274.89,305.36) rotate(32.85037241474417)">
<ellipse cx="0.00" cy="0.00" rx="5.00" ry="2.50" style="fill:blue" />
<path d="M-40.00,0.00 C-20.00,-20.00 -20.00,5.00 -5.00,0.00" style="stroke:blue;fill:none" />
</g>
<g transform="translate(214.52,373.94) rotate(38.78927043406397)">
<ellipse cx="0.00" cy="0.00" rx="5.00" ry="2.50" style="fill:blue" />
<path d="M-40.00,0.00 C-20.00,-20.00 -20.00,5.00 -5.00,0.00" style="stroke:blue;fill:none" />
</g>
<g transform="translate(312.16,309.83) rotate(24.043753523364153)">
<ellipse cx="0.00" cy="0.00" rx="5.00" ry="2.50" style="fill:blue" />
<path d="M-40.00,0.00 C-20.00,-20.00 -20.00,5.00 -5.00,0.00" style="stroke:blue;fill:none" />
</g>
<g transform="translate(272.98,255.02) rotate(36.49419197369719)">
<ellipse cx="0.00" cy="0.00" rx="5.00" ry="2.50" style="fill:blue" />
<path d="M-40.00,0.00 C-20.00,-20.00 -20.00,5.00 -5.00,0.00" style="stroke:blue;fill:none" />
</g>
<g transform="translate(276.70,200.03) rotate(40.30122083895077)">
<ellipse cx="0.00" cy="0.00" rx="5.00" ry="2.50" style="fill:blue" />
<path d="M-40.00,0.00 C-20.00,-20.00 -20.00,5.00 -5.00,0.00" style="stroke:blue;fill:none" />
</g>
<g transform="translate(282.34,284.09) rotate(25.09389572854283)">
<ellipse cx="0.00" cy="0.00" rx="5.00" ry="2.50" style="fill:blue" />
<path d="M-40.00,0.00 C-20.00,-20.00 -20.00,5.00 -5.00,0.00" style="stroke:blue;fill:none" />
</g>
<g transform="translate(279.57,273.63) rotate(12.523005005613895)">
<ellipse cx="0.00" cy="0.00" rx="5.00" ry="2.50" style="fill:blue" />
<path d="M-40.00,0.00 C-20.00,-20.00 -20.00,5.00 -5.00,0.00" style="stroke:blue;fill:none" />
</g>
<g transform="translate(185.29,358.74) rotate(0.555904968591857)">
<ellipse cx="0.00" cy="0.00" rx="5.00" ry="2.50" style="fill:blue" />
<path d="M-40.00,0.00 C-20.00,-20.00 -20.00,5.00 -5.00,0.00" style="stroke:blue;fill:none" />
</g>
<g transform="translate(381.16,349.07) rotate(28.10008998841721)">
<ellipse cx="0.00" cy="0.00" rx="5.00" ry="2.50" style="fill:blue" />
<path d="M-40.00,0.00 C-20.00,-20.00 -20.00,5.00 -5.00,0.00" style="stroke:blue;fill:none" />
</g>
<g transform="translate(358.21,359.14) rotate(1.1541965729057273)">
<ellipse cx="0.00" cy="0.00" rx="5.00" ry="2.50" style="fill:blue" />
<path d="M-40.00,0.00 C-20.00,-20.00 -20.00,5.00 -5.00,0.00" style="stroke:blue;fill:none" />
</g>
<g transform="translate(361.20,312.17) rotate(2.562324311569353)">
<ellipse cx="0.00" cy="0.00" rx="5.00" ry="2.50" style="fill:blue" />
<path d="M-40.00,0.00 C-20.00,-20.00 -20.00,5.00 -5.00,0.00" style="stroke:blue;fill:none" />
</g>
</svg>
