<?xml version="1.0"?>
<!-- Generated by gensvg -->
<svg width="500.00" height="500.00"
     xmlns="http://www.w3.org/2000/svg"
     xmlns:xlink="http://www.w3.org/1999/xlink">
<ellipse cx="390.92" cy="225.25" rx="10.91" ry="94.88" style="fill-opacity:0.05; fill:rgb(4,230,29)" />
<ellipse cx="249.29" cy="291.38" rx="81.55" ry="45.34" style="fill-opacity:0.74; fill:rgb(101,99,104)" />
<ellipse cx="8.11" cy="309.43" rx="46.40" ry="4.15" style="fill-opacity:0.12; fill:rgb(19,63,163)" />
<ellipse cx="309.46" cy="294.77" rx="88.80" ry="90.74" style="fill-opacity:0.58; fill:rgb(76,117,112)" />
<ellipse cx="342.09" cy="257.48" rx="43.20" ry="24.94" style="fill-opacity:0.69; fill:rgb(169,209,205)" />
<ellipse cx="119.31" cy="135.86" rx="94.04" ry="49.87" style="fill-opacity:0.31; fill:rgb(191,79,198)" />
<ellipse cx="388.03" cy="17.34" rx="35.48" ry="89.12" style="fill-opacity:0.25; fill:rgb(83,176,230)" />
<ellipse cx="299.78" cy="14.06" rx="9.18" ry="28.77" style="fill-opacity:0.54; fill:rgb(233,142,27)" />
<ellipse cx="222.16" cy="417.08" rx="71.31" ry="32.27" style="fill-opacity:0.11; fill:rgb(37,158,208)" />
<ellipse cx="424.34" cy="34.01" rx="29.15" ry="22.86" style="fill-opacity:0.06; fill:rgb(2,245,45)" />
<ellipse cx="237.26" cy="105.21" rx="87.36" ry="45.74" style="fill-opacity:0.84; fill:rgb(253,90,162)" />
<ellipse cx="310.25" cy="368.80" rx="4.67" ry="87.03" style="fill-opacity:0.41; fill:rgb(84,115,54)" />
<ellipse cx="27.34" cy="312.12" rx="13.94" ry="71.65" style="fill-opacity:0.13; fill:rgb(5,192,156)" />
<ellipse cx="237.81" cy="487.09" rx="43.02" ry="43.39" style="fill-opacity:0.73; fill:rgb(149,32,225)" />
<ellipse cx="58.84" cy="147.27" rx="55.20" ry="85.46" style="fill-opacity:0.36; fill:rgb(89,18,69)" />
<ellipse cx="317.01" cy="357.22" rx="10.60" ry="87.70" style="fill-opacity:0.46; fill:rgb(238,126,37)" />
<ellipse cx="227.92" cy="161.98" rx="6.55" ry="89.69" style="fill-opacity:0.14; fill:rgb(165,117,242)" />
<ellipse cx="170.51" cy="300.11" rx="19.95" ry="89.42" style="fill-opacity:0.70; fill:rgb(70,162,19)" />
<ellipse cx="398.66" cy="101.49" rx="30.46" ry="64.01" style="fill-opacity:0.11; fill:rgb(198,7,15)" />
<ellipse cx="345.24" cy="491.81" rx="62.66" ry="1.82" style="fill-opacity:0.81; fill:rgb(145,70,184)" />
<ellipse cx="189.08" cy="457.93" rx="37.05" ry="73.17" style="fill-opacity:0.28; fill:rgb(65,204,177)" />
<ellipse cx="202.48" cy="47.04" rx="30.46" ry="99.34" style="fill-opacity:0.91; fill:rgb(225,124,124)" />
<ellipse cx="236.96" cy="366.79" rx="28.89" ry="32.64" style="fill-opacity:0.05; fill:rgb(66,214,36)" />
<ellipse cx="375.19" cy="127.43" rx="88.02" ry="75.45" style="fill-opacity:0.88; fill:rgb(59,228,75)" />
<ellipse cx="323.32" cy="437.92" rx="90.55" ry="60.51" style="fill-opacity:0.90; fill:rgb(162,78,210)" />
<ellipse cx="199.66" cy="167.37" rx="3.44" ry="3.47" style="fill-opacity:0.26; fill:rgb(48,154,26)" />
<ellipse cx="72.69" cy="376.71" rx="99.20" ry="70.35" style="fill-opacity:0.66; fill:rgb(17,22,97)" />
<ellipse cx="261.31" cy="40.67" rx="60.11" ry="8.06" style="fill-opacity:0.07; fill:rgb(206,198,135)" />
<ellipse cx="356.05" cy="220.64" rx="78.68" ry="88.57" style="fill-opacity:0.68; fill:rgb(52,61,16)" />
<ellipse cx="236.44" cy="401.86" rx="95.25" ry="78.33" style="fill-opacity:0.62; fill:rgb(122,193,239)" />
<ellipse cx="405.77" cy="267.77" rx="74.47" ry="2.10" style="fill-opacity:0.01; fill:rgb(225,201,121)" />
<ellipse cx="451.67" cy="19.29" rx="96.17" ry="61.17" style="fill-opacity:0.79; fill:rgb(71,193,158)" />
<ellipse cx="82.83" cy="429.18" rx="17.97" ry="35.51" style="fill-opacity:0.01; fill:rgb(160,79,73)" />
<ellipse cx="232.66" cy="111.26" rx="87.67" ry="90.40" style="fill-opacity:0.17; fill:rgb(118,171,134)" />
<ellipse cx="118.90" cy="270.96" rx="7.99" ry="2.37" style="fill-opacity:0.43; fill:rgb(23,152,164)" />
<ellipse cx="431.81" cy="23.71" rx="88.18" ry="96.97" style="fill-opacity:0.28; fill:rgb(171,224,83)" />
<ellipse cx="57.25" cy="193.86" rx="5.29" ry="46.91" style="fill-opacity:0.83; fill:rgb(181,246,72)" />
<ellipse cx="454.78" cy="168.69" rx="30.60" ry="55.89" style="fill-opacity:0.37; fill:rgb(30,251,109)" />
<ellipse cx="68.64" cy="85.88" rx="85.95" ry="19.83" style="fill-opacity:0.23; fill:rgb(117,124,211)" />
<ellipse cx="411.92" cy="444.65" rx="45.31" ry="71.57" style="fill-opacity:0.09; fill:rgb(7,210,194)" />
<ellipse cx="278.26" cy="479.69" rx="87.91" ry="37.43" style="fill-opacity:0.25; fill:rgb(114,14,205)" />
<ellipse cx="495.84" cy="461.65" rx="32.34" ry="69.79" style="fill-opacity:0.49; fill:rgb(112,111,85)" />
<ellipse cx="192.59" cy="66.33" rx="13.96" ry="30.99" style="fill-opacity:0.49; fill:rgb(9,204,123)" />
<ellipse cx="405.79" cy="255.29" rx="14.76" ry="32.98" style="fill-opacity:0.28; fill:rgb(247,194,142)" />
<ellipse cx="490.00" cy="293.84" rx="53.63" ry="4.91" style="fill-opacity:0.70; fill:rgb(48,177,28)" />
<ellipse cx="212.42" cy="463.47" rx="77.94" ry="59.40" style="fill-opacity:0.25; fill:rgb(127,57,22)" />
<ellipse cx="293.87" cy="264.53" rx="62.75" ry="50.69" style="fill-opacity:0.42; fill:rgb(55,170,72)" />
<ellipse cx="224.42" cy="393.77" rx="51.52" ry="25.87" style="fill-opacity:0.09; fill:rgb(191,214,213)" />
<ellipse cx="107.54" cy="38.43" rx="87.74" ry="31.76" style="fill-opacity:0.17; fill:rgb(35,243,127)" />
<ellipse cx="78.84" cy="101.50" rx="63.84" ry="28.11" style="fill-opacity:0.54; fill:rgb(65,227,97)" />
<ellipse cx="267.90" cy="417.24" rx="75.95" ry="80.83" style="fill-opacity:0.84; fill:rgb(236,88,65)" />
<ellipse cx="465.92" cy="176.70" rx="55.75" ry="40.87" style="fill-opacity:0.02; fill:rgb(205,178,202)" />
<ellipse cx="194.94" cy="29.61" rx="66.48" ry="35.74" style="fill-opacity:0.62; fill:rgb(242,117,233)" />
<ellipse cx="240.79" cy="358.39" rx="85.54" ry="76.93" style="fill-opacity:0.99; fill:rgb(115,75,159)" />
<ellipse cx="421.14" cy="328.88" rx="20.77" ry="73.93" style="fill-opacity:0.40; fill:rgb(161,147,77)" />
<ellipse cx="439.03" cy="330.65" rx="45.71" ry="85.71" style="fill-opacity:0.18; fill:rgb(253,81,209)" />
<ellipse cx="306.41" cy="21.30" rx="25.32" ry="77.63" style="fill-opacity:0.35; fill:rgb(76,229,9)" />
<ellipse cx="149.76" cy="196.86" rx="24.44" ry="48.32" style="fill-opacity:0.43; fill:rgb(51,38,39)" />
<ellipse cx="14.74" cy="101.86" rx="78.74" ry="70.28" style="fill-opacity:0.15; fill:rgb(237,167,126)" />
<ellipse cx="185.10" cy="431.51" rx="76.23" ry="77.94" style="fill-opacity:0.66; fill:rgb(95,215,100)" />
<ellipse cx="186.55" cy="104.98" rx="2.84" ry="54.52" style="fill-opacity:0.66; fill:rgb(232,56,133)" />
<ellipse cx="26.11" cy="161.06" rx="91.76" ry="5.26" style="fill-opacity:0.11; fill:rgb(160,250,213)" />
<ellipse cx="59.62" cy="26.70" rx="45.09" ry="54.98" style="fill-opacity:0.04; fill:rgb(2,25,222)" />
<ellipse cx="89.00" cy="111.76" rx="87.90" ry="60.94" style="fill-opacity:0.03; fill:rgb(33,217,8)" />
<ellipse cx="71.10" cy="489.62" rx="70.99" ry="18.92" style="fill-opacity:0.36; fill:rgb(87,3,199)" />
<ellipse cx="141.48" cy="324.78" rx="60.58" ry="50.44" style="fill-opacity:0.72; fill:rgb(145,27,162)" />
<ellipse cx="189.71" cy="484.79" rx="7.66" ry="42.90" style="fill-opacity:0.20; fill:rgb(165,138,0)" />
<ellipse cx="264.65" cy="445.02" rx="0.81" ry="99.79" style="fill-opacity:0.73; fill:rgb(56,203,215)" />
<ellipse cx="42.92" cy="120.68" rx="44.37" ry="37.93" style="fill-opacity:0.86; fill:rgb(238,16,150)" />
<ellipse cx="35.48" cy="215.21" rx="16.03" ry="67.92" style="fill-opacity:0.18; fill:rgb(116,77,89)" />
<ellipse cx="37.29" cy="388.18" rx="68.61" ry="74.40" style="fill-opacity:0.18; fill:rgb(50,254,32)" />
<ellipse cx="313.95" cy="80.65" rx="5.35" ry="93.54" style="fill-opacity:0.20; fill:rgb(204,61,87)" />
<ellipse cx="340.41" cy="442.31" rx="93.95" ry="42.30" style="fill-opacity:0.33; fill:rgb(224,93,168)" />
<ellipse cx="356.67" cy="233.69" rx="37.98" ry="4.25" style="fill-opacity:0.05; fill:rgb(168,41,243)" />
<ellipse cx="101.47" cy="463.84" rx="37.75" ry="74.24" style="fill-opacity:0.44; fill:rgb(138,196,129)" />
<ellipse cx="192.85" cy="221.29" rx="16.01" ry="75.63" style="fill-opacity:0.75; fill:rgb(184,106,15)" />
<ellipse cx="469.90" cy="247.15" rx="8.15" ry="93.83" style="fill-opacity:0.71; fill:rgb(5,166,41)" />
<ellipse cx="433.39" cy="313.55" rx="96.40" ry="69.84" style="fill-opacity:0.13; fill:rgb(140,96,15)" />
<ellipse cx="157.97" cy="222.01" rx="62.91" ry="66.83" style="fill-opacity:0.50; fill:rgb(29,83,253)" />
<ellipse cx="420.23" cy="156.43" rx="83.43" ry="60.46" style="fill-opacity:0.68; fill:rgb(187,239,59)" />
<ellipse cx="469.78" cy="9.86" rx="77.84" ry="77.71" style="fill-opacity:0.07; fill:rgb(102,133,182)" />
<ellipse cx="180.90" cy="194.60" rx="28.62" ry="24.78" style="fill-opacity:0.15; fill:rgb(181,135,244)" />
<ellipse cx="102.50" cy="284.92" rx="96.81" ry="33.23" style="fill-opacity:0.07; fill:rgb(84,138,215)" />
<ellipse cx="284.17" cy="124.74" rx="49.07" ry="19.49" style="fill-opacity:0.97; fill:rgb(234,219,228)" />
<ellipse cx="337.16" cy="124.46" rx="15.72" ry="27.42" style="fill-opacity:0.52; fill:rgb(93,61,87)" />
<ellipse cx="41.95" cy="111.68" rx="58.20" ry="75.52" style="fill-opacity:0.91; fill:rgb(66,250,65)" />
<ellipse cx="415.49" cy="131.75" rx="51.66" ry="52.87" style="fill-opacity:0.83; fill:rgb(7,150,161)" />
<ellipse cx="362.50" cy="264.15" rx="58.71" ry="29.01" style="fill-opacity:0.18; fill:rgb(104,42,241)" />
<ellipse cx="10.61" cy="490.85" rx="37.43" ry="83.19" style="fill-opacity:0.49; fill:rgb(87,62,214)" />
<ellipse cx="77.57" cy="154.14" rx="9.52" ry="71.66" style="fill-opacity:0.69; fill:rgb(77,223,201)" />
<ellipse cx="323.22" cy="82.39" rx="89.72" ry="80.91" style="fill-opacity:0.53; fill:rgb(67,18,76)" />
<ellipse cx="73.45" cy="202.74" rx="27.07" ry="18.95" style="fill-opacity:0.40; fill:rgb(66,88,240)" />
<ellipse cx="237.80" cy="47.48" rx="10.07" ry="95.25" style="fill-opacity:0.93; fill:rgb(151,97,240)" />
<ellipse cx="131.84" cy="284.87" rx="75.72" ry="58.98" style="fill-opacity:1.00; fill:rgb(7,115,152)" />
<ellipse cx="428.99" cy="338.84" rx="85.01" ry="69.14" style="fill-opacity:0.97; fill:rgb(205,247,213)" />
<ellipse cx="47.57" cy="339.43" rx="34.04" ry="92.89" style="fill-opacity:0.13; fill:rgb(157,216,112)" />
<ellipse cx="478.12" cy="244.86" rx="78.51" ry="78.38" style="fill-opacity:0.16; fill:rgb(0,179,236)" />
<ellipse cx="59.90" cy="241.29" rx="21.69" ry="98.96" style="fill-opacity:0.04; fill:rgb(4,29,18)" />
<ellipse cx="45.65" cy="215.54" rx="30.57" ry="52.82" style="fill-opacity:0.74; fill:rgb(242,124,233)" />
<ellipse cx="486.03" cy="81.56" rx="40.41" ry="69.16" style="fill-opacity:0.89; fill:rgb(162,221,208)" />
</svg>
