<?xml version="1.0"?>
<!-- Generated by gensvg -->
<svg width="500.00" height="500.00"
     xmlns="http://www.w3.org/2000/svg"
     xmlns:xlink="http://www.w3.org/1999/xlink">
<defs>
<g id="unit">
<polyline points="0.00,100.00 0.00,40.00 50.00,10.00 100.00,40.00 100.00,100.00" style="fill:none" />
<polygon points="50.00,40.00 70.00,50.00 70.00,75.00 50.00,85.00 30.00,75.00 30.00,50.00" />
</g>
<g id="runit">
<g transform="translate(150.00,180.00) rotate(180)">
<use x="0.00" y="0.00" xlink:href="#unit" />
</g>
</g>
</defs>
<rect x="0.00" y="0.00" width="500.00" height="500.00" style="fill:rgb(227,78,25)" />
<g style="stroke:rgb(65,52,44);stroke-width:12.00;fill:rgb(153,29,40)">
<use x="-50.00" y="0.00" xlink:href="#unit" />
<use x="-50.00" y="0.00" xlink:href="#runit" />
<use x="50.00" y="0.00" xlink:href="#unit" />
<use x="50.00" y="0.00" xlink:href="#runit" />
<use x="150.00" y="0.00" xlink:href="#unit" />
<use x="150.00" y="0.00" xlink:href="#runit" />
<use x="250.00" y="0.00" xlink:href="#unit" />
<use x="250.00" y="0.00" xlink:href="#runit" />
<use x="350.00" y="0.00" xlink:href="#unit" />
<use x="350.00" y="0.00" xlink:href="#runit" />
<use x="450.00" y="0.00" xlink:href="#unit" />
<use x="450.00" y="0.00" xlink:href="#runit" />
<use x="-50.00" y="130.00" xlink:href="#unit" />
<use x="-50.00" y="130.00" xlink:href="#runit" />
<use x="50.00" y="130.00" xlink:href="#unit" />
<use x="50.00" y="130.00" xlink:href="#runit" />
<use x="150.00" y="130.00" xlink:href="#unit" />
<use x="150.00" y="130.00" xlink:href="#runit" />
<use x="250.00" y="130.00" xlink:href="#unit" />
<use x="250.00" y="130.00" xlink:href="#runit" />
<use x="350.00" y="130.00" xlink:href="#unit" />
<use x="350.00" y="130.00" xlink:href="#runit" />
<use x="450.00" y="130.00" xlink:href="#unit" />
<use x="450.00" y="130.00" xlink:href="#runit" />
<use x="-50.00" y="260.00" xlink:href="#unit" />
<use x="-50.00" y="260.00" xlink:href="#runit" />
<use x="50.00" y="260.00" xlink:href="#unit" />
<use x="50.00" y="260.00" xlink:href="#runit" />
<use x="150.00" y="260.00" xlink:href="#unit" />
<use x="150.00" y="260.00" xlink:href="#runit" />
<use x="250.00" y="260.00" xlink:href="#unit" />
<use x="250.00" y="260.00" xlink:href="#runit" />
<use x="350.00" y="260.00" xlink:href="#unit" />
<use x="350.00" y="260.00" xlink:href="#runit" />
<use x="450.00" y="260.00" xlink:href="#unit" />
<use x="450.00" y="260.00" xlink:href="#runit" />
<use x="-50.00" y="390.00" xlink:href="#unit" />
<use x="-50.00" y="390.00" xlink:href="#runit" />
<use x="50.00" y="390.00" xlink:href="#unit" />
<use x="50.00" y="390.00" xlink:href="#runit" />
<use x="150.00" y="390.00" xlink:href="#unit" />
<use x="150.00" y="390.00" xlink:href="#runit" />
<use x="250.00" y="390.00" xlink:href="#unit" />
<use x="250.00" y="390.00" xlink:href="#runit" />
<use x="350.00" y="390.00" xlink:href="#unit" />
<use x="350.00" y="390.00" xlink:href="#runit" />
<use x="450.00" y="390.00" xlink:href="#unit" />
<use x="450.00" y="390.00" xlink:href="#runit" />
</g>
</svg>
