<?xml version="1.0"?>
<!-- Generated by gensvg -->
<svg width="500.00" height="500.00"
     xmlns="http://www.w3.org/2000/svg"
     xmlns:xlink="http://www.w3.org/1999/xlink">
<rect x="0.00" y="0.00" width="500.00" height="500.00" />
<polygon points="50.00,50.00 87.50,75.00 50.00,100.00 12.50,75.00 50.00,50.00" style="fill:rgb(1,186,61)" />
<polygon points="12.50,75.00 50.00,100.00 50.00,150.00 12.50,125.00 12.50,75.00" style="fill:rgb(81,205,146)" />
<polygon points="87.50,75.00 87.50,125.00 50.00,150.00 50.00,100.00 87.50,75.00" style="fill:rgb(199,215,76)" />
<polygon points="150.00,50.00 187.50,75.00 150.00,100.00 112.50,75.00 150.00,50.00" style="fill:rgb(183,49,120)" />
<polygon points="112.50,75.00 150.00,100.00 150.00,150.00 112.50,125.00 112.50,75.00" style="fill:rgb(154,150,192)" />
<polygon points="187.50,75.00 187.50,125.00 150.00,150.00 150.00,100.00 187.50,75.00" style="fill:rgb(252,36,28)" />
<polygon points="250.00,50.00 287.50,75.00 250.00,100.00 212.50,75.00 250.00,50.00" style="fill:rgb(32,214,116)" />
<polygon points="212.50,75.00 250.00,100.00 250.00,150.00 212.50,125.00 212.50,75.00" style="fill:rgb(67,75,80)" />
<polygon points="287.50,75.00 287.50,125.00 250.00,150.00 250.00,100.00 287.50,75.00" style="fill:rgb(15,205,132)" />
<polygon points="350.00,50.00 387.50,75.00 350.00,100.00 312.50,75.00 350.00,50.00" style="fill:rgb(126,96,147)" />
<polygon points="312.50,75.00 350.00,100.00 350.00,150.00 312.50,125.00 312.50,75.00" style="fill:rgb(209,41,161)" />
<polygon points="387.50,75.00 387.50,125.00 350.00,150.00 350.00,100.00 387.50,75.00" style="fill:rgb(151,120,254)" />
<polygon points="450.00,50.00 487.50,75.00 450.00,100.00 412.50,75.00 450.00,50.00" style="fill:rgb(152,122,248)" />
<polygon points="412.50,75.00 450.00,100.00 450.00,150.00 412.50,125.00 412.50,75.00" style="fill:rgb(73,31,210)" />
<polygon points="487.50,75.00 487.50,125.00 450.00,150.00 450.00,100.00 487.50,75.00" style="fill:rgb(34,115,20)" />
<polygon points="50.00,175.00 87.50,200.00 50.00,225.00 12.50,200.00 50.00,175.00" style="fill:rgb(98,151,237)" />
<polygon points="12.50,200.00 50.00,225.00 50.00,275.00 12.50,250.00 12.50,200.00" style="fill:rgb(178,128,86)" />
<polygon points="87.50,200.00 87.50,250.00 50.00,275.00 50.00,225.00 87.50,200.00" style="fill:rgb(7,166,229)" />
<polygon points="150.00,175.00 187.50,200.00 150.00,225.00 112.50,200.00 150.00,175.00" style="fill:rgb(184,43,134)" />
<polygon points="112.50,200.00 150.00,225.00 150.00,275.00 112.50,250.00 112.50,200.00" style="fill:rgb(157,214,135)" />
<polygon points="187.50,200.00 187.50,250.00 150.00,275.00 150.00,225.00 187.50,200.00" style="fill:rgb(126,119,17)" />
<polygon points="250.00,175.00 287.50,200.00 250.00,225.00 212.50,200.00 250.00,175.00" style="fill:rgb(194,40,129)" />
<polygon points="212.50,200.00 250.00,225.00 250.00,275.00 212.50,250.00 212.50,200.00" style="fill:rgb(12,219,53)" />
<polygon points="287.50,200.00 287.50,250.00 250.00,275.00 250.00,225.00 287.50,200.00" style="fill:rgb(243,43,200)" />
<polygon points="350.00,175.00 387.50,200.00 350.00,225.00 312.50,200.00 350.00,175.00" style="fill:rgb(52,228,200)" />
<polygon points="312.50,200.00 350.00,225.00 350.00,275.00 312.50,250.00 312.50,200.00" style="fill:rgb(124,245,12)" />
<polygon points="387.50,200.00 387.50,250.00 350.00,275.00 350.00,225.00 387.50,200.00" style="fill:rgb(136,32,237)" />
<polygon points="450.00,175.00 487.50,200.00 450.00,225.00 412.50,200.00 450.00,175.00" style="fill:rgb(155,135,197)" />
<polygon points="412.50,200.00 450.00,225.00 450.00,275.00 412.50,250.00 412.50,200.00" style="fill:rgb(55,41,132)" />
<polygon points="487.50,200.00 487.50,250.00 450.00,275.00 450.00,225.00 487.50,200.00" style="fill:rgb(26,150,20)" />
<polygon points="50.00,300.00 87.50,325.00 50.00,350.00 12.50,325.00 50.00,300.00" style="fill:rgb(138,1,212)" />
<polygon points="12.50,325.00 50.00,350.00 50.00,400.00 12.50,375.00 12.50,325.00" style="fill:rgb(142,71,44)" />
<polygon points="87.50,325.00 87.50,375.00 50.00,400.00 50.00,350.00 87.50,325.00" style="fill:rgb(180,82,235)" />
<polygon points="150.00,300.00 187.50,325.00 150.00,350.00 112.50,325.00 150.00,300.00" style="fill:rgb(252,186,218)" />
<polygon points="112.50,325.00 150.00,350.00 150.00,400.00 112.50,375.00 112.50,325.00" style="fill:rgb(197,203,148)" />
<polygon points="187.50,325.00 187.50,375.00 150.00,400.00 150.00,350.00 187.50,325.00" style="fill:rgb(147,170,193)" />
<polygon points="250.00,300.00 287.50,325.00 250.00,350.00 212.50,325.00 250.00,300.00" style="fill:rgb(182,213,100)" />
<polygon points="212.50,325.00 250.00,350.00 250.00,400.00 212.50,375.00 212.50,325.00" style="fill:rgb(90,2,73)" />
<polygon points="287.50,325.00 287.50,375.00 250.00,400.00 250.00,350.00 287.50,325.00" style="fill:rgb(169,38,209)" />
<polygon points="350.00,300.00 387.50,325.00 350.00,350.00 312.50,325.00 350.00,300.00" style="fill:rgb(83,58,185)" />
<polygon points="312.50,325.00 350.00,350.00 350.00,400.00 312.50,375.00 312.50,325.00" style="fill:rgb(84,228,185)" />
<polygon points="387.50,325.00 387.50,375.00 350.00,400.00 350.00,350.00 387.50,325.00" style="fill:rgb(56,68,38)" />
<polygon points="450.00,300.00 487.50,325.00 450.00,350.00 412.50,325.00 450.00,300.00" style="fill:rgb(92,76,85)" />
<polygon points="412.50,325.00 450.00,350.00 450.00,400.00 412.50,375.00 412.50,325.00" style="fill:rgb(7,224,170)" />
<polygon points="487.50,325.00 487.50,375.00 450.00,400.00 450.00,350.00 487.50,325.00" style="fill:rgb(40,218,88)" />
</svg>
