<?xml version="1.0"?>
<!-- Generated by gensvg -->
<svg width="500.00" height="500.00"
     xmlns="http://www.w3.org/2000/svg"
     xmlns:xlink="http://www.w3.org/1999/xlink">
<g style="fill:none;stroke:black;stroke-width:30.00">
<circle cx="125.00" cy="125.00" r="60.00" />
<circle cx="125.00" cy="125.00" r="12.00" style="fill:black" />
<g transform="translate(125.00,125.00) rotate(0)">
<line x1="50.00" y1="50.00" x2="70.00" y2="70.00" />
</g>
<g transform="translate(125.00,125.00) rotate(45)">
<line x1="50.00" y1="50.00" x2="70.00" y2="70.00" />
</g>
<g transform="translate(125.00,125.00) rotate(90)">
<line x1="50.00" y1="50.00" x2="70.00" y2="70.00" />
</g>
<g transform="translate(125.00,125.00) rotate(135)">
<line x1="50.00" y1="50.00" x2="70.00" y2="70.00" />
</g>
<g transform="translate(125.00,125.00) rotate(180)">
<line x1="50.00" y1="50.00" x2="70.00" y2="70.00" />
</g>
<g transform="translate(125.00,125.00) rotate(225)">
<line x1="50.00" y1="50.00" x2="70.00" y2="70.00" />
</g>
<g transform="translate(125.00,125.00) rotate(270)">
<line x1="50.00" y1="50.00" x2="70.00" y2="70.00" />
</g>
<g transform="translate(125.00,125.00) rotate(315)">
<line x1="50.00" y1="50.00" x2="70.00" y2="70.00" />
</g>
<g transform="translate(125.00,125.00) rotate(360)">
<line x1="50.00" y1="50.00" x2="70.00" y2="70.00" />
</g>
</g>
<g style="fill:none;stroke:red;stroke-width:30.00">
<circle cx="225.00" cy="285.00" r="60.00" />
<circle cx="225.00" cy="285.00" r="12.00" style="fill:red" />
<g transform="translate(225.00,285.00) rotate(0)">
<line x1="50.00" y1="50.00" x2="70.00" y2="70.00" />
</g>
<g transform="translate(225.00,285.00) rotate(45)">
<line x1="50.00" y1="50.00" x2="70.00" y2="70.00" />
</g>
<g transform="translate(225.00,285.00) rotate(90)">
<line x1="50.00" y1="50.00" x2="70.00" y2="70.00" />
</g>
<g transform="translate(225.00,285.00) rotate(135)">
<line x1="50.00" y1="50.00" x2="70.00" y2="70.00" />
</g>
<g transform="translate(225.00,285.00) rotate(180)">
<line x1="50.00" y1="50.00" x2="70.00" y2="70.00" />
</g>
<g transform="translate(225.00,285.00) rotate(225)">
<line x1="50.00" y1="50.00" x2="70.00" y2="70.00" />
</g>
<g transform="translate(225.00,285.00) rotate(270)">
<line x1="50.00" y1="50.00" x2="70.00" y2="70.00" />
</g>
<g transform="translate(225.00,285.00) rotate(315)">
<line x1="50.00" y1="50.00" x2="70.00" y2="70.00" />
</g>
<g transform="translate(225.00,285.00) rotate(360)">
<line x1="50.00" y1="50.00" x2="70.00" y2="70.00" />
</g>
</g>
<g style="fill:none;stroke:blue;stroke-width:10.00">
<circle cx="350.00" cy="190.00" r="20.00" />
<circle cx="350.00" cy="190.00" r="4.00" style="fill:blue" />
<g transform="translate(350.00,190.00) rotate(0)">
<line x1="14.00" y1="14.00" x2="26.00" y2="26.00" />
</g>
<g transform="translate(350.00,190.00) rotate(45)">
<line x1="14.00" y1="14.00" x2="26.00" y2="26.00" />
</g>
<g transform="translate(350.00,190.00) rotate(90)">
<line x1="14.00" y1="14.00" x2="26.00" y2="26.00" />
</g>
<g transform="translate(350.00,190.00) rotate(135)">
<line x1="14.00" y1="14.00" x2="26.00" y2="26.00" />
</g>
<g transform="translate(350.00,190.00) rotate(180)">
<line x1="14.00" y1="14.00" x2="26.00" y2="26.00" />
</g>
<g transform="translate(350.00,190.00) rotate(225)">
<line x1="14.00" y1="14.00" x2="26.00" y2="26.00" />
</g>
<g transform="translate(350.00,190.00) rotate(270)">
<line x1="14.00" y1="14.00" x2="26.00" y2="26.00" />
</g>
<g transform="translate(350.00,190.00) rotate(315)">
<line x1="14.00" y1="14.00" x2="26.00" y2="26.00" />
</g>
<g transform="translate(350.00,190.00) rotate(360)">
<line x1="14.00" y1="14.00" x2="26.00" y2="26.00" />
</g>
</g>
</svg>
