<?xml version="1.0"?>
<!-- Generated by gensvg -->
<svg width="500" height="500"
     xmlns="http://www.w3.org/2000/svg"
     xmlns:xlink="http://www.w3.org/1999/xlink">
<rect x="0" y="0" width="500" height="500" />
<rect x="20" y="20" width="24" height="18" style="fill:rgb(185,87,81)" />
<rect x="20" y="43" width="24" height="18" style="fill:rgb(105,135,60)" />
<rect x="20" y="66" width="24" height="18" style="fill:rgb(64,103,71)" />
<rect x="20" y="89" width="24" height="18" style="fill:rgb(232,94,26)" />
<rect x="20" y="112" width="24" height="18" style="fill:rgb(26,162,149)" />
<rect x="20" y="135" width="24" height="18" style="fill:rgb(19,37,17)" />
<rect x="20" y="158" width="24" height="18" style="fill:rgb(230,198,252)" />
<rect x="20" y="181" width="24" height="18" style="fill:rgb(111,169,251)" />
<rect x="20" y="204" width="24" height="18" style="fill:rgb(93,166,16)" />
<rect x="20" y="227" width="24" height="18" style="fill:rgb(57,182,244)" />
<rect x="20" y="250" width="24" height="18" style="fill:rgb(79,188,140)" />
<rect x="20" y="273" width="24" height="18" style="fill:rgb(46,219,163)" />
<rect x="20" y="296" width="24" height="18" style="fill:rgb(43,213,183)" />
<rect x="20" y="319" width="24" height="18" style="fill:rgb(179,173,178)" />
<rect x="20" y="342" width="24" height="18" style="fill:rgb(138,163,250)" />
<rect x="20" y="365" width="24" height="18" style="fill:rgb(20,178,9)" />
<rect x="49" y="20" width="24" height="18" style="fill:rgb(95,34,5)" />
<rect x="49" y="43" width="24" height="18" style="fill:rgb(212,16,77)" />
<rect x="49" y="66" width="24" height="18" style="fill:rgb(172,42,141)" />
<rect x="49" y="89" width="24" height="18" style="fill:rgb(138,107,109)" />
<rect x="49" y="112" width="24" height="18" style="fill:rgb(206,58,225)" />
<rect x="49" y="135" width="24" height="18" style="fill:rgb(130,160,50)" />
<rect x="49" y="158" width="24" height="18" style="fill:rgb(67,85,161)" />
<rect x="49" y="181" width="24" height="18" style="fill:rgb(113,90,146)" />
<rect x="49" y="204" width="24" height="18" style="fill:rgb(103,49,136)" />
<rect x="49" y="227" width="24" height="18" style="fill:rgb(144,191,248)" />
<rect x="49" y="250" width="24" height="18" style="fill:rgb(35,3,200)" />
<rect x="49" y="273" width="24" height="18" style="fill:rgb(196,101,47)" />
<rect x="49" y="296" width="24" height="18" style="fill:rgb(4,98,53)" />
<rect x="49" y="319" width="24" height="18" style="fill:rgb(20,104,221)" />
<rect x="49" y="342" width="24" height="18" style="fill:rgb(102,155,166)" />
<rect x="49" y="365" width="24" height="18" style="fill:rgb(243,77,173)" />
<rect x="78" y="20" width="24" height="18" style="fill:rgb(254,114,86)" />
<rect x="78" y="43" width="24" height="18" style="fill:rgb(85,76,41)" />
<rect x="78" y="66" width="24" height="18" style="fill:rgb(25,85,135)" />
<rect x="78" y="89" width="24" height="18" style="fill:rgb(129,2,153)" />
<rect x="78" y="112" width="24" height="18" style="fill:rgb(139,25,99)" />
<rect x="78" y="135" width="24" height="18" style="fill:rgb(75,224,120)" />
<rect x="78" y="158" width="24" height="18" style="fill:rgb(89,123,115)" />
<rect x="78" y="181" width="24" height="18" style="fill:rgb(45,37,149)" />
<rect x="78" y="204" width="24" height="18" style="fill:rgb(195,139,218)" />
<rect x="78" y="227" width="24" height="18" style="fill:rgb(119,7,211)" />
<rect x="78" y="250" width="24" height="18" style="fill:rgb(170,87,106)" />
<rect x="78" y="273" width="24" height="18" style="fill:rgb(163,46,183)" />
<rect x="78" y="296" width="24" height="18" style="fill:rgb(180,205,179)" />
<rect x="78" y="319" width="24" height="18" style="fill:rgb(166,65,117)" />
<rect x="78" y="342" width="24" height="18" style="fill:rgb(109,220,61)" />
<rect x="78" y="365" width="24" height="18" style="fill:rgb(214,239,41)" />
<rect x="107" y="20" width="24" height="18" style="fill:rgb(25,166,119)" />
<rect x="107" y="43" width="24" height="18" style="fill:rgb(113,149,176)" />
<rect x="107" y="66" width="24" height="18" style="fill:rgb(226,160,148)" />
<rect x="107" y="89" width="24" height="18" style="fill:rgb(177,171,227)" />
<rect x="107" y="112" width="24" height="18" style="fill:rgb(94,53,52)" />
<rect x="107" y="135" width="24" height="18" style="fill:rgb(224,47,41)" />
<rect x="107" y="158" width="24" height="18" style="fill:rgb(214,11,186)" />
<rect x="107" y="181" width="24" height="18" style="fill:rgb(125,76,110)" />
<rect x="107" y="204" width="24" height="18" style="fill:rgb(177,191,69)" />
<rect x="107" y="227" width="24" height="18" style="fill:rgb(45,25,174)" />
<rect x="107" y="250" width="24" height="18" style="fill:rgb(105,250,14)" />
<rect x="107" y="273" width="24" height="18" style="fill:rgb(130,175,139)" />
<rect x="107" y="296" width="24" height="18" style="fill:rgb(197,245,138)" />
<rect x="107" y="319" width="24" height="18" style="fill:rgb(251,236,160)" />
<rect x="107" y="342" width="24" height="18" style="fill:rgb(107,128,212)" />
<rect x="107" y="365" width="24" height="18" style="fill:rgb(114,99,18)" />
<rect x="136" y="20" width="24" height="18" style="fill:rgb(219,171,131)" />
<rect x="136" y="43" width="24" height="18" style="fill:rgb(168,92,27)" />
<rect x="136" y="66" width="24" height="18" style="fill:rgb(103,30,195)" />
<rect x="136" y="89" width="24" height="18" style="fill:rgb(214,116,66)" />
<rect x="136" y="112" width="24" height="18" style="fill:rgb(111,202,69)" />
<rect x="136" y="135" width="24" height="18" style="fill:rgb(183,93,216)" />
<rect x="136" y="158" width="24" height="18" style="fill:rgb(143,245,189)" />
<rect x="136" y="181" width="24" height="18" style="fill:rgb(37,106,64)" />
<rect x="136" y="204" width="24" height="18" style="fill:rgb(206,185,240)" />
<rect x="136" y="227" width="24" height="18" style="fill:rgb(65,250,93)" />
<rect x="136" y="250" width="24" height="18" style="fill:rgb(94,2,85)" />
<rect x="136" y="273" width="24" height="18" style="fill:rgb(104,35,251)" />
<rect x="136" y="296" width="24" height="18" style="fill:rgb(38,208,86)" />
<rect x="136" y="319" width="24" height="18" style="fill:rgb(132,193,137)" />
<rect x="136" y="342" width="24" height="18" style="fill:rgb(75,211,229)" />
<rect x="136" y="365" width="24" height="18" style="fill:rgb(228,233,200)" />
<rect x="165" y="20" width="24" height="18" style="fill:rgb(114,135,70)" />
<rect x="165" y="43" width="24" height="18" style="fill:rgb(247,223,167)" />
<rect x="165" y="66" width="24" height="18" style="fill:rgb(95,251,73)" />
<rect x="165" y="89" width="24" height="18" style="fill:rgb(63,197,139)" />
<rect x="165" y="112" width="24" height="18" style="fill:rgb(147,92,77)" />
<rect x="165" y="135" width="24" height="18" style="fill:rgb(64,236,63)" />
<rect x="165" y="158" width="24" height="18" style="fill:rgb(209,204,194)" />
<rect x="165" y="181" width="24" height="18" style="fill:rgb(186,137,141)" />
<rect x="165" y="204" width="24" height="18" style="fill:rgb(175,198,20)" />
<rect x="165" y="227" width="24" height="18" style="fill:rgb(59,241,47)" />
<rect x="165" y="250" width="24" height="18" style="fill:rgb(210,167,179)" />
<rect x="165" y="273" width="24" height="18" style="fill:rgb(67,24,124)" />
<rect x="165" y="296" width="24" height="18" style="fill:rgb(96,159,68)" />
<rect x="165" y="319" width="24" height="18" style="fill:rgb(230,241,184)" />
<rect x="165" y="342" width="24" height="18" style="fill:rgb(116,87,137)" />
<rect x="165" y="365" width="24" height="18" style="fill:rgb(151,8,142)" />
<rect x="194" y="20" width="24" height="18" style="fill:rgb(172,10,122)" />
<rect x="194" y="43" width="24" height="18" style="fill:rgb(218,129,248)" />
<rect x="194" y="66" width="24" height="18" style="fill:rgb(253,46,208)" />
<rect x="194" y="89" width="24" height="18" style="fill:rgb(152,12,51)" />
<rect x="194" y="112" width="24" height="18" style="fill:rgb(218,246,190)" />
<rect x="194" y="135" width="24" height="18" style="fill:rgb(64,52,109)" />
<rect x="194" y="158" width="24" height="18" style="fill:rgb(21,194,108)" />
<rect x="194" y="181" width="24" height="18" style="fill:rgb(82,157,84)" />
<rect x="194" y="204" width="24" height="18" style="fill:rgb(36,142,183)" />
<rect x="194" y="227" width="24" height="18" style="fill:rgb(16,113,222)" />
<rect x="194" y="250" width="24" height="18" style="fill:rgb(122,22,22)" />
<rect x="194" y="273" width="24" height="18" style="fill:rgb(66,140,207)" />
<rect x="194" y="296" width="24" height="18" style="fill:rgb(41,97,190)" />
<rect x="194" y="319" width="24" height="18" style="fill:rgb(15,186,48)" />
<rect x="194" y="342" width="24" height="18" style="fill:rgb(134,147,19)" />
<rect x="194" y="365" width="24" height="18" style="fill:rgb(68,144,106)" />
<rect x="223" y="20" width="24" height="18" style="fill:rgb(94,79,110)" />
<rect x="223" y="43" width="24" height="18" style="fill:rgb(92,9,101)" />
<rect x="223" y="66" width="24" height="18" style="fill:rgb(147,15,219)" />
<rect x="223" y="89" width="24" height="18" style="fill:rgb(106,120,105)" />
<rect x="223" y="112" width="24" height="18" style="fill:rgb(152,227,124)" />
<rect x="223" y="135" width="24" height="18" style="fill:rgb(185,180,189)" />
<rect x="223" y="158" width="24" height="18" style="fill:rgb(212,165,68)" />
<rect x="223" y="181" width="24" height="18" style="fill:rgb(45,115,247)" />
<rect x="223" y="204" width="24" height="18" style="fill:rgb(40,110,165)" />
<rect x="223" y="227" width="24" height="18" style="fill:rgb(28,30,96)" />
<rect x="223" y="250" width="24" height="18" style="fill:rgb(147,19,223)" />
<rect x="223" y="273" width="24" height="18" style="fill:rgb(130,62,151)" />
<rect x="223" y="296" width="24" height="18" style="fill:rgb(87,11,140)" />
<rect x="223" y="319" width="24" height="18" style="fill:rgb(48,83,250)" />
<rect x="223" y="342" width="24" height="18" style="fill:rgb(74,190,135)" />
<rect x="223" y="365" width="24" height="18" style="fill:rgb(250,206,233)" />
<rect x="252" y="20" width="24" height="18" style="fill:rgb(26,194,209)" />
<rect x="252" y="43" width="24" height="18" style="fill:rgb(217,194,169)" />
<rect x="252" y="66" width="24" height="18" style="fill:rgb(94,177,81)" />
<rect x="252" y="89" width="24" height="18" style="fill:rgb(106,48,56)" />
<rect x="252" y="112" width="24" height="18" style="fill:rgb(145,219,204)" />
<rect x="252" y="135" width="24" height="18" style="fill:rgb(163,21,23)" />
<rect x="252" y="158" width="24" height="18" style="fill:rgb(71,163,161)" />
<rect x="252" y="181" width="24" height="18" style="fill:rgb(107,72,124)" />
<rect x="252" y="204" width="24" height="18" style="fill:rgb(148,228,215)" />
<rect x="252" y="227" width="24" height="18" style="fill:rgb(92,127,82)" />
<rect x="252" y="250" width="24" height="18" style="fill:rgb(127,202,165)" />
<rect x="252" y="273" width="24" height="18" style="fill:rgb(230,202,151)" />
<rect x="252" y="296" width="24" height="18" style="fill:rgb(0,66,196)" />
<rect x="252" y="319" width="24" height="18" style="fill:rgb(146,249,215)" />
<rect x="252" y="342" width="24" height="18" style="fill:rgb(90,68,98)" />
<rect x="252" y="365" width="24" height="18" style="fill:rgb(111,238,40)" />
<rect x="281" y="20" width="24" height="18" style="fill:rgb(158,156,100)" />
<rect x="281" y="43" width="24" height="18" style="fill:rgb(113,90,249)" />
<rect x="281" y="66" width="24" height="18" style="fill:rgb(42,161,222)" />
<rect x="281" y="89" width="24" height="18" style="fill:rgb(118,84,226)" />
<rect x="281" y="112" width="24" height="18" style="fill:rgb(7,53,2)" />
<rect x="281" y="135" width="24" height="18" style="fill:rgb(55,117,34)" />
<rect x="281" y="158" width="24" height="18" style="fill:rgb(76,79,216)" />
<rect x="281" y="181" width="24" height="18" style="fill:rgb(20,54,201)" />
<rect x="281" y="204" width="24" height="18" style="fill:rgb(81,197,70)" />
<rect x="281" y="227" width="24" height="18" style="fill:rgb(233,161,107)" />
<rect x="281" y="250" width="24" height="18" style="fill:rgb(13,93,197)" />
<rect x="281" y="273" width="24" height="18" style="fill:rgb(210,117,98)" />
<rect x="281" y="296" width="24" height="18" style="fill:rgb(28,103,147)" />
<rect x="281" y="319" width="24" height="18" style="fill:rgb(183,51,149)" />
<rect x="281" y="342" width="24" height="18" style="fill:rgb(245,33,241)" />
<rect x="281" y="365" width="24" height="18" style="fill:rgb(25,55,119)" />
<rect x="310" y="20" width="24" height="18" style="fill:rgb(224,40,74)" />
<rect x="310" y="43" width="24" height="18" style="fill:rgb(58,193,8)" />
<rect x="310" y="66" width="24" height="18" style="fill:rgb(78,22,114)" />
<rect x="310" y="89" width="24" height="18" style="fill:rgb(115,171,74)" />
<rect x="310" y="112" width="24" height="18" style="fill:rgb(215,60,88)" />
<rect x="310" y="135" width="24" height="18" style="fill:rgb(147,94,47)" />
<rect x="310" y="158" width="24" height="18" style="fill:rgb(112,244,212)" />
<rect x="310" y="181" width="24" height="18" style="fill:rgb(167,189,253)" />
<rect x="310" y="204" width="24" height="18" style="fill:rgb(33,243,97)" />
<rect x="310" y="227" width="24" height="18" style="fill:rgb(191,215,168)" />
<rect x="310" y="250" width="24" height="18" style="fill:rgb(249,24,227)" />
<rect x="310" y="273" width="24" height="18" style="fill:rgb(173,204,89)" />
<rect x="310" y="296" width="24" height="18" style="fill:rgb(238,94,68)" />
<rect x="310" y="319" width="24" height="18" style="fill:rgb(3,161,53)" />
<rect x="310" y="342" width="24" height="18" style="fill:rgb(34,134,36)" />
<rect x="310" y="365" width="24" height="18" style="fill:rgb(148,180,53)" />
<rect x="339" y="20" width="24" height="18" style="fill:rgb(121,204,124)" />
<rect x="339" y="43" width="24" height="18" style="fill:rgb(94,132,253)" />
<rect x="339" y="66" width="24" height="18" style="fill:rgb(4,46,79)" />
<rect x="339" y="89" width="24" height="18" style="fill:rgb(121,161,190)" />
<rect x="339" y="112" width="24" height="18" style="fill:rgb(137,131,26)" />
<rect x="339" y="135" width="24" height="18" style="fill:rgb(41,148,250)" />
<rect x="339" y="158" width="24" height="18" style="fill:rgb(240,120,140)" />
<rect x="339" y="181" width="24" height="18" style="fill:rgb(242,122,222)" />
<rect x="339" y="204" width="24" height="18" style="fill:rgb(23,98,58)" />
<rect x="339" y="227" width="24" height="18" style="fill:rgb(52,112,96)" />
<rect x="339" y="250" width="24" height="18" style="fill:rgb(238,95,242)" />
<rect x="339" y="273" width="24" height="18" style="fill:rgb(229,224,204)" />
<rect x="339" y="296" width="24" height="18" style="fill:rgb(121,181,220)" />
<rect x="339" y="319" width="24" height="18" style="fill:rgb(1,105,228)" />
<rect x="339" y="342" width="24" height="18" style="fill:rgb(218,34,111)" />
<rect x="339" y="365" width="24" height="18" style="fill:rgb(40,253,144)" />
<rect x="368" y="20" width="24" height="18" style="fill:rgb(173,5,183)" />
<rect x="368" y="43" width="24" height="18" style="fill:rgb(169,53,37)" />
<rect x="368" y="66" width="24" height="18" style="fill:rgb(133,5,185)" />
<rect x="368" y="89" width="24" height="18" style="fill:rgb(205,238,230)" />
<rect x="368" y="112" width="24" height="18" style="fill:rgb(227,246,206)" />
<rect x="368" y="135" width="24" height="18" style="fill:rgb(99,95,13)" />
<rect x="368" y="158" width="24" height="18" style="fill:rgb(29,153,44)" />
<rect x="368" y="181" width="24" height="18" style="fill:rgb(172,19,83)" />
<rect x="368" y="204" width="24" height="18" style="fill:rgb(131,9,160)" />
<rect x="368" y="227" width="24" height="18" style="fill:rgb(254,163,120)" />
<rect x="368" y="250" width="24" height="18" style="fill:rgb(212,74,66)" />
<rect x="368" y="273" width="24" height="18" style="fill:rgb(47,184,117)" />
<rect x="368" y="296" width="24" height="18" style="fill:rgb(153,200,77)" />
<rect x="368" y="319" width="24" height="18" style="fill:rgb(218,119,185)" />
<rect x="368" y="342" width="24" height="18" style="fill:rgb(132,19,13)" />
<rect x="368" y="365" width="24" height="18" style="fill:rgb(173,247,162)" />
<rect x="397" y="20" width="24" height="18" style="fill:rgb(203,27,133)" />
<rect x="397" y="43" width="24" height="18" style="fill:rgb(209,148,238)" />
<rect x="397" y="66" width="24" height="18" style="fill:rgb(42,80,30)" />
<rect x="397" y="89" width="24" height="18" style="fill:rgb(56,168,93)" />
<rect x="397" y="112" width="24" height="18" style="fill:rgb(145,109,156)" />
<rect x="397" y="135" width="24" height="18" style="fill:rgb(32,193,59)" />
<rect x="397" y="158" width="24" height="18" style="fill:rgb(166,233,110)" />
<rect x="397" y="181" width="24" height="18" style="fill:rgb(142,191,185)" />
<rect x="397" y="204" width="24" height="18" style="fill:rgb(227,221,31)" />
<rect x="397" y="227" width="24" height="18" style="fill:rgb(69,83,58)" />
<rect x="397" y="250" width="24" height="18" style="fill:rgb(5,174,140)" />
<rect x="397" y="273" width="24" height="18" style="fill:rgb(158,151,226)" />
<rect x="397" y="296" width="24" height="18" style="fill:rgb(167,112,212)" />
<rect x="397" y="319" width="24" height="18" style="fill:rgb(107,188,60)" />
<rect x="397" y="342" width="24" height="18" style="fill:rgb(215,254,115)" />
<rect x="397" y="365" width="24" height="18" style="fill:rgb(242,221,109)" />
<rect x="426" y="20" width="24" height="18" style="fill:rgb(85,89,109)" />
<rect x="426" y="43" width="24" height="18" style="fill:rgb(105,149,123)" />
<rect x="426" y="66" width="24" height="18" style="fill:rgb(126,175,173)" />
<rect x="426" y="89" width="24" height="18" style="fill:rgb(156,245,152)" />
<rect x="426" y="112" width="24" height="18" style="fill:rgb(212,163,86)" />
<rect x="426" y="135" width="24" height="18" style="fill:rgb(199,143,138)" />
<rect x="426" y="158" width="24" height="18" style="fill:rgb(22,207,249)" />
<rect x="426" y="181" width="24" height="18" style="fill:rgb(53,86,45)" />
<rect x="426" y="204" width="24" height="18" style="fill:rgb(112,97,115)" />
<rect x="426" y="227" width="24" height="18" style="fill:rgb(129,183,48)" />
<rect x="426" y="250" width="24" height="18" style="fill:rgb(156,238,26)" />
<rect x="426" y="273" width="24" height="18" style="fill:rgb(244,114,177)" />
<rect x="426" y="296" width="24" height="18" style="fill:rgb(154,243,207)" />
<rect x="426" y="319" width="24" height="18" style="fill:rgb(49,162,224)" />
<rect x="426" y="342" width="24" height="18" style="fill:rgb(143,95,252)" />
<rect x="426" y="365" width="24" height="18" style="fill:rgb(106,1,98)" />
<rect x="455" y="20" width="24" height="18" style="fill:rgb(48,78,29)" />
<rect x="455" y="43" width="24" height="18" style="fill:rgb(64,252,253)" />
<rect x="455" y="66" width="24" height="18" style="fill:rgb(170,249,213)" />
<rect x="455" y="89" width="24" height="18" style="fill:rgb(172,189,204)" />
<rect x="455" y="112" width="24" height="18" style="fill:rgb(189,76,66)" />
<rect x="455" y="135" width="24" height="18" style="fill:rgb(120,2,115)" />
<rect x="455" y="158" width="24" height="18" style="fill:rgb(10,43,176)" />
<rect x="455" y="181" width="24" height="18" style="fill:rgb(80,14,85)" />
<rect x="455" y="204" width="24" height="18" style="fill:rgb(45,33,115)" />
<rect x="455" y="227" width="24" height="18" style="fill:rgb(51,248,98)" />
<rect x="455" y="250" width="24" height="18" style="fill:rgb(194,208,30)" />
<rect x="455" y="273" width="24" height="18" style="fill:rgb(215,154,96)" />
<rect x="455" y="296" width="24" height="18" style="fill:rgb(235,36,40)" />
<rect x="455" y="319" width="24" height="18" style="fill:rgb(98,72,157)" />
<rect x="455" y="342" width="24" height="18" style="fill:rgb(214,138,127)" />
<rect x="455" y="365" width="24" height="18" style="fill:rgb(139,157,136)" />
</svg>
