<?xml version="1.0"?>
<!-- Generated by gensvg -->
<svg width="500.00" height="500.00"
     xmlns="http://www.w3.org/2000/svg"
     xmlns:xlink="http://www.w3.org/1999/xlink">
<path d="M129.11,250.00 A62.14,62.14 0.00 0 1 253.40,250.00" style="stroke:green;stroke-opacity:0.38;stroke-width:24.64px;fill:none" />
<path d="M245.13,250.00 A28.60,28.60 0.00 0 0 302.33,250.00" style="stroke:green;stroke-opacity:0.53;stroke-width:38.90px;fill:none" />
<path d="M59.20,250.00 A70.67,70.67 0.00 0 1 200.54,250.00" style="stroke:gray;stroke-opacity:0.81;stroke-width:22.52px;fill:none" />
<path d="M68.47,250.00 A96.61,96.61 0.00 0 0 261.70,250.00" style="stroke:green;stroke-opacity:0.44;stroke-width:18.25px;fill:none" />
<path d="M128.87,250.00 A42.35,42.35 0.00 0 1 213.58,250.00" style="stroke:green;stroke-opacity:0.06;stroke-width:26.63px;fill:none" />
<path d="M30.81,250.00 A10.20,10.20 0.00 0 0 51.21,250.00" style="stroke:gray;stroke-opacity:0.52;stroke-width:17.87px;fill:none" />
<path d="M10.86,250.00 A58.94,58.94 0.00 0 1 128.74,250.00" style="stroke:red;stroke-opacity:0.10;stroke-width:28.49px;fill:none" />
<path d="M102.94,250.00 A109.30,109.30 0.00 0 0 321.55,250.00" style="stroke:green;stroke-opacity:0.85;stroke-width:5.47px;fill:none" />
<path d="M163.79,250.00 A30.54,30.54 0.00 0 1 224.87,250.00" style="stroke:red;stroke-opacity:0.72;stroke-width:3.97px;fill:none" />
<path d="M239.92,250.00 A55.88,55.88 0.00 0 0 351.69,250.00" style="stroke:red;stroke-opacity:0.35;stroke-width:14.43px;fill:none" />
<path d="M22.72,250.00 A94.97,94.97 0.00 0 1 212.66,250.00" style="stroke:red;stroke-opacity:0.17;stroke-width:12.43px;fill:none" />
<path d="M126.93,250.00 A108.77,108.77 0.00 0 0 344.48,250.00" style="stroke:green;stroke-opacity:0.25;stroke-width:8.64px;fill:none" />
<path d="M47.05,250.00 A2.06,2.06 0.00 0 1 51.16,250.00" style="stroke:gray;stroke-opacity:0.06;stroke-width:47.87px;fill:none" />
<path d="M81.99,250.00 A98.41,98.41 0.00 0 0 278.82,250.00" style="stroke:blue;stroke-opacity:0.96;stroke-width:45.56px;fill:none" />
<path d="M78.26,250.00 A4.46,4.46 0.00 0 1 87.18,250.00" style="stroke:blue;stroke-opacity:0.85;stroke-width:8.22px;fill:none" />
<path d="M129.50,250.00 A83.66,83.66 0.00 0 0 296.82,250.00" style="stroke:blue;stroke-opacity:0.45;stroke-width:23.04px;fill:none" />
<path d="M165.91,250.00 A30.37,30.37 0.00 0 1 226.66,250.00" style="stroke:red;stroke-opacity:0.68;stroke-width:10.63px;fill:none" />
<path d="M230.51,250.00 A59.31,59.31 0.00 0 0 349.12,250.00" style="stroke:gray;stroke-opacity:0.17;stroke-width:49.46px;fill:none" />
<path d="M109.01,250.00 A69.27,69.27 0.00 0 1 247.55,250.00" style="stroke:gray;stroke-opacity:0.61;stroke-width:21.35px;fill:none" />
<path d="M116.76,250.00 A99.81,99.81 0.00 0 0 316.38,250.00" style="stroke:gray;stroke-opacity:0.30;stroke-width:2.39px;fill:none" />
<path d="M108.43,250.00 A108.80,108.80 0.00 0 1 326.04,250.00" style="stroke:red;stroke-opacity:0.13;stroke-width:26.79px;fill:none" />
<path d="M77.42,250.00 A85.75,85.75 0.00 0 0 248.91,250.00" style="stroke:gray;stroke-opacity:0.68;stroke-width:11.24px;fill:none" />
<path d="M150.70,250.00 A19.89,19.89 0.00 0 1 190.47,250.00" style="stroke:red;stroke-opacity:0.26;stroke-width:24.45px;fill:none" />
<path d="M111.19,250.00 A2.54,2.54 0.00 0 0 116.27,250.00" style="stroke:green;stroke-opacity:0.12;stroke-width:20.60px;fill:none" />
<path d="M161.64,250.00 A19.95,19.95 0.00 0 1 201.55,250.00" style="stroke:red;stroke-opacity:0.50;stroke-width:17.41px;fill:none" />
<path d="M152.66,250.00 A46.12,46.12 0.00 0 0 244.90,250.00" style="stroke:green;stroke-opacity:0.13;stroke-width:46.41px;fill:none" />
<path d="M76.01,250.00 A119.45,119.45 0.00 0 1 314.92,250.00" style="stroke:green;stroke-opacity:0.90;stroke-width:36.48px;fill:none" />
<path d="M170.10,250.00 A82.98,82.98 0.00 0 0 336.07,250.00" style="stroke:green;stroke-opacity:0.97;stroke-width:11.86px;fill:none" />
<path d="M201.60,250.00 A50.36,50.36 0.00 0 1 302.32,250.00" style="stroke:blue;stroke-opacity:0.64;stroke-width:31.81px;fill:none" />
<path d="M244.56,250.00 A84.40,84.40 0.00 0 0 413.36,250.00" style="stroke:blue;stroke-opacity:0.47;stroke-width:37.76px;fill:none" />
<path d="M220.22,250.00 A69.48,69.48 0.00 0 1 359.17,250.00" style="stroke:red;stroke-opacity:0.21;stroke-width:8.82px;fill:none" />
<path d="M222.09,250.00 A46.38,46.38 0.00 0 0 314.84,250.00" style="stroke:green;stroke-opacity:0.93;stroke-width:4.57px;fill:none" />
<path d="M119.50,250.00 A2.89,2.89 0.00 0 1 125.28,250.00" style="stroke:red;stroke-opacity:0.25;stroke-width:48.94px;fill:none" />
<path d="M166.83,250.00 A71.05,71.05 0.00 0 0 308.94,250.00" style="stroke:green;stroke-opacity:0.31;stroke-width:8.42px;fill:none" />
<path d="M191.47,250.00 A84.51,84.51 0.00 0 1 360.49,250.00" style="stroke:red;stroke-opacity:0.53;stroke-width:46.23px;fill:none" />
<path d="M52.49,250.00 A2.73,2.73 0.00 0 0 57.95,250.00" style="stroke:green;stroke-opacity:0.74;stroke-width:40.27px;fill:none" />
<path d="M180.21,250.00 A33.20,33.20 0.00 0 1 246.62,250.00" style="stroke:blue;stroke-opacity:0.06;stroke-width:0.20px;fill:none" />
<path d="M230.56,250.00 A87.85,87.85 0.00 0 0 406.27,250.00" style="stroke:gray;stroke-opacity:0.48;stroke-width:29.29px;fill:none" />
<path d="M47.09,250.00 A77.85,77.85 0.00 0 1 202.80,250.00" style="stroke:red;stroke-opacity:0.78;stroke-width:42.34px;fill:none" />
<path d="M11.86,250.00 A57.05,57.05 0.00 0 0 125.96,250.00" style="stroke:blue;stroke-opacity:0.94;stroke-width:28.82px;fill:none" />
</svg>
