<?xml version="1.0"?>
<!-- Generated by gensvg -->
<svg width="500.00" height="500.00"
     xmlns="http://www.w3.org/2000/svg"
     xmlns:xlink="http://www.w3.org/1999/xlink">
<g style="font-family:Symbola;font-size:16.00px;text-anchor:middle">
<text x="75.00" y="50.00" style="text-anchor:end;fill:gray" >2600</text>
<text x="100.00" y="25.00" style="fill:gray" >00</text>
<text x="100.00" y="50.00" >☀</text>
<text x="125.00" y="25.00" style="fill:gray" >01</text>
<text x="125.00" y="50.00" >☁</text>
<text x="150.00" y="25.00" style="fill:gray" >02</text>
<text x="150.00" y="50.00" >☂</text>
<text x="175.00" y="25.00" style="fill:gray" >03</text>
<text x="175.00" y="50.00" >☃</text>
<text x="200.00" y="25.00" style="fill:gray" >04</text>
<text x="200.00" y="50.00" >☄</text>
<text x="225.00" y="25.00" style="fill:gray" >05</text>
<text x="225.00" y="50.00" >★</text>
<text x="250.00" y="25.00" style="fill:gray" >06</text>
<text x="250.00" y="50.00" >☆</text>
<text x="275.00" y="25.00" style="fill:gray" >07</text>
<text x="275.00" y="50.00" >☇</text>
<text x="300.00" y="25.00" style="fill:gray" >08</text>
<text x="300.00" y="50.00" >☈</text>
<text x="325.00" y="25.00" style="fill:gray" >09</text>
<text x="325.00" y="50.00" >☉</text>
<text x="350.00" y="25.00" style="fill:gray" >0A</text>
<text x="350.00" y="50.00" >☊</text>
<text x="375.00" y="25.00" style="fill:gray" >0B</text>
<text x="375.00" y="50.00" >☋</text>
<text x="400.00" y="25.00" style="fill:gray" >0C</text>
<text x="400.00" y="50.00" >☌</text>
<text x="425.00" y="25.00" style="fill:gray" >0D</text>
<text x="425.00" y="50.00" >☍</text>
<text x="450.00" y="25.00" style="fill:gray" >0E</text>
<text x="450.00" y="50.00" >☎</text>
<text x="475.00" y="25.00" style="fill:gray" >0F</text>
<text x="475.00" y="50.00" >☏</text>
<text x="75.00" y="75.00" style="text-anchor:end;fill:gray" >2610</text>
<text x="100.00" y="75.00" >☐</text>
<text x="125.00" y="75.00" >☑</text>
<text x="150.00" y="75.00" >☒</text>
<text x="175.00" y="75.00" >☓</text>
<text x="200.00" y="75.00" >☔</text>
<text x="225.00" y="75.00" >☕</text>
<text x="250.00" y="75.00" >☖</text>
<text x="275.00" y="75.00" >☗</text>
<text x="300.00" y="75.00" >☘</text>
<text x="325.00" y="75.00" >☙</text>
<text x="350.00" y="75.00" >☚</text>
<text x="375.00" y="75.00" >☛</text>
<text x="400.00" y="75.00" >☜</text>
<text x="425.00" y="75.00" >☝</text>
<text x="450.00" y="75.00" >☞</text>
<text x="475.00" y="75.00" >☟</text>
<text x="75.00" y="100.00" style="text-anchor:end;fill:gray" >2620</text>
<text x="100.00" y="100.00" >☠</text>
<text x="125.00" y="100.00" >☡</text>
<text x="150.00" y="100.00" >☢</text>
<text x="175.00" y="100.00" >☣</text>
<text x="200.00" y="100.00" >☤</text>
<text x="225.00" y="100.00" >☥</text>
<text x="250.00" y="100.00" >☦</text>
<text x="275.00" y="100.00" >☧</text>
<text x="300.00" y="100.00" >☨</text>
<text x="325.00" y="100.00" >☩</text>
<text x="350.00" y="100.00" >☪</text>
<text x="375.00" y="100.00" >☫</text>
<text x="400.00" y="100.00" >☬</text>
<text x="425.00" y="100.00" >☭</text>
<text x="450.00" y="100.00" >☮</text>
<text x="475.00" y="100.00" >☯</text>
<text x="75.00" y="125.00" style="text-anchor:end;fill:gray" >2630</text>
<text x="100.00" y="125.00" >☰</text>
<text x="125.00" y="125.00" >☱</text>
<text x="150.00" y="125.00" >☲</text>
<text x="175.00" y="125.00" >☳</text>
<text x="200.00" y="125.00" >☴</text>
<text x="225.00" y="125.00" >☵</text>
<text x="250.00" y="125.00" >☶</text>
<text x="275.00" y="125.00" >☷</text>
<text x="300.00" y="125.00" >☸</text>
<text x="325.00" y="125.00" >☹</text>
<text x="350.00" y="125.00" >☺</text>
<text x="375.00" y="125.00" >☻</text>
<text x="400.00" y="125.00" >☼</text>
<text x="425.00" y="125.00" >☽</text>
<text x="450.00" y="125.00" >☾</text>
<text x="475.00" y="125.00" >☿</text>
<text x="75.00" y="150.00" style="text-anchor:end;fill:gray" >2640</text>
<text x="100.00" y="150.00" >♀</text>
<text x="125.00" y="150.00" >♁</text>
<text x="150.00" y="150.00" >♂</text>
<text x="175.00" y="150.00" >♃</text>
<text x="200.00" y="150.00" >♄</text>
<text x="225.00" y="150.00" >♅</text>
<text x="250.00" y="150.00" >♆</text>
<text x="275.00" y="150.00" >♇</text>
<text x="300.00" y="150.00" >♈</text>
<text x="325.00" y="150.00" >♉</text>
<text x="350.00" y="150.00" >♊</text>
<text x="375.00" y="150.00" >♋</text>
<text x="400.00" y="150.00" >♌</text>
<text x="425.00" y="150.00" >♍</text>
<text x="450.00" y="150.00" >♎</text>
<text x="475.00" y="150.00" >♏</text>
<text x="75.00" y="175.00" style="text-anchor:end;fill:gray" >2650</text>
<text x="100.00" y="175.00" >♐</text>
<text x="125.00" y="175.00" >♑</text>
<text x="150.00" y="175.00" >♒</text>
<text x="175.00" y="175.00" >♓</text>
<text x="200.00" y="175.00" >♔</text>
<text x="225.00" y="175.00" >♕</text>
<text x="250.00" y="175.00" >♖</text>
<text x="275.00" y="175.00" >♗</text>
<text x="300.00" y="175.00" >♘</text>
<text x="325.00" y="175.00" >♙</text>
<text x="350.00" y="175.00" >♚</text>
<text x="375.00" y="175.00" >♛</text>
<text x="400.00" y="175.00" >♜</text>
<text x="425.00" y="175.00" >♝</text>
<text x="450.00" y="175.00" >♞</text>
<text x="475.00" y="175.00" >♟</text>
<text x="75.00" y="200.00" style="text-anchor:end;fill:gray" >2660</text>
<text x="100.00" y="200.00" >♠</text>
<text x="125.00" y="200.00" >♡</text>
<text x="150.00" y="200.00" >♢</text>
<text x="175.00" y="200.00" >♣</text>
<text x="200.00" y="200.00" >♤</text>
<text x="225.00" y="200.00" >♥</text>
<text x="250.00" y="200.00" >♦</text>
<text x="275.00" y="200.00" >♧</text>
<text x="300.00" y="200.00" >♨</text>
<text x="325.00" y="200.00" >♩</text>
<text x="350.00" y="200.00" >♪</text>
<text x="375.00" y="200.00" >♫</text>
<text x="400.00" y="200.00" >♬</text>
<text x="425.00" y="200.00" >♭</text>
<text x="450.00" y="200.00" >♮</text>
<text x="475.00" y="200.00" >♯</text>
<text x="75.00" y="225.00" style="text-anchor:end;fill:gray" >2670</text>
<text x="100.00" y="225.00" >♰</text>
<text x="125.00" y="225.00" >♱</text>
<text x="150.00" y="225.00" >♲</text>
<text x="175.00" y="225.00" >♳</text>
<text x="200.00" y="225.00" >♴</text>
<text x="225.00" y="225.00" >♵</text>
<text x="250.00" y="225.00" >♶</text>
<text x="275.00" y="225.00" >♷</text>
<text x="300.00" y="225.00" >♸</text>
<text x="325.00" y="225.00" >♹</text>
<text x="350.00" y="225.00" >♺</text>
<text x="375.00" y="225.00" >♻</text>
<text x="400.00" y="225.00" >♼</text>
<text x="425.00" y="225.00" >♽</text>
<text x="450.00" y="225.00" >♾</text>
<text x="475.00" y="225.00" >♿</text>
<text x="75.00" y="250.00" style="text-anchor:end;fill:gray" >2680</text>
<text x="100.00" y="250.00" >⚀</text>
<text x="125.00" y="250.00" >⚁</text>
<text x="150.00" y="250.00" >⚂</text>
<text x="175.00" y="250.00" >⚃</text>
<text x="200.00" y="250.00" >⚄</text>
<text x="225.00" y="250.00" >⚅</text>
<text x="250.00" y="250.00" >⚆</text>
<text x="275.00" y="250.00" >⚇</text>
<text x="300.00" y="250.00" >⚈</text>
<text x="325.00" y="250.00" >⚉</text>
<text x="350.00" y="250.00" >⚊</text>
<text x="375.00" y="250.00" >⚋</text>
<text x="400.00" y="250.00" >⚌</text>
<text x="425.00" y="250.00" >⚍</text>
<text x="450.00" y="250.00" >⚎</text>
<text x="475.00" y="250.00" >⚏</text>
<text x="75.00" y="275.00" style="text-anchor:end;fill:gray" >2690</text>
<text x="100.00" y="275.00" >⚐</text>
<text x="125.00" y="275.00" >⚑</text>
<text x="150.00" y="275.00" >⚒</text>
<text x="175.00" y="275.00" >⚓</text>
<text x="200.00" y="275.00" >⚔</text>
<text x="225.00" y="275.00" >⚕</text>
<text x="250.00" y="275.00" >⚖</text>
<text x="275.00" y="275.00" >⚗</text>
<text x="300.00" y="275.00" >⚘</text>
<text x="325.00" y="275.00" >⚙</text>
<text x="350.00" y="275.00" >⚚</text>
<text x="375.00" y="275.00" >⚛</text>
<text x="400.00" y="275.00" >⚜</text>
<text x="425.00" y="275.00" >⚝</text>
<text x="450.00" y="275.00" >⚞</text>
<text x="475.00" y="275.00" >⚟</text>
<text x="75.00" y="300.00" style="text-anchor:end;fill:gray" >26A0</text>
<text x="100.00" y="300.00" >⚠</text>
<text x="125.00" y="300.00" >⚡</text>
<text x="150.00" y="300.00" >⚢</text>
<text x="175.00" y="300.00" >⚣</text>
<text x="200.00" y="300.00" >⚤</text>
<text x="225.00" y="300.00" >⚥</text>
<text x="250.00" y="300.00" >⚦</text>
<text x="275.00" y="300.00" >⚧</text>
<text x="300.00" y="300.00" >⚨</text>
<text x="325.00" y="300.00" >⚩</text>
<text x="350.00" y="300.00" >⚪</text>
<text x="375.00" y="300.00" >⚫</text>
<text x="400.00" y="300.00" >⚬</text>
<text x="425.00" y="300.00" >⚭</text>
<text x="450.00" y="300.00" >⚮</text>
<text x="475.00" y="300.00" >⚯</text>
<text x="75.00" y="325.00" style="text-anchor:end;fill:gray" >26B0</text>
<text x="100.00" y="325.00" >⚰</text>
<text x="125.00" y="325.00" >⚱</text>
<text x="150.00" y="325.00" >⚲</text>
<text x="175.00" y="325.00" >⚳</text>
<text x="200.00" y="325.00" >⚴</text>
<text x="225.00" y="325.00" >⚵</text>
<text x="250.00" y="325.00" >⚶</text>
<text x="275.00" y="325.00" >⚷</text>
<text x="300.00" y="325.00" >⚸</text>
<text x="325.00" y="325.00" >⚹</text>
<text x="350.00" y="325.00" >⚺</text>
<text x="375.00" y="325.00" >⚻</text>
<text x="400.00" y="325.00" >⚼</text>
<text x="425.00" y="325.00" >⚽</text>
<text x="450.00" y="325.00" >⚾</text>
<text x="475.00" y="325.00" >⚿</text>
<text x="75.00" y="350.00" style="text-anchor:end;fill:gray" >26C0</text>
<text x="100.00" y="350.00" >⛀</text>
<text x="125.00" y="350.00" >⛁</text>
<text x="150.00" y="350.00" >⛂</text>
<text x="175.00" y="350.00" >⛃</text>
<text x="200.00" y="350.00" >⛄</text>
<text x="225.00" y="350.00" >⛅</text>
<text x="250.00" y="350.00" >⛆</text>
<text x="275.00" y="350.00" >⛇</text>
<text x="300.00" y="350.00" >⛈</text>
<text x="325.00" y="350.00" >⛉</text>
<text x="350.00" y="350.00" >⛊</text>
<text x="375.00" y="350.00" >⛋</text>
<text x="400.00" y="350.00" >⛌</text>
<text x="425.00" y="350.00" >⛍</text>
<text x="450.00" y="350.00" >⛎</text>
<text x="475.00" y="350.00" >⛏</text>
<text x="75.00" y="375.00" style="text-anchor:end;fill:gray" >26D0</text>
<text x="100.00" y="375.00" >⛐</text>
<text x="125.00" y="375.00" >⛑</text>
<text x="150.00" y="375.00" >⛒</text>
<text x="175.00" y="375.00" >⛓</text>
<text x="200.00" y="375.00" >⛔</text>
<text x="225.00" y="375.00" >⛕</text>
<text x="250.00" y="375.00" >⛖</text>
<text x="275.00" y="375.00" >⛗</text>
<text x="300.00" y="375.00" >⛘</text>
<text x="325.00" y="375.00" >⛙</text>
<text x="350.00" y="375.00" >⛚</text>
<text x="375.00" y="375.00" >⛛</text>
<text x="400.00" y="375.00" >⛜</text>
<text x="425.00" y="375.00" >⛝</text>
<text x="450.00" y="375.00" >⛞</text>
<text x="475.00" y="375.00" >⛟</text>
<text x="75.00" y="400.00" style="text-anchor:end;fill:gray" >26E0</text>
<text x="100.00" y="400.00" >⛠</text>
<text x="125.00" y="400.00" >⛡</text>
<text x="150.00" y="400.00" >⛢</text>
<text x="175.00" y="400.00" >⛣</text>
<text x="200.00" y="400.00" >⛤</text>
<text x="225.00" y="400.00" >⛥</text>
<text x="250.00" y="400.00" >⛦</text>
<text x="275.00" y="400.00" >⛧</text>
<text x="300.00" y="400.00" >⛨</text>
<text x="325.00" y="400.00" >⛩</text>
<text x="350.00" y="400.00" >⛪</text>
<text x="375.00" y="400.00" >⛫</text>
<text x="400.00" y="400.00" >⛬</text>
<text x="425.00" y="400.00" >⛭</text>
<text x="450.00" y="400.00" >⛮</text>
<text x="475.00" y="400.00" >⛯</text>
<text x="75.00" y="425.00" style="text-anchor:end;fill:gray" >26F0</text>
<text x="100.00" y="425.00" >⛰</text>
<text x="125.00" y="425.00" >⛱</text>
<text x="150.00" y="425.00" >⛲</text>
<text x="175.00" y="425.00" >⛳</text>
<text x="200.00" y="425.00" >⛴</text>
<text x="225.00" y="425.00" >⛵</text>
<text x="250.00" y="425.00" >⛶</text>
<text x="275.00" y="425.00" >⛷</text>
<text x="300.00" y="425.00" >⛸</text>
<text x="325.00" y="425.00" >⛹</text>
<text x="350.00" y="425.00" >⛺</text>
<text x="375.00" y="425.00" >⛻</text>
<text x="400.00" y="425.00" >⛼</text>
<text x="425.00" y="425.00" >⛽</text>
<text x="450.00" y="425.00" >⛾</text>
<text x="475.00" y="425.00" >⛿</text>
</g>
</svg>
