<?xml version="1.0"?>
<!-- Generated by gensvg -->
<svg width="512.00" height="512.00"
     xmlns="http://www.w3.org/2000/svg"
     xmlns:xlink="http://www.w3.org/1999/xlink">
<rect x="0.00" y="0.00" width="512.00" height="512.00" style="fill:white" />
<g style="fill:rgb(0,0,127);fill-opacity:0.3">
<g transform="translate(80.06,80.06) rotate(0.20691199936990273)">
<rect x="-16.00" y="-16.00" width="32.00" height="32.00" />
</g>
<g transform="translate(112.07,80.07) rotate(-0.09629712118113565)">
<rect x="-16.00" y="-16.00" width="32.00" height="32.00" />
</g>
<g transform="translate(143.96,79.96) rotate(0.1511010760307641)">
<rect x="-16.00" y="-16.00" width="32.00" height="32.00" />
</g>
<g transform="translate(175.99,79.99) rotate(-0.034434236041214074)">
<rect x="-16.00" y="-16.00" width="32.00" height="32.00" />
</g>
<g transform="translate(207.99,79.99) rotate(-0.06620060932876316)">
<rect x="-16.00" y="-16.00" width="32.00" height="32.00" />
</g>
<g transform="translate(240.05,80.05) rotate(0.1790007914178213)">
<rect x="-16.00" y="-16.00" width="32.00" height="32.00" />
</g>
<g transform="translate(271.98,79.98) rotate(-0.08374458164593092)">
<rect x="-16.00" y="-16.00" width="32.00" height="32.00" />
</g>
<g transform="translate(303.97,79.97) rotate(-0.1031557658785331)">
<rect x="-16.00" y="-16.00" width="32.00" height="32.00" />
</g>
<g transform="translate(335.97,79.97) rotate(-0.06448240861409947)">
<rect x="-16.00" y="-16.00" width="32.00" height="32.00" />
</g>
<g transform="translate(368.07,80.07) rotate(-0.048081671570408144)">
<rect x="-16.00" y="-16.00" width="32.00" height="32.00" />
</g>
<g transform="translate(399.98,79.98) rotate(-0.07939171170851932)">
<rect x="-16.00" y="-16.00" width="32.00" height="32.00" />
</g>
<g transform="translate(432.06,80.06) rotate(0.189748116238535)">
<rect x="-16.00" y="-16.00" width="32.00" height="32.00" />
</g>
<g transform="translate(79.91,111.91) rotate(-0.19607449194715243)">
<rect x="-16.00" y="-16.00" width="32.00" height="32.00" />
</g>
<g transform="translate(112.22,112.22) rotate(-0.1363445568630411)">
<rect x="-16.00" y="-16.00" width="32.00" height="32.00" />
</g>
<g transform="translate(144.26,112.26) rotate(0.45983464939277896)">
<rect x="-16.00" y="-16.00" width="32.00" height="32.00" />
</g>
<g transform="translate(176.16,112.16) rotate(-0.018680034995087396)">
<rect x="-16.00" y="-16.00" width="32.00" height="32.00" />
</g>
<g transform="translate(207.95,111.95) rotate(0.40078727010004017)">
<rect x="-16.00" y="-16.00" width="32.00" height="32.00" />
</g>
<g transform="translate(240.29,112.29) rotate(-0.05243939142675551)">
<rect x="-16.00" y="-16.00" width="32.00" height="32.00" />
</g>
<g transform="translate(272.18,112.18) rotate(-0.03901962986715769)">
<rect x="-16.00" y="-16.00" width="32.00" height="32.00" />
</g>
<g transform="translate(304.21,112.21) rotate(-0.1990049694643296)">
<rect x="-16.00" y="-16.00" width="32.00" height="32.00" />
</g>
<g transform="translate(335.95,111.95) rotate(0.3571259043057653)">
<rect x="-16.00" y="-16.00" width="32.00" height="32.00" />
</g>
<g transform="translate(368.16,112.16) rotate(-0.18381503039863184)">
<rect x="-16.00" y="-16.00" width="32.00" height="32.00" />
</g>
<g transform="translate(399.87,111.87) rotate(0.3501865721314654)">
<rect x="-16.00" y="-16.00" width="32.00" height="32.00" />
</g>
<g transform="translate(431.92,111.92) rotate(-0.18617345667685029)">
<rect x="-16.00" y="-16.00" width="32.00" height="32.00" />
</g>
<g transform="translate(80.47,144.47) rotate(-0.47758323423401833)">
<rect x="-16.00" y="-16.00" width="32.00" height="32.00" />
</g>
<g transform="translate(112.52,144.52) rotate(-0.3921881840444975)">
<rect x="-16.00" y="-16.00" width="32.00" height="32.00" />
</g>
<g transform="translate(144.53,144.53) rotate(-0.12864009628683387)">
<rect x="-16.00" y="-16.00" width="32.00" height="32.00" />
</g>
<g transform="translate(176.58,144.58) rotate(-0.09806411861379279)">
<rect x="-16.00" y="-16.00" width="32.00" height="32.00" />
</g>
<g transform="translate(207.87,143.87) rotate(0.8990233723581936)">
<rect x="-16.00" y="-16.00" width="32.00" height="32.00" />
</g>
<g transform="translate(239.86,143.86) rotate(-0.4112096264898928)">
<rect x="-16.00" y="-16.00" width="32.00" height="32.00" />
</g>
<g transform="translate(272.55,144.55) rotate(0.9792406271892063)">
<rect x="-16.00" y="-16.00" width="32.00" height="32.00" />
</g>
<g transform="translate(304.48,144.48) rotate(0.963905550029147)">
<rect x="-16.00" y="-16.00" width="32.00" height="32.00" />
</g>
<g transform="translate(335.89,143.89) rotate(-0.5654313479849863)">
<rect x="-16.00" y="-16.00" width="32.00" height="32.00" />
</g>
<g transform="translate(368.53,144.53) rotate(0.9011026041774818)">
<rect x="-16.00" y="-16.00" width="32.00" height="32.00" />
</g>
<g transform="translate(400.58,144.58) rotate(1.2173201817766794)">
<rect x="-16.00" y="-16.00" width="32.00" height="32.00" />
</g>
<g transform="translate(431.95,143.95) rotate(-0.6509474369704421)">
<rect x="-16.00" y="-16.00" width="32.00" height="32.00" />
</g>
<g transform="translate(80.92,176.92) rotate(2.10087996891692)">
<rect x="-16.00" y="-16.00" width="32.00" height="32.00" />
</g>
<g transform="translate(111.66,175.66) rotate(1.5198454293124937)">
<rect x="-16.00" y="-16.00" width="32.00" height="32.00" />
</g>
<g transform="translate(144.70,176.70) rotate(1.2403151107935817)">
<rect x="-16.00" y="-16.00" width="32.00" height="32.00" />
</g>
<g transform="translate(176.64,176.64) rotate(1.213883107828105)">
<rect x="-16.00" y="-16.00" width="32.00" height="32.00" />
</g>
<g transform="translate(208.75,176.75) rotate(-0.8883672287505409)">
<rect x="-16.00" y="-16.00" width="32.00" height="32.00" />
</g>
<g transform="translate(239.87,175.87) rotate(2.169122404548543)">
<rect x="-16.00" y="-16.00" width="32.00" height="32.00" />
</g>
<g transform="translate(272.89,176.89) rotate(-0.7085847351459399)">
<rect x="-16.00" y="-16.00" width="32.00" height="32.00" />
</g>
<g transform="translate(304.71,176.71) rotate(1.4179875215205249)">
<rect x="-16.00" y="-16.00" width="32.00" height="32.00" />
</g>
<g transform="translate(335.92,175.92) rotate(1.473065654939504)">
<rect x="-16.00" y="-16.00" width="32.00" height="32.00" />
</g>
<g transform="translate(368.62,176.62) rotate(-0.8133242560076083)">
<rect x="-16.00" y="-16.00" width="32.00" height="32.00" />
</g>
<g transform="translate(399.77,175.77) rotate(1.1776201593956936)">
<rect x="-16.00" y="-16.00" width="32.00" height="32.00" />
</g>
<g transform="translate(431.81,175.81) rotate(-0.5254495461717009)">
<rect x="-16.00" y="-16.00" width="32.00" height="32.00" />
</g>
<g transform="translate(80.93,208.93) rotate(-0.4182846669295843)">
<rect x="-16.00" y="-16.00" width="32.00" height="32.00" />
</g>
<g transform="translate(111.58,207.58) rotate(-1.3540653863757321)">
<rect x="-16.00" y="-16.00" width="32.00" height="32.00" />
</g>
<g transform="translate(143.35,207.35) rotate(2.0628135933917506)">
<rect x="-16.00" y="-16.00" width="32.00" height="32.00" />
</g>
<g transform="translate(176.82,208.82) rotate(2.0579091272946695)">
<rect x="-16.00" y="-16.00" width="32.00" height="32.00" />
</g>
<g transform="translate(209.08,209.08) rotate(2.7407619326828607)">
<rect x="-16.00" y="-16.00" width="32.00" height="32.00" />
</g>
<g transform="translate(240.00,208.00) rotate(2.429026384934924)">
<rect x="-16.00" y="-16.00" width="32.00" height="32.00" />
</g>
<g transform="translate(271.41,207.41) rotate(-1.6429647740309166)">
<rect x="-16.00" y="-16.00" width="32.00" height="32.00" />
</g>
<g transform="translate(304.90,208.90) rotate(-1.3517403170204758)">
<rect x="-16.00" y="-16.00" width="32.00" height="32.00" />
</g>
<g transform="translate(335.96,207.96) rotate(-0.006282851896980909)">
<rect x="-16.00" y="-16.00" width="32.00" height="32.00" />
</g>
<g transform="translate(368.00,208.00) rotate(3.0222103382227585)">
<rect x="-16.00" y="-16.00" width="32.00" height="32.00" />
</g>
<g transform="translate(400.88,208.88) rotate(1.8459950819343465)">
<rect x="-16.00" y="-16.00" width="32.00" height="32.00" />
</g>
<g transform="translate(433.21,209.21) rotate(2.8974388035529204)">
<rect x="-16.00" y="-16.00" width="32.00" height="32.00" />
</g>
<g transform="translate(79.05,239.05) rotate(2.7727650503937884)">
<rect x="-16.00" y="-16.00" width="32.00" height="32.00" />
</g>
<g transform="translate(111.95,239.95) rotate(3.9077474770859526)">
<rect x="-16.00" y="-16.00" width="32.00" height="32.00" />
</g>
<g transform="translate(143.48,239.48) rotate(2.9650434234940737)">
<rect x="-16.00" y="-16.00" width="32.00" height="32.00" />
</g>
<g transform="translate(175.49,239.49) rotate(-0.8022900026208734)">
<rect x="-16.00" y="-16.00" width="32.00" height="32.00" />
</g>
<g transform="translate(209.23,241.23) rotate(3.7625028254676374)">
<rect x="-16.00" y="-16.00" width="32.00" height="32.00" />
</g>
<g transform="translate(241.44,241.44) rotate(-0.14009017098849175)">
<rect x="-16.00" y="-16.00" width="32.00" height="32.00" />
</g>
<g transform="translate(273.12,241.12) rotate(4.507617645241402)">
<rect x="-16.00" y="-16.00" width="32.00" height="32.00" />
</g>
<g transform="translate(305.56,241.56) rotate(-1.3583091651129688)">
<rect x="-16.00" y="-16.00" width="32.00" height="32.00" />
</g>
<g transform="translate(337.57,241.57) rotate(-0.6974538878057843)">
<rect x="-16.00" y="-16.00" width="32.00" height="32.00" />
</g>
<g transform="translate(367.26,239.26) rotate(3.8435205407205513)">
<rect x="-16.00" y="-16.00" width="32.00" height="32.00" />
</g>
<g transform="translate(399.52,239.52) rotate(2.9005958751001053)">
<rect x="-16.00" y="-16.00" width="32.00" height="32.00" />
</g>
<g transform="translate(430.96,238.96) rotate(-0.4150427323828948)">
<rect x="-16.00" y="-16.00" width="32.00" height="32.00" />
</g>
<g transform="translate(79.93,271.93) rotate(-2.4160516882287926)">
<rect x="-16.00" y="-16.00" width="32.00" height="32.00" />
</g>
<g transform="translate(113.63,273.63) rotate(5.726407674366026)">
<rect x="-16.00" y="-16.00" width="32.00" height="32.00" />
</g>
<g transform="translate(145.59,273.59) rotate(3.62563028608385)">
<rect x="-16.00" y="-16.00" width="32.00" height="32.00" />
</g>
<g transform="translate(174.86,270.86) rotate(3.403895201255742)">
<rect x="-16.00" y="-16.00" width="32.00" height="32.00" />
</g>
<g transform="translate(206.64,270.64) rotate(5.900996107391084)">
<rect x="-16.00" y="-16.00" width="32.00" height="32.00" />
</g>
<g transform="translate(242.21,274.21) rotate(-0.6614676549758328)">
<rect x="-16.00" y="-16.00" width="32.00" height="32.00" />
</g>
<g transform="translate(274.17,274.17) rotate(-2.422426155249942)">
<rect x="-16.00" y="-16.00" width="32.00" height="32.00" />
</g>
<g transform="translate(303.64,271.64) rotate(-1.1706018406495216)">
<rect x="-16.00" y="-16.00" width="32.00" height="32.00" />
</g>
<g transform="translate(338.05,274.05) rotate(4.028895080864683)">
<rect x="-16.00" y="-16.00" width="32.00" height="32.00" />
</g>
<g transform="translate(367.73,271.73) rotate(3.2055425599873235)">
<rect x="-16.00" y="-16.00" width="32.00" height="32.00" />
</g>
<g transform="translate(399.72,271.72) rotate(-0.9353553568245148)">
<rect x="-16.00" y="-16.00" width="32.00" height="32.00" />
</g>
<g transform="translate(431.79,271.79) rotate(-1.9416818055719671)">
<rect x="-16.00" y="-16.00" width="32.00" height="32.00" />
</g>
<g transform="translate(79.43,303.43) rotate(-1.0914081680266465)">
<rect x="-16.00" y="-16.00" width="32.00" height="32.00" />
</g>
<g transform="translate(110.85,302.85) rotate(4.2694701749526764)">
<rect x="-16.00" y="-16.00" width="32.00" height="32.00" />
</g>
<g transform="translate(146.03,306.03) rotate(4.061231524239766)">
<rect x="-16.00" y="-16.00" width="32.00" height="32.00" />
</g>
<g transform="translate(178.44,306.44) rotate(5.1720784246720575)">
<rect x="-16.00" y="-16.00" width="32.00" height="32.00" />
</g>
<g transform="translate(209.87,305.87) rotate(5.181819464639236)">
<rect x="-16.00" y="-16.00" width="32.00" height="32.00" />
</g>
<g transform="translate(242.55,306.55) rotate(5.042222175182384)">
<rect x="-16.00" y="-16.00" width="32.00" height="32.00" />
</g>
<g transform="translate(271.95,303.95) rotate(-0.24300299063413744)">
<rect x="-16.00" y="-16.00" width="32.00" height="32.00" />
</g>
<g transform="translate(303.65,303.65) rotate(-2.923364736581611)">
<rect x="-16.00" y="-16.00" width="32.00" height="32.00" />
</g>
<g transform="translate(338.95,306.95) rotate(-2.753639132045231)">
<rect x="-16.00" y="-16.00" width="32.00" height="32.00" />
</g>
<g transform="translate(366.77,302.77) rotate(-2.0037586032909256)">
<rect x="-16.00" y="-16.00" width="32.00" height="32.00" />
</g>
<g transform="translate(399.23,303.23) rotate(4.39561691422757)">
<rect x="-16.00" y="-16.00" width="32.00" height="32.00" />
</g>
<g transform="translate(430.57,302.57) rotate(4.0114567443172335)">
<rect x="-16.00" y="-16.00" width="32.00" height="32.00" />
</g>
<g transform="translate(79.25,335.25) rotate(-3.28054577703914)">
<rect x="-16.00" y="-16.00" width="32.00" height="32.00" />
</g>
<g transform="translate(115.69,339.69) rotate(6.93284994414357)">
<rect x="-16.00" y="-16.00" width="32.00" height="32.00" />
</g>
<g transform="translate(143.74,335.74) rotate(9.8916789531813)">
<rect x="-16.00" y="-16.00" width="32.00" height="32.00" />
</g>
<g transform="translate(174.17,334.17) rotate(-1.105578903971569)">
<rect x="-16.00" y="-16.00" width="32.00" height="32.00" />
</g>
<g transform="translate(211.48,339.48) rotate(-0.9119644819633477)">
<rect x="-16.00" y="-16.00" width="32.00" height="32.00" />
</g>
<g transform="translate(239.76,335.76) rotate(7.075488577327133)">
<rect x="-16.00" y="-16.00" width="32.00" height="32.00" />
</g>
<g transform="translate(270.88,334.88) rotate(8.401465916941254)">
<rect x="-16.00" y="-16.00" width="32.00" height="32.00" />
</g>
<g transform="translate(308.34,340.34) rotate(-2.104353395598164)">
<rect x="-16.00" y="-16.00" width="32.00" height="32.00" />
</g>
<g transform="translate(335.90,335.90) rotate(9.357428127849376)">
<rect x="-16.00" y="-16.00" width="32.00" height="32.00" />
</g>
<g transform="translate(367.59,335.59) rotate(6.39375040778737)">
<rect x="-16.00" y="-16.00" width="32.00" height="32.00" />
</g>
<g transform="translate(398.61,334.61) rotate(-4.439797203010519)">
<rect x="-16.00" y="-16.00" width="32.00" height="32.00" />
</g>
<g transform="translate(429.83,333.83) rotate(-0.8165487974623651)">
<rect x="-16.00" y="-16.00" width="32.00" height="32.00" />
</g>
<g transform="translate(83.66,371.66) rotate(-4.842278302026086)">
<rect x="-16.00" y="-16.00" width="32.00" height="32.00" />
</g>
<g transform="translate(116.90,372.90) rotate(11.493586793825164)">
<rect x="-16.00" y="-16.00" width="32.00" height="32.00" />
</g>
<g transform="translate(142.26,366.26) rotate(-6.042564474404201)">
<rect x="-16.00" y="-16.00" width="32.00" height="32.00" />
</g>
<g transform="translate(173.82,365.82) rotate(-0.2396849109379685)">
<rect x="-16.00" y="-16.00" width="32.00" height="32.00" />
</g>
<g transform="translate(211.51,371.51) rotate(-5.18713000384619)">
<rect x="-16.00" y="-16.00" width="32.00" height="32.00" />
</g>
<g transform="translate(238.15,366.15) rotate(10.738114760291058)">
<rect x="-16.00" y="-16.00" width="32.00" height="32.00" />
</g>
<g transform="translate(270.71,366.71) rotate(9.256599400692686)">
<rect x="-16.00" y="-16.00" width="32.00" height="32.00" />
</g>
<g transform="translate(303.81,367.81) rotate(8.803684798102427)">
<rect x="-16.00" y="-16.00" width="32.00" height="32.00" />
</g>
<g transform="translate(339.41,371.41) rotate(6.208358823663067)">
<rect x="-16.00" y="-16.00" width="32.00" height="32.00" />
</g>
<g transform="translate(367.61,367.61) rotate(8.76317160735594)">
<rect x="-16.00" y="-16.00" width="32.00" height="32.00" />
</g>
<g transform="translate(404.79,372.79) rotate(11.830938076028396)">
<rect x="-16.00" y="-16.00" width="32.00" height="32.00" />
</g>
<g transform="translate(436.61,372.61) rotate(10.069595051614192)">
<rect x="-16.00" y="-16.00" width="32.00" height="32.00" />
</g>
<g transform="translate(78.38,398.38) rotate(13.262554393837558)">
<rect x="-16.00" y="-16.00" width="32.00" height="32.00" />
</g>
<g transform="translate(111.51,399.51) rotate(12.125707192761205)">
<rect x="-16.00" y="-16.00" width="32.00" height="32.00" />
</g>
<g transform="translate(148.11,404.11) rotate(10.91527320558059)">
<rect x="-16.00" y="-16.00" width="32.00" height="32.00" />
</g>
<g transform="translate(180.13,404.13) rotate(-1.4074847762263838)">
<rect x="-16.00" y="-16.00" width="32.00" height="32.00" />
</g>
<g transform="translate(207.90,399.90) rotate(8.477280451843953)">
<rect x="-16.00" y="-16.00" width="32.00" height="32.00" />
</g>
<g transform="translate(239.55,399.55) rotate(14.494935735843342)">
<rect x="-16.00" y="-16.00" width="32.00" height="32.00" />
</g>
<g transform="translate(276.24,404.24) rotate(14.308960201754761)">
<rect x="-16.00" y="-16.00" width="32.00" height="32.00" />
</g>
<g transform="translate(309.45,405.45) rotate(-4.821454364640755)">
<rect x="-16.00" y="-16.00" width="32.00" height="32.00" />
</g>
<g transform="translate(340.32,404.32) rotate(13.881419498182774)">
<rect x="-16.00" y="-16.00" width="32.00" height="32.00" />
</g>
<g transform="translate(365.97,397.97) rotate(-2.677352876909429)">
<rect x="-16.00" y="-16.00" width="32.00" height="32.00" />
</g>
<g transform="translate(406.32,406.32) rotate(12.098671161468806)">
<rect x="-16.00" y="-16.00" width="32.00" height="32.00" />
</g>
<g transform="translate(429.98,397.98) rotate(11.7012580646466)">
<rect x="-16.00" y="-16.00" width="32.00" height="32.00" />
</g>
<g transform="translate(76.78,428.78) rotate(12.329982510893615)">
<rect x="-16.00" y="-16.00" width="32.00" height="32.00" />
</g>
<g transform="translate(108.86,428.86) rotate(15.371984074489541)">
<rect x="-16.00" y="-16.00" width="32.00" height="32.00" />
</g>
<g transform="translate(151.40,439.40) rotate(-0.32111887475650414)">
<rect x="-16.00" y="-16.00" width="32.00" height="32.00" />
</g>
<g transform="translate(182.11,438.11) rotate(-7.268172120681032)">
<rect x="-16.00" y="-16.00" width="32.00" height="32.00" />
</g>
<g transform="translate(207.88,431.88) rotate(-7.425101799756737)">
<rect x="-16.00" y="-16.00" width="32.00" height="32.00" />
</g>
<g transform="translate(246.99,438.99) rotate(14.68388775410505)">
<rect x="-16.00" y="-16.00" width="32.00" height="32.00" />
</g>
<g transform="translate(271.67,431.67) rotate(11.308963946413066)">
<rect x="-16.00" y="-16.00" width="32.00" height="32.00" />
</g>
<g transform="translate(301.31,429.31) rotate(8.63983331723554)">
<rect x="-16.00" y="-16.00" width="32.00" height="32.00" />
</g>
<g transform="translate(342.49,438.49) rotate(-0.39656019392493214)">
<rect x="-16.00" y="-16.00" width="32.00" height="32.00" />
</g>
<g transform="translate(367.04,431.04) rotate(-4.481773625269828)">
<rect x="-16.00" y="-16.00" width="32.00" height="32.00" />
</g>
<g transform="translate(406.45,438.45) rotate(-5.402050298604537)">
<rect x="-16.00" y="-16.00" width="32.00" height="32.00" />
</g>
<g transform="translate(431.94,431.94) rotate(15.43971215731277)">
<rect x="-16.00" y="-16.00" width="32.00" height="32.00" />
</g>
</g>
</svg>
