<?xml version="1.0"?>
<!-- Generated by gensvg -->
<svg width="500.00" height="500.00"
     xmlns="http://www.w3.org/2000/svg"
     xmlns:xlink="http://www.w3.org/1999/xlink">
<rect x="0.00" y="0.00" width="500.00" height="500.00" style="fill:white" />
<rect x="180.00" y="80.00" width="70.00" height="200.00" rx="20.00" ry="20.00" style="fill:rgb(200,200,200)" />
<circle cx="200.00" cy="100.00" r="10.00" style="fill:rgb(127,0,0)" />
<circle cx="200.00" cy="100.00" r="2.50" style="fill:white" />
<circle cx="230.00" cy="100.00" r="10.00" />
<path d="M190.00,130.00 A2.50,2.50 0.00 1 0 240.00,130.00" />
<g transform="rotate(30)">
<rect x="180.00" y="80.00" width="70.00" height="200.00" rx="20.00" ry="20.00" style="fill:rgb(200,200,200)" />
<circle cx="200.00" cy="100.00" r="10.00" style="fill:rgb(127,0,0)" />
<circle cx="200.00" cy="100.00" r="2.50" style="fill:white" />
<circle cx="230.00" cy="100.00" r="10.00" />
<path d="M190.00,130.00 A2.50,2.50 0.00 1 0 240.00,130.00" />
</g>
<g transform="translate(50,0) scale(2,2)">
<g style="opacity:0.5">
<rect x="140.00" y="40.00" width="210.00" height="600.00" rx="60.00" ry="60.00" style="fill:rgb(200,200,200)" />
<circle cx="200.00" cy="100.00" r="30.00" style="fill:rgb(127,0,0)" />
<circle cx="200.00" cy="100.00" r="7.50" style="fill:white" />
<circle cx="290.00" cy="100.00" r="30.00" />
<path d="M170.00,190.00 A7.50,7.50 0.00 1 0 320.00,190.00" />
</g>
</g>
</svg>
