<?xml version="1.0"?>
<!-- Generated by gensvg -->
<svg width="500.00" height="500.00"
     xmlns="http://www.w3.org/2000/svg"
     xmlns:xlink="http://www.w3.org/1999/xlink">
<rect x="0.00" y="0.00" width="500.00" height="500.00" style="fill:rgb(250,250,250)" />
<g style="stroke:lightgray">
<line x1="0.00" y1="0.00" x2="0.00" y2="500.00" />
<line x1="25.00" y1="0.00" x2="25.00" y2="500.00" />
<line x1="50.00" y1="0.00" x2="50.00" y2="500.00" />
<line x1="75.00" y1="0.00" x2="75.00" y2="500.00" />
<line x1="100.00" y1="0.00" x2="100.00" y2="500.00" />
<line x1="125.00" y1="0.00" x2="125.00" y2="500.00" />
<line x1="150.00" y1="0.00" x2="150.00" y2="500.00" />
<line x1="175.00" y1="0.00" x2="175.00" y2="500.00" />
<line x1="200.00" y1="0.00" x2="200.00" y2="500.00" />
<line x1="225.00" y1="0.00" x2="225.00" y2="500.00" />
<line x1="250.00" y1="0.00" x2="250.00" y2="500.00" />
<line x1="275.00" y1="0.00" x2="275.00" y2="500.00" />
<line x1="300.00" y1="0.00" x2="300.00" y2="500.00" />
<line x1="325.00" y1="0.00" x2="325.00" y2="500.00" />
<line x1="350.00" y1="0.00" x2="350.00" y2="500.00" />
<line x1="375.00" y1="0.00" x2="375.00" y2="500.00" />
<line x1="400.00" y1="0.00" x2="400.00" y2="500.00" />
<line x1="425.00" y1="0.00" x2="425.00" y2="500.00" />
<line x1="450.00" y1="0.00" x2="450.00" y2="500.00" />
<line x1="475.00" y1="0.00" x2="475.00" y2="500.00" />
<line x1="500.00" y1="0.00" x2="500.00" y2="500.00" />
<line x1="0.00" y1="0.00" x2="500.00" y2="0.00" />
<line x1="0.00" y1="25.00" x2="500.00" y2="25.00" />
<line x1="0.00" y1="50.00" x2="500.00" y2="50.00" />
<line x1="0.00" y1="75.00" x2="500.00" y2="75.00" />
<line x1="0.00" y1="100.00" x2="500.00" y2="100.00" />
<line x1="0.00" y1="125.00" x2="500.00" y2="125.00" />
<line x1="0.00" y1="150.00" x2="500.00" y2="150.00" />
<line x1="0.00" y1="175.00" x2="500.00" y2="175.00" />
<line x1="0.00" y1="200.00" x2="500.00" y2="200.00" />
<line x1="0.00" y1="225.00" x2="500.00" y2="225.00" />
<line x1="0.00" y1="250.00" x2="500.00" y2="250.00" />
<line x1="0.00" y1="275.00" x2="500.00" y2="275.00" />
<line x1="0.00" y1="300.00" x2="500.00" y2="300.00" />
<line x1="0.00" y1="325.00" x2="500.00" y2="325.00" />
<line x1="0.00" y1="350.00" x2="500.00" y2="350.00" />
<line x1="0.00" y1="375.00" x2="500.00" y2="375.00" />
<line x1="0.00" y1="400.00" x2="500.00" y2="400.00" />
<line x1="0.00" y1="425.00" x2="500.00" y2="425.00" />
<line x1="0.00" y1="450.00" x2="500.00" y2="450.00" />
<line x1="0.00" y1="475.00" x2="500.00" y2="475.00" />
<line x1="0.00" y1="500.00" x2="500.00" y2="500.00" />
</g>
<text x="70.00" y="192.50" style="text-anchor:middle;font-size:14pt" >begin (70,200)</text>
<circle cx="70.00" cy="200.00" r="5.00" />
<text x="425.00" y="117.50" style="text-anchor:middle;font-size:14pt" >end (425,125)</text>
<circle cx="425.00" cy="125.00" r="5.00" />
<text x="100.00" y="417.50" style="text-anchor:middle;font-size:14pt" >control (100,425)</text>
<circle cx="100.00" cy="425.00" r="5.00" />
<path d="M70.00,200.00 Q100.00,425.00 425.00,125.00" style="stroke:red;stroke-width:10.00;fill:none;stroke-opacity:0.20" />
</svg>
