<?xml version="1.0"?>
<!-- Generated by gensvg -->
<svg width="500.00" height="500.00"
     xmlns="http://www.w3.org/2000/svg"
     xmlns:xlink="http://www.w3.org/1999/xlink">
<path d="M-250.00,0.00 A250.00,250.00 0.00 1 1 250.00,0.00" style="fill:none;stroke:orange;stroke-width:12px" />
<path d="M-375.00,125.00 A125.00,125.00 0.00 1 1 -125.00,125.00" style="fill:none;stroke:red;stroke-width:10px" />
<path d="M-437.50,187.50 A62.50,62.50 0.00 1 1 -312.50,187.50" style="fill:none;stroke:blue;stroke-width:8px" />
<path d="M-468.75,218.75 A31.25,31.25 0.00 1 1 -406.25,218.75" style="fill:none;stroke:green;stroke-width:6px" />
<path d="M-484.38,234.38 A15.62,15.62 0.00 1 1 -453.12,234.38" style="fill:none;stroke:yellow;stroke-width:4px" />
<path d="M-492.19,242.19 A7.81,7.81 0.00 1 1 -476.56,242.19" style="fill:none;stroke:orange;stroke-width:2px" />
<path d="M-496.09,246.09 A3.91,3.91 0.00 1 1 -488.28,246.09" style="fill:none;stroke:red;stroke-width:0px" />
<path d="M-480.47,246.09 A3.91,3.91 0.00 1 1 -472.66,246.09" style="fill:none;stroke:red;stroke-width:0px" />
<path d="M-460.94,242.19 A7.81,7.81 0.00 1 1 -445.31,242.19" style="fill:none;stroke:orange;stroke-width:2px" />
<path d="M-464.84,246.09 A3.91,3.91 0.00 1 1 -457.03,246.09" style="fill:none;stroke:red;stroke-width:0px" />
<path d="M-449.22,246.09 A3.91,3.91 0.00 1 1 -441.41,246.09" style="fill:none;stroke:red;stroke-width:0px" />
<path d="M-421.88,234.38 A15.62,15.62 0.00 1 1 -390.62,234.38" style="fill:none;stroke:yellow;stroke-width:4px" />
<path d="M-429.69,242.19 A7.81,7.81 0.00 1 1 -414.06,242.19" style="fill:none;stroke:orange;stroke-width:2px" />
<path d="M-433.59,246.09 A3.91,3.91 0.00 1 1 -425.78,246.09" style="fill:none;stroke:red;stroke-width:0px" />
<path d="M-417.97,246.09 A3.91,3.91 0.00 1 1 -410.16,246.09" style="fill:none;stroke:red;stroke-width:0px" />
<path d="M-398.44,242.19 A7.81,7.81 0.00 1 1 -382.81,242.19" style="fill:none;stroke:orange;stroke-width:2px" />
<path d="M-402.34,246.09 A3.91,3.91 0.00 1 1 -394.53,246.09" style="fill:none;stroke:red;stroke-width:0px" />
<path d="M-386.72,246.09 A3.91,3.91 0.00 1 1 -378.91,246.09" style="fill:none;stroke:red;stroke-width:0px" />
<path d="M-343.75,218.75 A31.25,31.25 0.00 1 1 -281.25,218.75" style="fill:none;stroke:green;stroke-width:6px" />
<path d="M-359.38,234.38 A15.62,15.62 0.00 1 1 -328.12,234.38" style="fill:none;stroke:yellow;stroke-width:4px" />
<path d="M-367.19,242.19 A7.81,7.81 0.00 1 1 -351.56,242.19" style="fill:none;stroke:orange;stroke-width:2px" />
<path d="M-371.09,246.09 A3.91,3.91 0.00 1 1 -363.28,246.09" style="fill:none;stroke:red;stroke-width:0px" />
<path d="M-355.47,246.09 A3.91,3.91 0.00 1 1 -347.66,246.09" style="fill:none;stroke:red;stroke-width:0px" />
<path d="M-335.94,242.19 A7.81,7.81 0.00 1 1 -320.31,242.19" style="fill:none;stroke:orange;stroke-width:2px" />
<path d="M-339.84,246.09 A3.91,3.91 0.00 1 1 -332.03,246.09" style="fill:none;stroke:red;stroke-width:0px" />
<path d="M-324.22,246.09 A3.91,3.91 0.00 1 1 -316.41,246.09" style="fill:none;stroke:red;stroke-width:0px" />
<path d="M-296.88,234.38 A15.62,15.62 0.00 1 1 -265.62,234.38" style="fill:none;stroke:yellow;stroke-width:4px" />
<path d="M-304.69,242.19 A7.81,7.81 0.00 1 1 -289.06,242.19" style="fill:none;stroke:orange;stroke-width:2px" />
<path d="M-308.59,246.09 A3.91,3.91 0.00 1 1 -300.78,246.09" style="fill:none;stroke:red;stroke-width:0px" />
<path d="M-292.97,246.09 A3.91,3.91 0.00 1 1 -285.16,246.09" style="fill:none;stroke:red;stroke-width:0px" />
<path d="M-273.44,242.19 A7.81,7.81 0.00 1 1 -257.81,242.19" style="fill:none;stroke:orange;stroke-width:2px" />
<path d="M-277.34,246.09 A3.91,3.91 0.00 1 1 -269.53,246.09" style="fill:none;stroke:red;stroke-width:0px" />
<path d="M-261.72,246.09 A3.91,3.91 0.00 1 1 -253.91,246.09" style="fill:none;stroke:red;stroke-width:0px" />
<path d="M-187.50,187.50 A62.50,62.50 0.00 1 1 -62.50,187.50" style="fill:none;stroke:blue;stroke-width:8px" />
<path d="M-218.75,218.75 A31.25,31.25 0.00 1 1 -156.25,218.75" style="fill:none;stroke:green;stroke-width:6px" />
<path d="M-234.38,234.38 A15.62,15.62 0.00 1 1 -203.12,234.38" style="fill:none;stroke:yellow;stroke-width:4px" />
<path d="M-242.19,242.19 A7.81,7.81 0.00 1 1 -226.56,242.19" style="fill:none;stroke:orange;stroke-width:2px" />
<path d="M-246.09,246.09 A3.91,3.91 0.00 1 1 -238.28,246.09" style="fill:none;stroke:red;stroke-width:0px" />
<path d="M-230.47,246.09 A3.91,3.91 0.00 1 1 -222.66,246.09" style="fill:none;stroke:red;stroke-width:0px" />
<path d="M-210.94,242.19 A7.81,7.81 0.00 1 1 -195.31,242.19" style="fill:none;stroke:orange;stroke-width:2px" />
<path d="M-214.84,246.09 A3.91,3.91 0.00 1 1 -207.03,246.09" style="fill:none;stroke:red;stroke-width:0px" />
<path d="M-199.22,246.09 A3.91,3.91 0.00 1 1 -191.41,246.09" style="fill:none;stroke:red;stroke-width:0px" />
<path d="M-171.88,234.38 A15.62,15.62 0.00 1 1 -140.62,234.38" style="fill:none;stroke:yellow;stroke-width:4px" />
<path d="M-179.69,242.19 A7.81,7.81 0.00 1 1 -164.06,242.19" style="fill:none;stroke:orange;stroke-width:2px" />
<path d="M-183.59,246.09 A3.91,3.91 0.00 1 1 -175.78,246.09" style="fill:none;stroke:red;stroke-width:0px" />
<path d="M-167.97,246.09 A3.91,3.91 0.00 1 1 -160.16,246.09" style="fill:none;stroke:red;stroke-width:0px" />
<path d="M-148.44,242.19 A7.81,7.81 0.00 1 1 -132.81,242.19" style="fill:none;stroke:orange;stroke-width:2px" />
<path d="M-152.34,246.09 A3.91,3.91 0.00 1 1 -144.53,246.09" style="fill:none;stroke:red;stroke-width:0px" />
<path d="M-136.72,246.09 A3.91,3.91 0.00 1 1 -128.91,246.09" style="fill:none;stroke:red;stroke-width:0px" />
<path d="M-93.75,218.75 A31.25,31.25 0.00 1 1 -31.25,218.75" style="fill:none;stroke:green;stroke-width:6px" />
<path d="M-109.38,234.38 A15.62,15.62 0.00 1 1 -78.12,234.38" style="fill:none;stroke:yellow;stroke-width:4px" />
<path d="M-117.19,242.19 A7.81,7.81 0.00 1 1 -101.56,242.19" style="fill:none;stroke:orange;stroke-width:2px" />
<path d="M-121.09,246.09 A3.91,3.91 0.00 1 1 -113.28,246.09" style="fill:none;stroke:red;stroke-width:0px" />
<path d="M-105.47,246.09 A3.91,3.91 0.00 1 1 -97.66,246.09" style="fill:none;stroke:red;stroke-width:0px" />
<path d="M-85.94,242.19 A7.81,7.81 0.00 1 1 -70.31,242.19" style="fill:none;stroke:orange;stroke-width:2px" />
<path d="M-89.84,246.09 A3.91,3.91 0.00 1 1 -82.03,246.09" style="fill:none;stroke:red;stroke-width:0px" />
<path d="M-74.22,246.09 A3.91,3.91 0.00 1 1 -66.41,246.09" style="fill:none;stroke:red;stroke-width:0px" />
<path d="M-46.88,234.38 A15.62,15.62 0.00 1 1 -15.62,234.38" style="fill:none;stroke:yellow;stroke-width:4px" />
<path d="M-54.69,242.19 A7.81,7.81 0.00 1 1 -39.06,242.19" style="fill:none;stroke:orange;stroke-width:2px" />
<path d="M-58.59,246.09 A3.91,3.91 0.00 1 1 -50.78,246.09" style="fill:none;stroke:red;stroke-width:0px" />
<path d="M-42.97,246.09 A3.91,3.91 0.00 1 1 -35.16,246.09" style="fill:none;stroke:red;stroke-width:0px" />
<path d="M-23.44,242.19 A7.81,7.81 0.00 1 1 -7.81,242.19" style="fill:none;stroke:orange;stroke-width:2px" />
<path d="M-27.34,246.09 A3.91,3.91 0.00 1 1 -19.53,246.09" style="fill:none;stroke:red;stroke-width:0px" />
<path d="M-11.72,246.09 A3.91,3.91 0.00 1 1 -3.91,246.09" style="fill:none;stroke:red;stroke-width:0px" />
<path d="M125.00,125.00 A125.00,125.00 0.00 1 1 375.00,125.00" style="fill:none;stroke:red;stroke-width:10px" />
<path d="M62.50,187.50 A62.50,62.50 0.00 1 1 187.50,187.50" style="fill:none;stroke:blue;stroke-width:8px" />
<path d="M31.25,218.75 A31.25,31.25 0.00 1 1 93.75,218.75" style="fill:none;stroke:green;stroke-width:6px" />
<path d="M15.62,234.38 A15.62,15.62 0.00 1 1 46.88,234.38" style="fill:none;stroke:yellow;stroke-width:4px" />
<path d="M7.81,242.19 A7.81,7.81 0.00 1 1 23.44,242.19" style="fill:none;stroke:orange;stroke-width:2px" />
<path d="M3.91,246.09 A3.91,3.91 0.00 1 1 11.72,246.09" style="fill:none;stroke:red;stroke-width:0px" />
<path d="M19.53,246.09 A3.91,3.91 0.00 1 1 27.34,246.09" style="fill:none;stroke:red;stroke-width:0px" />
<path d="M39.06,242.19 A7.81,7.81 0.00 1 1 54.69,242.19" style="fill:none;stroke:orange;stroke-width:2px" />
<path d="M35.16,246.09 A3.91,3.91 0.00 1 1 42.97,246.09" style="fill:none;stroke:red;stroke-width:0px" />
<path d="M50.78,246.09 A3.91,3.91 0.00 1 1 58.59,246.09" style="fill:none;stroke:red;stroke-width:0px" />
<path d="M78.12,234.38 A15.62,15.62 0.00 1 1 109.38,234.38" style="fill:none;stroke:yellow;stroke-width:4px" />
<path d="M70.31,242.19 A7.81,7.81 0.00 1 1 85.94,242.19" style="fill:none;stroke:orange;stroke-width:2px" />
<path d="M66.41,246.09 A3.91,3.91 0.00 1 1 74.22,246.09" style="fill:none;stroke:red;stroke-width:0px" />
<path d="M82.03,246.09 A3.91,3.91 0.00 1 1 89.84,246.09" style="fill:none;stroke:red;stroke-width:0px" />
<path d="M101.56,242.19 A7.81,7.81 0.00 1 1 117.19,242.19" style="fill:none;stroke:orange;stroke-width:2px" />
<path d="M97.66,246.09 A3.91,3.91 0.00 1 1 105.47,246.09" style="fill:none;stroke:red;stroke-width:0px" />
<path d="M113.28,246.09 A3.91,3.91 0.00 1 1 121.09,246.09" style="fill:none;stroke:red;stroke-width:0px" />
<path d="M156.25,218.75 A31.25,31.25 0.00 1 1 218.75,218.75" style="fill:none;stroke:green;stroke-width:6px" />
<path d="M140.62,234.38 A15.62,15.62 0.00 1 1 171.88,234.38" style="fill:none;stroke:yellow;stroke-width:4px" />
<path d="M132.81,242.19 A7.81,7.81 0.00 1 1 148.44,242.19" style="fill:none;stroke:orange;stroke-width:2px" />
<path d="M128.91,246.09 A3.91,3.91 0.00 1 1 136.72,246.09" style="fill:none;stroke:red;stroke-width:0px" />
<path d="M144.53,246.09 A3.91,3.91 0.00 1 1 152.34,246.09" style="fill:none;stroke:red;stroke-width:0px" />
<path d="M164.06,242.19 A7.81,7.81 0.00 1 1 179.69,242.19" style="fill:none;stroke:orange;stroke-width:2px" />
<path d="M160.16,246.09 A3.91,3.91 0.00 1 1 167.97,246.09" style="fill:none;stroke:red;stroke-width:0px" />
<path d="M175.78,246.09 A3.91,3.91 0.00 1 1 183.59,246.09" style="fill:none;stroke:red;stroke-width:0px" />
<path d="M203.12,234.38 A15.62,15.62 0.00 1 1 234.38,234.38" style="fill:none;stroke:yellow;stroke-width:4px" />
<path d="M195.31,242.19 A7.81,7.81 0.00 1 1 210.94,242.19" style="fill:none;stroke:orange;stroke-width:2px" />
<path d="M191.41,246.09 A3.91,3.91 0.00 1 1 199.22,246.09" style="fill:none;stroke:red;stroke-width:0px" />
<path d="M207.03,246.09 A3.91,3.91 0.00 1 1 214.84,246.09" style="fill:none;stroke:red;stroke-width:0px" />
<path d="M226.56,242.19 A7.81,7.81 0.00 1 1 242.19,242.19" style="fill:none;stroke:orange;stroke-width:2px" />
<path d="M222.66,246.09 A3.91,3.91 0.00 1 1 230.47,246.09" style="fill:none;stroke:red;stroke-width:0px" />
<path d="M238.28,246.09 A3.91,3.91 0.00 1 1 246.09,246.09" style="fill:none;stroke:red;stroke-width:0px" />
<path d="M312.50,187.50 A62.50,62.50 0.00 1 1 437.50,187.50" style="fill:none;stroke:blue;stroke-width:8px" />
<path d="M281.25,218.75 A31.25,31.25 0.00 1 1 343.75,218.75" style="fill:none;stroke:green;stroke-width:6px" />
<path d="M265.62,234.38 A15.62,15.62 0.00 1 1 296.88,234.38" style="fill:none;stroke:yellow;stroke-width:4px" />
<path d="M257.81,242.19 A7.81,7.81 0.00 1 1 273.44,242.19" style="fill:none;stroke:orange;stroke-width:2px" />
<path d="M253.91,246.09 A3.91,3.91 0.00 1 1 261.72,246.09" style="fill:none;stroke:red;stroke-width:0px" />
<path d="M269.53,246.09 A3.91,3.91 0.00 1 1 277.34,246.09" style="fill:none;stroke:red;stroke-width:0px" />
<path d="M289.06,242.19 A7.81,7.81 0.00 1 1 304.69,242.19" style="fill:none;stroke:orange;stroke-width:2px" />
<path d="M285.16,246.09 A3.91,3.91 0.00 1 1 292.97,246.09" style="fill:none;stroke:red;stroke-width:0px" />
<path d="M300.78,246.09 A3.91,3.91 0.00 1 1 308.59,246.09" style="fill:none;stroke:red;stroke-width:0px" />
<path d="M328.12,234.38 A15.62,15.62 0.00 1 1 359.38,234.38" style="fill:none;stroke:yellow;stroke-width:4px" />
<path d="M320.31,242.19 A7.81,7.81 0.00 1 1 335.94,242.19" style="fill:none;stroke:orange;stroke-width:2px" />
<path d="M316.41,246.09 A3.91,3.91 0.00 1 1 324.22,246.09" style="fill:none;stroke:red;stroke-width:0px" />
<path d="M332.03,246.09 A3.91,3.91 0.00 1 1 339.84,246.09" style="fill:none;stroke:red;stroke-width:0px" />
<path d="M351.56,242.19 A7.81,7.81 0.00 1 1 367.19,242.19" style="fill:none;stroke:orange;stroke-width:2px" />
<path d="M347.66,246.09 A3.91,3.91 0.00 1 1 355.47,246.09" style="fill:none;stroke:red;stroke-width:0px" />
<path d="M363.28,246.09 A3.91,3.91 0.00 1 1 371.09,246.09" style="fill:none;stroke:red;stroke-width:0px" />
<path d="M406.25,218.75 A31.25,31.25 0.00 1 1 468.75,218.75" style="fill:none;stroke:green;stroke-width:6px" />
<path d="M390.62,234.38 A15.62,15.62 0.00 1 1 421.88,234.38" style="fill:none;stroke:yellow;stroke-width:4px" />
<path d="M382.81,242.19 A7.81,7.81 0.00 1 1 398.44,242.19" style="fill:none;stroke:orange;stroke-width:2px" />
<path d="M378.91,246.09 A3.91,3.91 0.00 1 1 386.72,246.09" style="fill:none;stroke:red;stroke-width:0px" />
<path d="M394.53,246.09 A3.91,3.91 0.00 1 1 402.34,246.09" style="fill:none;stroke:red;stroke-width:0px" />
<path d="M414.06,242.19 A7.81,7.81 0.00 1 1 429.69,242.19" style="fill:none;stroke:orange;stroke-width:2px" />
<path d="M410.16,246.09 A3.91,3.91 0.00 1 1 417.97,246.09" style="fill:none;stroke:red;stroke-width:0px" />
<path d="M425.78,246.09 A3.91,3.91 0.00 1 1 433.59,246.09" style="fill:none;stroke:red;stroke-width:0px" />
<path d="M453.12,234.38 A15.62,15.62 0.00 1 1 484.38,234.38" style="fill:none;stroke:yellow;stroke-width:4px" />
<path d="M445.31,242.19 A7.81,7.81 0.00 1 1 460.94,242.19" style="fill:none;stroke:orange;stroke-width:2px" />
<path d="M441.41,246.09 A3.91,3.91 0.00 1 1 449.22,246.09" style="fill:none;stroke:red;stroke-width:0px" />
<path d="M457.03,246.09 A3.91,3.91 0.00 1 1 464.84,246.09" style="fill:none;stroke:red;stroke-width:0px" />
<path d="M476.56,242.19 A7.81,7.81 0.00 1 1 492.19,242.19" style="fill:none;stroke:orange;stroke-width:2px" />
<path d="M472.66,246.09 A3.91,3.91 0.00 1 1 480.47,246.09" style="fill:none;stroke:red;stroke-width:0px" />
<path d="M488.28,246.09 A3.91,3.91 0.00 1 1 496.09,246.09" style="fill:none;stroke:red;stroke-width:0px" />
</svg>
