<?xml version="1.0"?>
<!-- Generated by gensvg -->
<svg width="500.00" height="500.00"
     xmlns="http://www.w3.org/2000/svg"
     xmlns:xlink="http://www.w3.org/1999/xlink">
<rect x="352.84" y="126.49" width="67.87" height="64.70" style="fill-opacity:0.90; fill:rgb(65,117,57)" />
<rect x="424.13" y="229.24" width="51.24" height="88.72" style="fill-opacity:0.67; fill:rgb(165,5,214)" />
<rect x="401.24" y="408.96" width="94.85" height="43.52" style="fill-opacity:0.32; fill:rgb(144,244,20)" />
<rect x="456.89" y="13.10" width="61.06" height="7.80" style="fill-opacity:0.75; fill:rgb(97,3,66)" />
<rect x="11.16" y="84.77" width="66.41" height="19.25" style="fill-opacity:0.49; fill:rgb(147,163,47)" />
<rect x="57.72" y="237.51" width="99.88" height="34.74" style="fill-opacity:0.08; fill:rgb(100,66,107)" />
<rect x="234.58" y="169.82" width="52.35" height="84.20" style="fill-opacity:0.20; fill:rgb(208,169,102)" />
<rect x="98.26" y="400.58" width="59.39" height="89.91" style="fill-opacity:0.27; fill:rgb(189,217,193)" />
<rect x="375.70" y="253.85" width="85.24" height="91.16" style="fill-opacity:0.77; fill:rgb(95,158,168)" />
<rect x="239.52" y="176.39" width="28.21" height="28.69" style="fill-opacity:0.27; fill:rgb(94,184,24)" />
<rect x="454.38" y="174.04" width="36.17" height="44.61" style="fill-opacity:0.05; fill:rgb(221,209,85)" />
<rect x="57.78" y="278.41" width="51.11" height="57.39" style="fill-opacity:0.35; fill:rgb(194,243,217)" />
<rect x="415.03" y="484.96" width="58.11" height="0.27" style="fill-opacity:0.76; fill:rgb(7,149,36)" />
<rect x="468.81" y="407.74" width="40.61" height="5.85" style="fill-opacity:0.08; fill:rgb(183,39,72)" />
<rect x="54.76" y="98.56" width="63.53" height="41.08" style="fill-opacity:0.98; fill:rgb(75,47,213)" />
<rect x="267.51" y="279.00" width="48.64" height="2.10" style="fill-opacity:0.61; fill:rgb(75,224,219)" />
<rect x="469.91" y="402.82" width="13.97" height="45.20" style="fill-opacity:0.48; fill:rgb(116,146,155)" />
<rect x="401.11" y="73.23" width="36.89" height="65.48" style="fill-opacity:0.82; fill:rgb(135,20,183)" />
<rect x="29.44" y="241.13" width="14.60" height="1.40" style="fill-opacity:0.61; fill:rgb(6,254,48)" />
<rect x="11.10" y="83.32" width="53.25" height="43.24" style="fill-opacity:0.76; fill:rgb(171,159,166)" />
<rect x="135.09" y="50.93" width="48.90" height="67.32" style="fill-opacity:0.43; fill:rgb(199,244,254)" />
<rect x="334.43" y="314.85" width="11.07" height="11.77" style="fill-opacity:1.00; fill:rgb(28,170,196)" />
<rect x="424.79" y="230.68" width="24.42" height="98.18" style="fill-opacity:0.14; fill:rgb(143,139,66)" />
<rect x="304.00" y="276.10" width="23.11" height="79.75" style="fill-opacity:0.40; fill:rgb(86,249,214)" />
<rect x="80.41" y="124.74" width="82.53" height="56.50" style="fill-opacity:0.27; fill:rgb(57,186,172)" />
<rect x="226.48" y="134.35" width="48.82" height="26.62" style="fill-opacity:0.33; fill:rgb(109,193,28)" />
<rect x="440.32" y="311.67" width="0.22" height="20.51" style="fill-opacity:0.75; fill:rgb(182,25,162)" />
<rect x="488.99" y="325.93" width="25.95" height="43.31" style="fill-opacity:0.95; fill:rgb(179,218,4)" />
<rect x="110.54" y="53.38" width="96.59" height="60.66" style="fill-opacity:0.33; fill:rgb(250,59,197)" />
<rect x="448.81" y="162.88" width="21.57" height="18.38" style="fill-opacity:0.93; fill:rgb(27,238,205)" />
<rect x="230.10" y="414.36" width="6.81" height="71.39" style="fill-opacity:0.38; fill:rgb(124,188,117)" />
<rect x="236.05" y="185.30" width="65.73" height="53.66" style="fill-opacity:0.07; fill:rgb(126,101,168)" />
<rect x="89.44" y="126.22" width="24.37" height="47.93" style="fill-opacity:0.61; fill:rgb(97,10,177)" />
<rect x="263.41" y="365.00" width="38.17" height="86.97" style="fill-opacity:0.58; fill:rgb(230,27,205)" />
<rect x="288.29" y="137.56" width="81.10" height="58.90" style="fill-opacity:0.53; fill:rgb(88,69,27)" />
<rect x="278.82" y="299.29" width="36.81" height="27.83" style="fill-opacity:0.42; fill:rgb(22,157,213)" />
<rect x="372.68" y="312.22" width="86.07" height="79.57" style="fill-opacity:0.94; fill:rgb(76,197,148)" />
<rect x="491.64" y="30.16" width="4.22" height="88.85" style="fill-opacity:0.06; fill:rgb(150,68,22)" />
<rect x="344.19" y="409.36" width="76.16" height="62.54" style="fill-opacity:0.54; fill:rgb(15,241,69)" />
<rect x="467.01" y="242.90" width="29.32" height="57.74" style="fill-opacity:0.12; fill:rgb(235,74,92)" />
<rect x="188.29" y="347.21" width="52.99" height="38.68" style="fill-opacity:0.98; fill:rgb(249,170,183)" />
<rect x="272.84" y="226.67" width="34.30" height="67.53" style="fill-opacity:0.86; fill:rgb(185,9,224)" />
<rect x="78.49" y="438.88" width="76.67" height="74.56" style="fill-opacity:0.59; fill:rgb(189,152,37)" />
<rect x="380.55" y="299.29" width="2.25" height="26.35" style="fill-opacity:0.11; fill:rgb(134,132,221)" />
<rect x="290.38" y="129.91" width="31.47" height="96.43" style="fill-opacity:0.34; fill:rgb(152,175,245)" />
<rect x="89.03" y="300.04" width="99.94" height="46.13" style="fill-opacity:0.42; fill:rgb(225,15,174)" />
<rect x="118.60" y="386.83" width="42.51" height="33.48" style="fill-opacity:0.89; fill:rgb(15,192,87)" />
<rect x="33.50" y="133.81" width="18.64" height="83.29" style="fill-opacity:0.43; fill:rgb(253,251,159)" />
<rect x="102.17" y="76.03" width="24.27" height="17.58" style="fill-opacity:0.95; fill:rgb(143,128,108)" />
<rect x="49.30" y="487.77" width="83.00" height="30.48" style="fill-opacity:0.91; fill:rgb(221,103,231)" />
<rect x="101.78" y="401.05" width="64.72" height="37.60" style="fill-opacity:0.46; fill:rgb(247,156,170)" />
<rect x="473.26" y="123.23" width="65.11" height="42.87" style="fill-opacity:0.60; fill:rgb(126,101,140)" />
<rect x="488.27" y="74.09" width="71.25" height="42.78" style="fill-opacity:0.79; fill:rgb(159,245,25)" />
<rect x="55.53" y="24.74" width="2.86" height="35.86" style="fill-opacity:0.63; fill:rgb(5,177,43)" />
<rect x="161.00" y="117.24" width="63.49" height="59.08" style="fill-opacity:0.79; fill:rgb(91,44,200)" />
<rect x="337.62" y="115.75" width="47.56" height="6.73" style="fill-opacity:0.54; fill:rgb(25,165,95)" />
<rect x="134.98" y="257.89" width="10.87" height="97.80" style="fill-opacity:0.06; fill:rgb(160,201,73)" />
<rect x="409.03" y="385.54" width="6.55" height="35.35" style="fill-opacity:0.66; fill:rgb(220,178,9)" />
<rect x="171.57" y="415.21" width="44.04" height="43.55" style="fill-opacity:0.76; fill:rgb(69,167,134)" />
<rect x="459.39" y="43.39" width="17.88" height="23.97" style="fill-opacity:0.15; fill:rgb(11,66,132)" />
<rect x="386.03" y="22.90" width="18.30" height="7.96" style="fill-opacity:0.37; fill:rgb(119,179,25)" />
<rect x="30.02" y="463.57" width="6.52" height="39.84" style="fill-opacity:0.73; fill:rgb(143,236,120)" />
<rect x="343.79" y="345.17" width="78.87" height="42.68" style="fill-opacity:0.90; fill:rgb(234,138,187)" />
<rect x="89.98" y="420.97" width="39.79" height="80.55" style="fill-opacity:0.47; fill:rgb(211,196,208)" />
<rect x="253.27" y="108.00" width="95.52" height="13.89" style="fill-opacity:0.11; fill:rgb(68,94,172)" />
<rect x="428.58" y="257.69" width="73.12" height="76.93" style="fill-opacity:0.78; fill:rgb(72,61,21)" />
<rect x="295.44" y="221.89" width="32.50" height="41.80" style="fill-opacity:0.93; fill:rgb(18,118,23)" />
<rect x="487.32" y="198.26" width="88.70" height="94.56" style="fill-opacity:0.73; fill:rgb(84,81,60)" />
<rect x="457.62" y="3.54" width="49.70" height="25.75" style="fill-opacity:0.30; fill:rgb(33,146,205)" />
<rect x="428.71" y="325.52" width="48.90" height="35.22" style="fill-opacity:0.65; fill:rgb(223,196,74)" />
<rect x="30.41" y="278.18" width="98.37" height="37.56" style="fill-opacity:0.76; fill:rgb(155,2,63)" />
<rect x="144.18" y="264.61" width="88.54" height="74.53" style="fill-opacity:0.83; fill:rgb(63,211,248)" />
<rect x="146.50" y="230.87" width="66.77" height="96.60" style="fill-opacity:0.17; fill:rgb(136,223,30)" />
<rect x="349.61" y="248.52" width="74.58" height="67.76" style="fill-opacity:0.59; fill:rgb(119,110,183)" />
<rect x="228.09" y="64.21" width="23.11" height="79.11" style="fill-opacity:0.28; fill:rgb(12,19,164)" />
<rect x="67.26" y="275.02" width="22.65" height="22.30" style="fill-opacity:0.93; fill:rgb(6,140,44)" />
<rect x="419.04" y="417.84" width="52.48" height="20.22" style="fill-opacity:0.12; fill:rgb(234,246,244)" />
<rect x="285.39" y="136.74" width="48.58" height="59.79" style="fill-opacity:0.02; fill:rgb(62,94,185)" />
<rect x="79.44" y="264.62" width="69.50" height="28.13" style="fill-opacity:0.49; fill:rgb(26,45,131)" />
<rect x="225.03" y="394.34" width="67.81" height="50.85" style="fill-opacity:0.32; fill:rgb(196,164,250)" />
<rect x="27.84" y="450.64" width="96.62" height="73.57" style="fill-opacity:0.77; fill:rgb(246,189,35)" />
<rect x="451.75" y="32.87" width="61.51" height="95.34" style="fill-opacity:0.66; fill:rgb(39,232,201)" />
<rect x="143.45" y="363.95" width="99.41" height="41.36" style="fill-opacity:0.45; fill:rgb(231,246,192)" />
<rect x="357.43" y="346.27" width="87.47" height="32.16" style="fill-opacity:0.66; fill:rgb(216,32,103)" />
<rect x="483.32" y="27.98" width="71.37" height="97.95" style="fill-opacity:0.80; fill:rgb(180,160,224)" />
<rect x="476.69" y="114.30" width="53.34" height="50.82" style="fill-opacity:0.76; fill:rgb(98,150,88)" />
<rect x="68.34" y="169.11" width="59.43" height="89.04" style="fill-opacity:0.11; fill:rgb(14,117,61)" />
<rect x="95.30" y="311.09" width="62.34" height="44.89" style="fill-opacity:0.64; fill:rgb(133,95,111)" />
<rect x="381.78" y="451.55" width="23.72" height="19.43" style="fill-opacity:0.13; fill:rgb(84,0,71)" />
<rect x="175.96" y="40.69" width="29.00" height="16.40" style="fill-opacity:0.20; fill:rgb(97,225,149)" />
<rect x="126.14" y="452.62" width="92.66" height="64.10" style="fill-opacity:0.83; fill:rgb(187,118,110)" />
<rect x="109.69" y="152.23" width="79.20" height="88.26" style="fill-opacity:0.94; fill:rgb(12,56,49)" />
<rect x="282.34" y="241.40" width="28.24" height="23.39" style="fill-opacity:0.99; fill:rgb(199,96,51)" />
<rect x="149.08" y="143.82" width="74.16" height="80.95" style="fill-opacity:0.67; fill:rgb(39,195,129)" />
<rect x="425.94" y="459.01" width="5.98" height="4.81" style="fill-opacity:0.21; fill:rgb(225,167,72)" />
<rect x="449.51" y="296.29" width="35.95" height="66.13" style="fill-opacity:0.96; fill:rgb(234,182,114)" />
<rect x="499.63" y="88.31" width="36.35" height="93.44" style="fill-opacity:0.17; fill:rgb(5,234,137)" />
<rect x="51.83" y="145.34" width="95.96" height="59.44" style="fill-opacity:0.82; fill:rgb(202,153,35)" />
<rect x="287.90" y="375.38" width="19.78" height="8.43" style="fill-opacity:0.81; fill:rgb(157,135,41)" />
<rect x="166.52" y="44.12" width="31.29" height="96.32" style="fill-opacity:0.88; fill:rgb(52,159,162)" />
</svg>
